<ttFont>
    <TTGlyph name="A" xMin="14" yMin="0" xMax="734" yMax="691">
      <contour>
        <pt x="402" y="0" on="1"/>
        <pt x="396" y="107" on="1"/>
        <pt x="335" y="107" on="1"/>
        <pt x="329" y="0" on="1"/>
        <pt x="14" y="0" on="1"/>
        <pt x="24" y="164" on="0"/>
        <pt x="86" y="509" on="0"/>
        <pt x="112" y="600" on="1"/>
        <pt x="137" y="691" on="1"/>
        <pt x="611" y="691" on="1"/>
        <pt x="622" y="655" on="0"/>
        <pt x="656" y="527" on="0"/>
        <pt x="722" y="164" on="0"/>
        <pt x="734" y="0" on="1"/>
      </contour>
      <contour>
        <pt x="350" y="355" on="1"/>
        <pt x="342" y="199" on="1"/>
        <pt x="389" y="199" on="1"/>
        <pt x="382" y="355" on="1"/>
      </contour>
    </TTGlyph>
    <TTGlyph name="AE" xMin="14" yMin="0" xMax="932" yMax="691">
      <contour>
        <pt x="924" y="691" on="1"/>
        <pt x="924" y="400" on="1"/>
        <pt x="708" y="400" on="1"/>
        <pt x="708" y="360" on="1"/>
        <pt x="924" y="360" on="1"/>
        <pt x="924" y="297" on="1"/>
        <pt x="708" y="297" on="1"/>
        <pt x="708" y="257" on="1"/>
        <pt x="932" y="257" on="1"/>
        <pt x="932" y="0" on="1"/>
        <pt x="402" y="0" on="1"/>
        <pt x="396" y="107" on="1"/>
        <pt x="335" y="107" on="1"/>
        <pt x="329" y="0" on="1"/>
        <pt x="14" y="0" on="1"/>
        <pt x="24" y="164" on="0"/>
        <pt x="86" y="509" on="0"/>
        <pt x="112" y="600" on="1"/>
        <pt x="137" y="691" on="1"/>
      </contour>
      <contour>
        <pt x="350" y="355" on="1"/>
        <pt x="342" y="199" on="1"/>
        <pt x="389" y="199" on="1"/>
        <pt x="382" y="355" on="1"/>
      </contour>
    </TTGlyph>
    <TTGlyph name="Aacute" xMin="14" yMin="0" xMax="734" yMax="881">
      <contour>
        <pt x="402" y="0" on="1"/>
        <pt x="396" y="107" on="1"/>
        <pt x="335" y="107" on="1"/>
        <pt x="329" y="0" on="1"/>
        <pt x="14" y="0" on="1"/>
        <pt x="24" y="164" on="0"/>
        <pt x="86" y="509" on="0"/>
        <pt x="112" y="600" on="1"/>
        <pt x="137" y="691" on="1"/>
        <pt x="611" y="691" on="1"/>
        <pt x="622" y="655" on="0"/>
        <pt x="656" y="527" on="0"/>
        <pt x="722" y="164" on="0"/>
        <pt x="734" y="0" on="1"/>
      </contour>
      <contour>
        <pt x="350" y="355" on="1"/>
        <pt x="342" y="199" on="1"/>
        <pt x="389" y="199" on="1"/>
        <pt x="382" y="355" on="1"/>
      </contour>
      <contour>
        <pt x="524" y="723" on="1"/>
        <pt x="211" y="723" on="1"/>
        <pt x="211" y="853" on="1"/>
        <pt x="524" y="881" on="1"/>
      </contour>
    </TTGlyph>
    <TTGlyph name="Acircumflex" xMin="14" yMin="0" xMax="734" yMax="895">
      <contour>
        <pt x="402" y="0" on="1"/>
        <pt x="396" y="107" on="1"/>
        <pt x="335" y="107" on="1"/>
        <pt x="329" y="0" on="1"/>
        <pt x="14" y="0" on="1"/>
        <pt x="24" y="164" on="0"/>
        <pt x="86" y="509" on="0"/>
        <pt x="112" y="600" on="1"/>
        <pt x="137" y="691" on="1"/>
        <pt x="611" y="691" on="1"/>
        <pt x="622" y="655" on="0"/>
        <pt x="656" y="527" on="0"/>
        <pt x="722" y="164" on="0"/>
        <pt x="734" y="0" on="1"/>
      </contour>
      <contour>
        <pt x="350" y="355" on="1"/>
        <pt x="342" y="199" on="1"/>
        <pt x="389" y="199" on="1"/>
        <pt x="382" y="355" on="1"/>
      </contour>
      <contour>
        <pt x="502" y="708" on="1"/>
        <pt x="366" y="778" on="1"/>
        <pt x="227" y="708" on="1"/>
        <pt x="176" y="839" on="1"/>
        <pt x="366" y="895" on="1"/>
        <pt x="555" y="839" on="1"/>
      </contour>
    </TTGlyph>
    <TTGlyph name="Adieresis" xMin="14" yMin="0" xMax="734" yMax="875">
      <contour>
        <pt x="402" y="0" on="1"/>
        <pt x="396" y="107" on="1"/>
        <pt x="335" y="107" on="1"/>
        <pt x="329" y="0" on="1"/>
        <pt x="14" y="0" on="1"/>
        <pt x="24" y="164" on="0"/>
        <pt x="86" y="509" on="0"/>
        <pt x="112" y="600" on="1"/>
        <pt x="137" y="691" on="1"/>
        <pt x="611" y="691" on="1"/>
        <pt x="622" y="655" on="0"/>
        <pt x="656" y="527" on="0"/>
        <pt x="722" y="164" on="0"/>
        <pt x="734" y="0" on="1"/>
      </contour>
      <contour>
        <pt x="350" y="355" on="1"/>
        <pt x="342" y="199" on="1"/>
        <pt x="389" y="199" on="1"/>
        <pt x="382" y="355" on="1"/>
      </contour>
      <contour>
        <pt x="275" y="714" on="1"/>
        <pt x="217" y="714" on="1"/>
        <pt x="173" y="714" on="0"/>
        <pt x="137" y="754" on="0"/>
        <pt x="137" y="834" on="0"/>
        <pt x="173" y="875" on="0"/>
        <pt x="217" y="875" on="1"/>
        <pt x="275" y="875" on="1"/>
        <pt x="353" y="875" on="0"/>
        <pt x="353" y="714" on="0"/>
      </contour>
      <contour>
        <pt x="532" y="714" on="1"/>
        <pt x="475" y="714" on="1"/>
        <pt x="431" y="714" on="0"/>
        <pt x="395" y="754" on="0"/>
        <pt x="395" y="834" on="0"/>
        <pt x="431" y="875" on="0"/>
        <pt x="475" y="875" on="1"/>
        <pt x="532" y="875" on="1"/>
        <pt x="611" y="875" on="0"/>
        <pt x="611" y="714" on="0"/>
      </contour>
    </TTGlyph>
    <TTGlyph name="Agrave" xMin="14" yMin="0" xMax="734" yMax="877">
      <contour>
        <pt x="402" y="0" on="1"/>
        <pt x="396" y="107" on="1"/>
        <pt x="335" y="107" on="1"/>
        <pt x="329" y="0" on="1"/>
        <pt x="14" y="0" on="1"/>
        <pt x="24" y="164" on="0"/>
        <pt x="86" y="509" on="0"/>
        <pt x="112" y="600" on="1"/>
        <pt x="137" y="691" on="1"/>
        <pt x="611" y="691" on="1"/>
        <pt x="622" y="655" on="0"/>
        <pt x="656" y="527" on="0"/>
        <pt x="722" y="164" on="0"/>
        <pt x="734" y="0" on="1"/>
      </contour>
      <contour>
        <pt x="350" y="355" on="1"/>
        <pt x="342" y="199" on="1"/>
        <pt x="389" y="199" on="1"/>
        <pt x="382" y="355" on="1"/>
      </contour>
      <contour>
        <pt x="527" y="719" on="1"/>
        <pt x="214" y="719" on="1"/>
        <pt x="214" y="877" on="1"/>
        <pt x="527" y="849" on="1"/>
      </contour>
    </TTGlyph>
    <TTGlyph name="Aring" xMin="14" yMin="0" xMax="734" yMax="896">
      <contour>
        <pt x="402" y="0" on="1"/>
        <pt x="396" y="107" on="1"/>
        <pt x="335" y="107" on="1"/>
        <pt x="329" y="0" on="1"/>
        <pt x="14" y="0" on="1"/>
        <pt x="24" y="164" on="0"/>
        <pt x="86" y="509" on="0"/>
        <pt x="112" y="600" on="1"/>
        <pt x="137" y="691" on="1"/>
        <pt x="611" y="691" on="1"/>
        <pt x="622" y="655" on="0"/>
        <pt x="656" y="527" on="0"/>
        <pt x="722" y="164" on="0"/>
        <pt x="734" y="0" on="1"/>
      </contour>
      <contour>
        <pt x="350" y="355" on="1"/>
        <pt x="342" y="199" on="1"/>
        <pt x="389" y="199" on="1"/>
        <pt x="382" y="355" on="1"/>
      </contour>
      <contour>
        <pt x="311" y="896" on="1"/>
        <pt x="421" y="896" on="1"/>
        <pt x="540" y="896" on="0"/>
        <pt x="540" y="799" on="1"/>
        <pt x="540" y="700" on="0"/>
        <pt x="421" y="700" on="1"/>
        <pt x="311" y="700" on="1"/>
        <pt x="192" y="700" on="0"/>
        <pt x="192" y="799" on="1"/>
        <pt x="192" y="896" on="0"/>
      </contour>
      <contour>
        <pt x="344" y="770" on="1"/>
        <pt x="392" y="770" on="1"/>
        <pt x="415" y="770" on="0"/>
        <pt x="415" y="816" on="0"/>
        <pt x="392" y="816" on="1"/>
        <pt x="344" y="816" on="1"/>
        <pt x="319" y="816" on="0"/>
        <pt x="319" y="795" on="1"/>
        <pt x="319" y="770" on="0"/>
      </contour>
    </TTGlyph>
    <TTGlyph name="Atilde" xMin="14" yMin="0" xMax="734" yMax="934">
      <contour>
        <pt x="402" y="0" on="1"/>
        <pt x="396" y="107" on="1"/>
        <pt x="335" y="107" on="1"/>
        <pt x="329" y="0" on="1"/>
        <pt x="14" y="0" on="1"/>
        <pt x="24" y="164" on="0"/>
        <pt x="86" y="509" on="0"/>
        <pt x="112" y="600" on="1"/>
        <pt x="137" y="691" on="1"/>
        <pt x="611" y="691" on="1"/>
        <pt x="622" y="655" on="0"/>
        <pt x="656" y="527" on="0"/>
        <pt x="722" y="164" on="0"/>
        <pt x="734" y="0" on="1"/>
      </contour>
      <contour>
        <pt x="350" y="355" on="1"/>
        <pt x="342" y="199" on="1"/>
        <pt x="389" y="199" on="1"/>
        <pt x="382" y="355" on="1"/>
      </contour>
      <contour>
        <pt x="218" y="918" on="1"/>
        <pt x="247" y="926" on="0"/>
        <pt x="324" y="926" on="0"/>
        <pt x="397" y="898" on="0"/>
        <pt x="412" y="884" on="1"/>
        <pt x="426" y="871" on="1"/>
        <pt x="553" y="934" on="1"/>
        <pt x="632" y="803" on="1"/>
        <pt x="626" y="794" on="0"/>
        <pt x="589" y="765" on="0"/>
        <pt x="570" y="756" on="1"/>
        <pt x="519" y="730" on="0"/>
        <pt x="453" y="730" on="1"/>
        <pt x="417" y="730" on="0"/>
        <pt x="349" y="756" on="0"/>
        <pt x="332" y="770" on="1"/>
        <pt x="316" y="783" on="1"/>
        <pt x="193" y="718" on="1"/>
        <pt x="113" y="851" on="1"/>
        <pt x="144" y="898" on="0"/>
      </contour>
    </TTGlyph>
    <TTGlyph name="B" xMin="29" yMin="0" xMax="738" yMax="691">
      <contour>
        <pt x="29" y="0" on="1"/>
        <pt x="29" y="691" on="1"/>
        <pt x="395" y="691" on="1"/>
        <pt x="568" y="691" on="0"/>
        <pt x="724" y="591" on="0"/>
        <pt x="724" y="480" on="1"/>
        <pt x="724" y="441" on="0"/>
        <pt x="704" y="375" on="0"/>
        <pt x="694" y="361" on="1"/>
        <pt x="684" y="347" on="1"/>
        <pt x="718" y="330" on="0"/>
        <pt x="732" y="264" on="1"/>
        <pt x="738" y="237" on="0"/>
        <pt x="738" y="202" on="1"/>
        <pt x="738" y="108" on="0"/>
        <pt x="623" y="0" on="0"/>
        <pt x="508" y="0" on="1"/>
      </contour>
      <contour>
        <pt x="430" y="346" on="1"/>
        <pt x="430" y="398" on="1"/>
        <pt x="430" y="411" on="0"/>
        <pt x="414" y="426" on="0"/>
        <pt x="402" y="426" on="1"/>
        <pt x="373" y="426" on="1"/>
        <pt x="373" y="346" on="1"/>
      </contour>
      <contour>
        <pt x="458" y="297" on="1"/>
        <pt x="373" y="297" on="1"/>
        <pt x="373" y="240" on="1"/>
        <pt x="458" y="240" on="1"/>
        <pt x="469" y="240" on="0"/>
        <pt x="486" y="257" on="0"/>
        <pt x="486" y="281" on="0"/>
        <pt x="470" y="297" on="0"/>
      </contour>
    </TTGlyph>
    <TTGlyph name="C" xMin="29" yMin="-10" xMax="672" yMax="701">
      <contour>
        <pt x="410" y="372" on="1"/>
        <pt x="410" y="317" on="1"/>
        <pt x="430" y="315" on="0"/>
        <pt x="480" y="315" on="1"/>
        <pt x="574" y="315" on="0"/>
        <pt x="648" y="321" on="1"/>
        <pt x="672" y="323" on="1"/>
        <pt x="672" y="24" on="1"/>
        <pt x="575" y="-10" on="0"/>
        <pt x="218" y="-10" on="0"/>
        <pt x="29" y="172" on="0"/>
        <pt x="29" y="531" on="0"/>
        <pt x="215" y="701" on="0"/>
        <pt x="399" y="701" on="1"/>
        <pt x="476" y="701" on="0"/>
        <pt x="613" y="683" on="0"/>
        <pt x="642" y="674" on="1"/>
        <pt x="672" y="665" on="1"/>
        <pt x="672" y="357" on="1"/>
        <pt x="585" y="372" on="0"/>
      </contour>
    </TTGlyph>
    <TTGlyph name="Ccedilla" xMin="29" yMin="-206" xMax="672" yMax="701">
      <contour>
        <pt x="357" y="-206" on="1"/>
        <pt x="317" y="-206" on="0"/>
        <pt x="253" y="-190" on="0"/>
        <pt x="242" y="-182" on="1"/>
        <pt x="230" y="-173" on="1"/>
        <pt x="266" y="-76" on="1"/>
        <pt x="295" y="-100" on="0"/>
        <pt x="357" y="-100" on="1"/>
        <pt x="385" y="-100" on="0"/>
        <pt x="409" y="-89" on="1"/>
        <pt x="405" y="-74" on="1"/>
        <pt x="392" y="-83" on="0"/>
        <pt x="356" y="-83" on="1"/>
        <pt x="272" y="-83" on="0"/>
        <pt x="272" y="-24" on="1"/>
        <pt x="272" y="-8" on="0"/>
        <pt x="276" y="1" on="1"/>
        <pt x="29" y="59" on="0"/>
        <pt x="29" y="350" on="1"/>
        <pt x="29" y="531" on="0"/>
        <pt x="215" y="701" on="0"/>
        <pt x="399" y="701" on="1"/>
        <pt x="476" y="701" on="0"/>
        <pt x="613" y="683" on="0"/>
        <pt x="642" y="674" on="1"/>
        <pt x="672" y="665" on="1"/>
        <pt x="672" y="365" on="1"/>
        <pt x="585" y="379" on="0"/>
        <pt x="410" y="379" on="1"/>
        <pt x="410" y="325" on="1"/>
        <pt x="430" y="322" on="0"/>
        <pt x="480" y="322" on="1"/>
        <pt x="574" y="322" on="0"/>
        <pt x="648" y="328" on="1"/>
        <pt x="672" y="330" on="1"/>
        <pt x="672" y="24" on="1"/>
        <pt x="599" y="0" on="0"/>
        <pt x="468" y="-7" on="1"/>
        <pt x="505" y="-32" on="0"/>
        <pt x="505" y="-143" on="0"/>
        <pt x="430" y="-206" on="0"/>
      </contour>
    </TTGlyph>
    <TTGlyph name="D" xMin="29" yMin="0" xMax="734" yMax="691">
      <contour>
        <pt x="29" y="691" on="1"/>
        <pt x="390" y="691" on="1"/>
        <pt x="557" y="691" on="0"/>
        <pt x="734" y="531" on="0"/>
        <pt x="734" y="350" on="1"/>
        <pt x="734" y="0" on="0"/>
        <pt x="376" y="0" on="1"/>
        <pt x="29" y="0" on="1"/>
      </contour>
      <contour>
        <pt x="365" y="400" on="1"/>
        <pt x="365" y="227" on="1"/>
        <pt x="393" y="227" on="1"/>
        <pt x="405" y="227" on="0"/>
        <pt x="422" y="243" on="0"/>
        <pt x="422" y="256" on="1"/>
        <pt x="422" y="372" on="1"/>
        <pt x="422" y="384" on="0"/>
        <pt x="405" y="400" on="0"/>
        <pt x="393" y="400" on="1"/>
      </contour>
    </TTGlyph>
    <TTGlyph name="Delta" xMin="31" yMin="0" xMax="821" yMax="924">
      <contour>
        <pt x="821" y="0" on="1"/>
        <pt x="31" y="0" on="1"/>
        <pt x="410" y="924" on="1"/>
        <pt x="440" y="924" on="1"/>
      </contour>
      <contour>
        <pt x="129" y="61" on="1"/>
        <pt x="642" y="61" on="1"/>
        <pt x="386" y="694" on="1"/>
      </contour>
    </TTGlyph>
    <TTGlyph name="E" xMin="29" yMin="0" xMax="598" yMax="691">
      <contour>
        <pt x="29" y="691" on="1"/>
        <pt x="589" y="691" on="1"/>
        <pt x="589" y="400" on="1"/>
        <pt x="373" y="400" on="1"/>
        <pt x="373" y="360" on="1"/>
        <pt x="589" y="360" on="1"/>
        <pt x="589" y="297" on="1"/>
        <pt x="373" y="297" on="1"/>
        <pt x="373" y="257" on="1"/>
        <pt x="598" y="257" on="1"/>
        <pt x="598" y="0" on="1"/>
        <pt x="29" y="0" on="1"/>
      </contour>
    </TTGlyph>
    <TTGlyph name="Eacute" xMin="29" yMin="0" xMax="598" yMax="878">
      <contour>
        <pt x="29" y="691" on="1"/>
        <pt x="589" y="691" on="1"/>
        <pt x="589" y="400" on="1"/>
        <pt x="373" y="400" on="1"/>
        <pt x="373" y="360" on="1"/>
        <pt x="589" y="360" on="1"/>
        <pt x="589" y="297" on="1"/>
        <pt x="373" y="297" on="1"/>
        <pt x="373" y="257" on="1"/>
        <pt x="598" y="257" on="1"/>
        <pt x="598" y="0" on="1"/>
        <pt x="29" y="0" on="1"/>
      </contour>
      <contour>
        <pt x="466" y="720" on="1"/>
        <pt x="153" y="720" on="1"/>
        <pt x="153" y="850" on="1"/>
        <pt x="466" y="878" on="1"/>
      </contour>
    </TTGlyph>
    <TTGlyph name="Ecircumflex" xMin="29" yMin="0" xMax="598" yMax="897">
      <contour>
        <pt x="29" y="691" on="1"/>
        <pt x="589" y="691" on="1"/>
        <pt x="589" y="400" on="1"/>
        <pt x="373" y="400" on="1"/>
        <pt x="373" y="360" on="1"/>
        <pt x="589" y="360" on="1"/>
        <pt x="589" y="297" on="1"/>
        <pt x="373" y="297" on="1"/>
        <pt x="373" y="257" on="1"/>
        <pt x="598" y="257" on="1"/>
        <pt x="598" y="0" on="1"/>
        <pt x="29" y="0" on="1"/>
      </contour>
      <contour>
        <pt x="446" y="710" on="1"/>
        <pt x="310" y="780" on="1"/>
        <pt x="171" y="710" on="1"/>
        <pt x="120" y="841" on="1"/>
        <pt x="310" y="897" on="1"/>
        <pt x="499" y="841" on="1"/>
      </contour>
    </TTGlyph>
    <TTGlyph name="Edieresis" xMin="29" yMin="0" xMax="598" yMax="875">
      <contour>
        <pt x="29" y="691" on="1"/>
        <pt x="589" y="691" on="1"/>
        <pt x="589" y="400" on="1"/>
        <pt x="373" y="400" on="1"/>
        <pt x="373" y="360" on="1"/>
        <pt x="589" y="360" on="1"/>
        <pt x="589" y="297" on="1"/>
        <pt x="373" y="297" on="1"/>
        <pt x="373" y="257" on="1"/>
        <pt x="598" y="257" on="1"/>
        <pt x="598" y="0" on="1"/>
        <pt x="29" y="0" on="1"/>
      </contour>
      <contour>
        <pt x="213" y="714" on="1"/>
        <pt x="155" y="714" on="1"/>
        <pt x="111" y="714" on="0"/>
        <pt x="75" y="754" on="0"/>
        <pt x="75" y="834" on="0"/>
        <pt x="111" y="875" on="0"/>
        <pt x="155" y="875" on="1"/>
        <pt x="213" y="875" on="1"/>
        <pt x="291" y="875" on="0"/>
        <pt x="291" y="714" on="0"/>
      </contour>
      <contour>
        <pt x="470" y="714" on="1"/>
        <pt x="413" y="714" on="1"/>
        <pt x="369" y="714" on="0"/>
        <pt x="333" y="754" on="0"/>
        <pt x="333" y="834" on="0"/>
        <pt x="369" y="875" on="0"/>
        <pt x="413" y="875" on="1"/>
        <pt x="470" y="875" on="1"/>
        <pt x="549" y="875" on="0"/>
        <pt x="549" y="714" on="0"/>
      </contour>
    </TTGlyph>
    <TTGlyph name="Egrave" xMin="29" yMin="0" xMax="598" yMax="877">
      <contour>
        <pt x="29" y="691" on="1"/>
        <pt x="589" y="691" on="1"/>
        <pt x="589" y="400" on="1"/>
        <pt x="373" y="400" on="1"/>
        <pt x="373" y="360" on="1"/>
        <pt x="589" y="360" on="1"/>
        <pt x="589" y="297" on="1"/>
        <pt x="373" y="297" on="1"/>
        <pt x="373" y="257" on="1"/>
        <pt x="598" y="257" on="1"/>
        <pt x="598" y="0" on="1"/>
        <pt x="29" y="0" on="1"/>
      </contour>
      <contour>
        <pt x="466" y="719" on="1"/>
        <pt x="153" y="719" on="1"/>
        <pt x="153" y="877" on="1"/>
        <pt x="466" y="849" on="1"/>
      </contour>
    </TTGlyph>
    <TTGlyph name="Eth" xMin="0" yMin="0" xMax="734" yMax="691">
      <contour>
        <pt x="29" y="691" on="1"/>
        <pt x="390" y="691" on="1"/>
        <pt x="557" y="691" on="0"/>
        <pt x="734" y="531" on="0"/>
        <pt x="734" y="350" on="1"/>
        <pt x="734" y="0" on="0"/>
        <pt x="376" y="0" on="1"/>
        <pt x="29" y="0" on="1"/>
        <pt x="29" y="257" on="1"/>
        <pt x="0" y="257" on="1"/>
        <pt x="0" y="422" on="1"/>
        <pt x="29" y="422" on="1"/>
      </contour>
      <contour>
        <pt x="365" y="400" on="1"/>
        <pt x="365" y="227" on="1"/>
        <pt x="393" y="227" on="1"/>
        <pt x="405" y="227" on="0"/>
        <pt x="422" y="243" on="0"/>
        <pt x="422" y="256" on="1"/>
        <pt x="422" y="372" on="1"/>
        <pt x="422" y="384" on="0"/>
        <pt x="405" y="400" on="0"/>
        <pt x="393" y="400" on="1"/>
      </contour>
    </TTGlyph>
    <TTGlyph name="Euro" xMin="29" yMin="-10" xMax="694" yMax="701">
      <contour>
        <pt x="460" y="400" on="1"/>
        <pt x="460" y="368" on="1"/>
        <pt x="591" y="368" on="1"/>
        <pt x="591" y="342" on="1"/>
        <pt x="460" y="342" on="1"/>
        <pt x="460" y="316" on="1"/>
        <pt x="591" y="316" on="1"/>
        <pt x="591" y="290" on="1"/>
        <pt x="460" y="290" on="1"/>
        <pt x="460" y="260" on="1"/>
        <pt x="480" y="257" on="0"/>
        <pt x="530" y="257" on="1"/>
        <pt x="624" y="257" on="0"/>
        <pt x="676" y="269" on="1"/>
        <pt x="694" y="273" on="1"/>
        <pt x="694" y="24" on="1"/>
        <pt x="668" y="11" on="0"/>
        <pt x="527" y="-10" on="0"/>
        <pt x="448" y="-10" on="1"/>
        <pt x="283" y="-10" on="0"/>
        <pt x="97" y="141" on="0"/>
        <pt x="82" y="290" on="1"/>
        <pt x="29" y="290" on="1"/>
        <pt x="29" y="316" on="1"/>
        <pt x="79" y="316" on="1"/>
        <pt x="79" y="342" on="1"/>
        <pt x="29" y="342" on="1"/>
        <pt x="29" y="368" on="1"/>
        <pt x="79" y="368" on="1"/>
        <pt x="84" y="539" on="0"/>
        <pt x="270" y="701" on="0"/>
        <pt x="449" y="701" on="1"/>
        <pt x="526" y="701" on="0"/>
        <pt x="649" y="683" on="0"/>
        <pt x="672" y="674" on="1"/>
        <pt x="694" y="665" on="1"/>
        <pt x="694" y="386" on="1"/>
        <pt x="635" y="400" on="0"/>
      </contour>
    </TTGlyph>
    <TTGlyph name="F" xMin="14" yMin="0" xMax="575" yMax="691">
      <contour>
        <pt x="14" y="691" on="1"/>
        <pt x="575" y="691" on="1"/>
        <pt x="575" y="400" on="1"/>
        <pt x="359" y="400" on="1"/>
        <pt x="359" y="360" on="1"/>
        <pt x="575" y="360" on="1"/>
        <pt x="575" y="220" on="1"/>
        <pt x="359" y="220" on="1"/>
        <pt x="359" y="0" on="1"/>
        <pt x="14" y="0" on="1"/>
      </contour>
    </TTGlyph>
    <TTGlyph name="G" xMin="29" yMin="-9" xMax="686" yMax="699">
      <contour>
        <pt x="410" y="379" on="1"/>
        <pt x="410" y="257" on="1"/>
        <pt x="450" y="257" on="1"/>
        <pt x="450" y="326" on="1"/>
        <pt x="686" y="335" on="1"/>
        <pt x="686" y="0" on="1"/>
        <pt x="579" y="-9" on="0"/>
        <pt x="218" y="-9" on="0"/>
        <pt x="29" y="173" on="0"/>
        <pt x="29" y="531" on="0"/>
        <pt x="215" y="699" on="0"/>
        <pt x="399" y="699" on="1"/>
        <pt x="472" y="699" on="0"/>
        <pt x="612" y="685" on="0"/>
        <pt x="646" y="678" on="1"/>
        <pt x="679" y="671" on="1"/>
        <pt x="679" y="379" on="1"/>
      </contour>
    </TTGlyph>
    <TTGlyph name="H" xMin="29" yMin="0" xMax="744" yMax="691">
      <contour>
        <pt x="415" y="379" on="1"/>
        <pt x="415" y="691" on="1"/>
        <pt x="744" y="691" on="1"/>
        <pt x="744" y="0" on="1"/>
        <pt x="415" y="0" on="1"/>
        <pt x="415" y="233" on="1"/>
        <pt x="357" y="233" on="1"/>
        <pt x="357" y="0" on="1"/>
        <pt x="29" y="0" on="1"/>
        <pt x="29" y="691" on="1"/>
        <pt x="357" y="691" on="1"/>
        <pt x="357" y="379" on="1"/>
      </contour>
    </TTGlyph>
    <TTGlyph name="I" xMin="29" yMin="0" xMax="373" yMax="691">
      <contour>
        <pt x="29" y="0" on="1"/>
        <pt x="29" y="691" on="1"/>
        <pt x="373" y="691" on="1"/>
        <pt x="373" y="0" on="1"/>
      </contour>
    </TTGlyph>
    <TTGlyph name="Iacute" xMin="29" yMin="0" xMax="373" yMax="877">
      <contour>
        <pt x="29" y="0" on="1"/>
        <pt x="29" y="691" on="1"/>
        <pt x="373" y="691" on="1"/>
        <pt x="373" y="0" on="1"/>
      </contour>
      <contour>
        <pt x="357" y="719" on="1"/>
        <pt x="44" y="719" on="1"/>
        <pt x="44" y="849" on="1"/>
        <pt x="357" y="877" on="1"/>
      </contour>
    </TTGlyph>
    <TTGlyph name="Icircumflex" xMin="12" yMin="0" xMax="391" yMax="899">
      <contour>
        <pt x="29" y="0" on="1"/>
        <pt x="29" y="691" on="1"/>
        <pt x="373" y="691" on="1"/>
        <pt x="373" y="0" on="1"/>
      </contour>
      <contour>
        <pt x="338" y="712" on="1"/>
        <pt x="202" y="782" on="1"/>
        <pt x="63" y="712" on="1"/>
        <pt x="12" y="843" on="1"/>
        <pt x="202" y="899" on="1"/>
        <pt x="391" y="843" on="1"/>
      </contour>
    </TTGlyph>
    <TTGlyph name="Idieresis" xMin="-35" yMin="0" xMax="439" yMax="875">
      <contour>
        <pt x="29" y="0" on="1"/>
        <pt x="29" y="691" on="1"/>
        <pt x="373" y="691" on="1"/>
        <pt x="373" y="0" on="1"/>
      </contour>
      <contour>
        <pt x="103" y="714" on="1"/>
        <pt x="45" y="714" on="1"/>
        <pt x="1" y="714" on="0"/>
        <pt x="-35" y="754" on="0"/>
        <pt x="-35" y="834" on="0"/>
        <pt x="1" y="875" on="0"/>
        <pt x="45" y="875" on="1"/>
        <pt x="103" y="875" on="1"/>
        <pt x="181" y="875" on="0"/>
        <pt x="181" y="714" on="0"/>
      </contour>
      <contour>
        <pt x="360" y="714" on="1"/>
        <pt x="303" y="714" on="1"/>
        <pt x="259" y="714" on="0"/>
        <pt x="223" y="754" on="0"/>
        <pt x="223" y="834" on="0"/>
        <pt x="259" y="875" on="0"/>
        <pt x="303" y="875" on="1"/>
        <pt x="360" y="875" on="1"/>
        <pt x="439" y="875" on="0"/>
        <pt x="439" y="714" on="0"/>
      </contour>
    </TTGlyph>
    <TTGlyph name="Igrave" xMin="29" yMin="0" xMax="373" yMax="877">
      <contour>
        <pt x="29" y="0" on="1"/>
        <pt x="29" y="691" on="1"/>
        <pt x="373" y="691" on="1"/>
        <pt x="373" y="0" on="1"/>
      </contour>
      <contour>
        <pt x="359" y="719" on="1"/>
        <pt x="46" y="719" on="1"/>
        <pt x="46" y="877" on="1"/>
        <pt x="359" y="849" on="1"/>
      </contour>
    </TTGlyph>
    <TTGlyph name="J" xMin="29" yMin="-10" xMax="475" yMax="691">
      <contour>
        <pt x="243" y="-10" on="1"/>
        <pt x="178" y="-10" on="0"/>
        <pt x="71" y="8" on="0"/>
        <pt x="50" y="17" on="1"/>
        <pt x="29" y="26" on="1"/>
        <pt x="29" y="276" on="1"/>
        <pt x="69" y="260" on="0"/>
        <pt x="130" y="259" on="1"/>
        <pt x="130" y="691" on="1"/>
        <pt x="475" y="691" on="1"/>
        <pt x="475" y="189" on="1"/>
        <pt x="475" y="88" on="0"/>
        <pt x="362" y="-10" on="0"/>
      </contour>
    </TTGlyph>
    <TTGlyph name="K" xMin="29" yMin="0" xMax="788" yMax="691">
      <contour>
        <pt x="373" y="190" on="1"/>
        <pt x="373" y="0" on="1"/>
        <pt x="29" y="0" on="1"/>
        <pt x="29" y="691" on="1"/>
        <pt x="373" y="691" on="1"/>
        <pt x="373" y="379" on="1"/>
        <pt x="395" y="379" on="1"/>
        <pt x="438" y="691" on="1"/>
        <pt x="788" y="691" on="1"/>
        <pt x="666" y="346" on="1"/>
        <pt x="788" y="0" on="1"/>
        <pt x="436" y="0" on="1"/>
        <pt x="395" y="190" on="1"/>
      </contour>
    </TTGlyph>
    <TTGlyph name="L" xMin="29" yMin="0" xMax="475" yMax="691">
      <contour>
        <pt x="29" y="691" on="1"/>
        <pt x="373" y="691" on="1"/>
        <pt x="373" y="257" on="1"/>
        <pt x="475" y="257" on="1"/>
        <pt x="475" y="0" on="1"/>
        <pt x="29" y="0" on="1"/>
      </contour>
    </TTGlyph>
    <TTGlyph name="Lslash" xMin="0" yMin="0" xMax="460" yMax="691">
      <contour>
        <pt x="14" y="691" on="1"/>
        <pt x="359" y="691" on="1"/>
        <pt x="359" y="528" on="1"/>
        <pt x="398" y="533" on="1"/>
        <pt x="398" y="369" on="1"/>
        <pt x="359" y="363" on="1"/>
        <pt x="359" y="257" on="1"/>
        <pt x="460" y="257" on="1"/>
        <pt x="460" y="0" on="1"/>
        <pt x="14" y="0" on="1"/>
        <pt x="14" y="317" on="1"/>
        <pt x="0" y="316" on="1"/>
        <pt x="0" y="480" on="1"/>
        <pt x="14" y="482" on="1"/>
      </contour>
    </TTGlyph>
    <TTGlyph name="M" xMin="29" yMin="0" xMax="834" yMax="691">
      <contour>
        <pt x="834" y="691" on="1"/>
        <pt x="834" y="0" on="1"/>
        <pt x="489" y="0" on="1"/>
        <pt x="489" y="250" on="1"/>
        <pt x="445" y="134" on="1"/>
        <pt x="419" y="134" on="1"/>
        <pt x="373" y="250" on="1"/>
        <pt x="373" y="0" on="1"/>
        <pt x="29" y="0" on="1"/>
        <pt x="29" y="691" on="1"/>
        <pt x="373" y="691" on="1"/>
        <pt x="419" y="558" on="1"/>
        <pt x="445" y="558" on="1"/>
        <pt x="489" y="691" on="1"/>
      </contour>
    </TTGlyph>
    <TTGlyph name="N" xMin="29" yMin="0" xMax="706" yMax="691">
      <contour>
        <pt x="29" y="691" on="1"/>
        <pt x="335" y="691" on="1"/>
        <pt x="398" y="485" on="1"/>
        <pt x="398" y="691" on="1"/>
        <pt x="706" y="691" on="1"/>
        <pt x="706" y="0" on="1"/>
        <pt x="398" y="0" on="1"/>
        <pt x="345" y="202" on="1"/>
        <pt x="345" y="0" on="1"/>
        <pt x="29" y="0" on="1"/>
      </contour>
    </TTGlyph>
    <TTGlyph name="Ntilde" xMin="29" yMin="0" xMax="706" yMax="925">
      <contour>
        <pt x="29" y="691" on="1"/>
        <pt x="335" y="691" on="1"/>
        <pt x="398" y="485" on="1"/>
        <pt x="398" y="691" on="1"/>
        <pt x="706" y="691" on="1"/>
        <pt x="706" y="0" on="1"/>
        <pt x="398" y="0" on="1"/>
        <pt x="345" y="202" on="1"/>
        <pt x="345" y="0" on="1"/>
        <pt x="29" y="0" on="1"/>
      </contour>
      <contour>
        <pt x="206" y="909" on="1"/>
        <pt x="236" y="917" on="0"/>
        <pt x="313" y="917" on="0"/>
        <pt x="386" y="890" on="0"/>
        <pt x="400" y="876" on="1"/>
        <pt x="415" y="862" on="1"/>
        <pt x="542" y="925" on="1"/>
        <pt x="621" y="794" on="1"/>
        <pt x="615" y="785" on="0"/>
        <pt x="578" y="756" on="0"/>
        <pt x="559" y="746" on="1"/>
        <pt x="508" y="721" on="0"/>
        <pt x="442" y="721" on="1"/>
        <pt x="406" y="721" on="0"/>
        <pt x="338" y="748" on="0"/>
        <pt x="322" y="761" on="1"/>
        <pt x="305" y="774" on="1"/>
        <pt x="182" y="709" on="1"/>
        <pt x="102" y="842" on="1"/>
        <pt x="133" y="889" on="0"/>
      </contour>
    </TTGlyph>
    <TTGlyph name="O" xMin="14" yMin="-10" xMax="786" yMax="701">
      <contour>
        <pt x="359" y="701" on="1"/>
        <pt x="442" y="701" on="1"/>
        <pt x="622" y="701" on="0"/>
        <pt x="786" y="531" on="0"/>
        <pt x="786" y="167" on="0"/>
        <pt x="621" y="-10" on="0"/>
        <pt x="442" y="-10" on="1"/>
        <pt x="359" y="-10" on="1"/>
        <pt x="180" y="-10" on="0"/>
        <pt x="14" y="167" on="0"/>
        <pt x="14" y="531" on="0"/>
        <pt x="179" y="701" on="0"/>
      </contour>
      <contour>
        <pt x="372" y="372" on="1"/>
        <pt x="372" y="256" on="1"/>
        <pt x="372" y="243" on="0"/>
        <pt x="387" y="227" on="0"/>
        <pt x="412" y="227" on="0"/>
        <pt x="429" y="243" on="0"/>
        <pt x="429" y="256" on="1"/>
        <pt x="429" y="372" on="1"/>
        <pt x="429" y="384" on="0"/>
        <pt x="412" y="400" on="0"/>
        <pt x="387" y="400" on="0"/>
        <pt x="372" y="384" on="0"/>
      </contour>
    </TTGlyph>
    <TTGlyph name="OE" xMin="29" yMin="-10" xMax="1025" yMax="701">
      <contour>
        <pt x="386" y="372" on="1"/>
        <pt x="386" y="256" on="1"/>
        <pt x="386" y="243" on="0"/>
        <pt x="402" y="227" on="0"/>
        <pt x="426" y="227" on="0"/>
        <pt x="443" y="244" on="0"/>
        <pt x="443" y="256" on="1"/>
        <pt x="443" y="372" on="1"/>
        <pt x="443" y="384" on="0"/>
        <pt x="426" y="400" on="0"/>
        <pt x="402" y="400" on="0"/>
        <pt x="386" y="384" on="0"/>
      </contour>
      <contour>
        <pt x="1025" y="257" on="1"/>
        <pt x="1025" y="0" on="1"/>
        <pt x="569" y="0" on="1"/>
        <pt x="512" y="-10" on="0"/>
        <pt x="456" y="-10" on="1"/>
        <pt x="373" y="-10" on="1"/>
        <pt x="194" y="-10" on="0"/>
        <pt x="29" y="167" on="0"/>
        <pt x="29" y="531" on="0"/>
        <pt x="194" y="701" on="0"/>
        <pt x="373" y="701" on="1"/>
        <pt x="456" y="701" on="1"/>
        <pt x="501" y="701" on="0"/>
        <pt x="569" y="691" on="1"/>
        <pt x="1017" y="691" on="1"/>
        <pt x="1017" y="400" on="1"/>
        <pt x="801" y="400" on="1"/>
        <pt x="801" y="360" on="1"/>
        <pt x="1017" y="360" on="1"/>
        <pt x="1017" y="297" on="1"/>
        <pt x="801" y="297" on="1"/>
        <pt x="801" y="257" on="1"/>
      </contour>
    </TTGlyph>
    <TTGlyph name="Oacute" xMin="14" yMin="-10" xMax="786" yMax="877">
      <contour>
        <pt x="359" y="701" on="1"/>
        <pt x="442" y="701" on="1"/>
        <pt x="622" y="701" on="0"/>
        <pt x="786" y="531" on="0"/>
        <pt x="786" y="167" on="0"/>
        <pt x="621" y="-10" on="0"/>
        <pt x="442" y="-10" on="1"/>
        <pt x="359" y="-10" on="1"/>
        <pt x="180" y="-10" on="0"/>
        <pt x="14" y="167" on="0"/>
        <pt x="14" y="531" on="0"/>
        <pt x="179" y="701" on="0"/>
      </contour>
      <contour>
        <pt x="372" y="372" on="1"/>
        <pt x="372" y="256" on="1"/>
        <pt x="372" y="243" on="0"/>
        <pt x="387" y="227" on="0"/>
        <pt x="412" y="227" on="0"/>
        <pt x="429" y="243" on="0"/>
        <pt x="429" y="256" on="1"/>
        <pt x="429" y="372" on="1"/>
        <pt x="429" y="384" on="0"/>
        <pt x="412" y="400" on="0"/>
        <pt x="387" y="400" on="0"/>
        <pt x="372" y="384" on="0"/>
      </contour>
      <contour>
        <pt x="557" y="719" on="1"/>
        <pt x="244" y="719" on="1"/>
        <pt x="244" y="849" on="1"/>
        <pt x="557" y="877" on="1"/>
      </contour>
    </TTGlyph>
    <TTGlyph name="Ocircumflex" xMin="14" yMin="-10" xMax="786" yMax="897">
      <contour>
        <pt x="359" y="701" on="1"/>
        <pt x="442" y="701" on="1"/>
        <pt x="622" y="701" on="0"/>
        <pt x="786" y="531" on="0"/>
        <pt x="786" y="167" on="0"/>
        <pt x="621" y="-10" on="0"/>
        <pt x="442" y="-10" on="1"/>
        <pt x="359" y="-10" on="1"/>
        <pt x="180" y="-10" on="0"/>
        <pt x="14" y="167" on="0"/>
        <pt x="14" y="531" on="0"/>
        <pt x="179" y="701" on="0"/>
      </contour>
      <contour>
        <pt x="372" y="372" on="1"/>
        <pt x="372" y="256" on="1"/>
        <pt x="372" y="243" on="0"/>
        <pt x="387" y="227" on="0"/>
        <pt x="412" y="227" on="0"/>
        <pt x="429" y="243" on="0"/>
        <pt x="429" y="256" on="1"/>
        <pt x="429" y="372" on="1"/>
        <pt x="429" y="384" on="0"/>
        <pt x="412" y="400" on="0"/>
        <pt x="387" y="400" on="0"/>
        <pt x="372" y="384" on="0"/>
      </contour>
      <contour>
        <pt x="538" y="710" on="1"/>
        <pt x="402" y="780" on="1"/>
        <pt x="263" y="710" on="1"/>
        <pt x="212" y="841" on="1"/>
        <pt x="402" y="897" on="1"/>
        <pt x="591" y="841" on="1"/>
      </contour>
    </TTGlyph>
    <TTGlyph name="Odieresis" xMin="14" yMin="-10" xMax="786" yMax="881">
      <contour>
        <pt x="359" y="701" on="1"/>
        <pt x="442" y="701" on="1"/>
        <pt x="622" y="701" on="0"/>
        <pt x="786" y="531" on="0"/>
        <pt x="786" y="167" on="0"/>
        <pt x="621" y="-10" on="0"/>
        <pt x="442" y="-10" on="1"/>
        <pt x="359" y="-10" on="1"/>
        <pt x="180" y="-10" on="0"/>
        <pt x="14" y="167" on="0"/>
        <pt x="14" y="531" on="0"/>
        <pt x="179" y="701" on="0"/>
      </contour>
      <contour>
        <pt x="372" y="372" on="1"/>
        <pt x="372" y="256" on="1"/>
        <pt x="372" y="243" on="0"/>
        <pt x="387" y="227" on="0"/>
        <pt x="412" y="227" on="0"/>
        <pt x="429" y="243" on="0"/>
        <pt x="429" y="256" on="1"/>
        <pt x="429" y="372" on="1"/>
        <pt x="429" y="384" on="0"/>
        <pt x="412" y="400" on="0"/>
        <pt x="387" y="400" on="0"/>
        <pt x="372" y="384" on="0"/>
      </contour>
      <contour>
        <pt x="302" y="720" on="1"/>
        <pt x="244" y="720" on="1"/>
        <pt x="200" y="720" on="0"/>
        <pt x="164" y="760" on="0"/>
        <pt x="164" y="840" on="0"/>
        <pt x="200" y="881" on="0"/>
        <pt x="244" y="881" on="1"/>
        <pt x="302" y="881" on="1"/>
        <pt x="380" y="881" on="0"/>
        <pt x="380" y="720" on="0"/>
      </contour>
      <contour>
        <pt x="559" y="720" on="1"/>
        <pt x="502" y="720" on="1"/>
        <pt x="458" y="720" on="0"/>
        <pt x="422" y="760" on="0"/>
        <pt x="422" y="840" on="0"/>
        <pt x="458" y="881" on="0"/>
        <pt x="502" y="881" on="1"/>
        <pt x="559" y="881" on="1"/>
        <pt x="638" y="881" on="0"/>
        <pt x="638" y="720" on="0"/>
      </contour>
    </TTGlyph>
    <TTGlyph name="Ograve" xMin="14" yMin="-10" xMax="786" yMax="877">
      <contour>
        <pt x="359" y="701" on="1"/>
        <pt x="442" y="701" on="1"/>
        <pt x="622" y="701" on="0"/>
        <pt x="786" y="531" on="0"/>
        <pt x="786" y="167" on="0"/>
        <pt x="621" y="-10" on="0"/>
        <pt x="442" y="-10" on="1"/>
        <pt x="359" y="-10" on="1"/>
        <pt x="180" y="-10" on="0"/>
        <pt x="14" y="167" on="0"/>
        <pt x="14" y="531" on="0"/>
        <pt x="179" y="701" on="0"/>
      </contour>
      <contour>
        <pt x="372" y="372" on="1"/>
        <pt x="372" y="256" on="1"/>
        <pt x="372" y="243" on="0"/>
        <pt x="387" y="227" on="0"/>
        <pt x="412" y="227" on="0"/>
        <pt x="429" y="243" on="0"/>
        <pt x="429" y="256" on="1"/>
        <pt x="429" y="372" on="1"/>
        <pt x="429" y="384" on="0"/>
        <pt x="412" y="400" on="0"/>
        <pt x="387" y="400" on="0"/>
        <pt x="372" y="384" on="0"/>
      </contour>
      <contour>
        <pt x="556" y="719" on="1"/>
        <pt x="243" y="719" on="1"/>
        <pt x="243" y="877" on="1"/>
        <pt x="556" y="849" on="1"/>
      </contour>
    </TTGlyph>
    <TTGlyph name="Omega" xMin="64" yMin="0" xMax="1004" yMax="948">
      <contour>
        <pt x="828" y="126" on="1"/>
        <pt x="900" y="126" on="0"/>
        <pt x="922" y="152" on="1"/>
        <pt x="946" y="172" on="0"/>
        <pt x="952" y="247" on="1"/>
        <pt x="984" y="247" on="1"/>
        <pt x="984" y="0" on="1"/>
        <pt x="602" y="0" on="1"/>
        <pt x="602" y="253" on="1"/>
        <pt x="710" y="274" on="0"/>
        <pt x="838" y="446" on="0"/>
        <pt x="838" y="573" on="1"/>
        <pt x="838" y="723" on="0"/>
        <pt x="673" y="898" on="0"/>
        <pt x="397" y="898" on="0"/>
        <pt x="232" y="722" on="0"/>
        <pt x="232" y="573" on="1"/>
        <pt x="232" y="446" on="0"/>
        <pt x="293" y="360" on="1"/>
        <pt x="357" y="274" on="0"/>
        <pt x="468" y="253" on="1"/>
        <pt x="468" y="0" on="1"/>
        <pt x="84" y="0" on="1"/>
        <pt x="84" y="247" on="1"/>
        <pt x="117" y="247" on="1"/>
        <pt x="122" y="176" on="0"/>
        <pt x="146" y="152" on="1"/>
        <pt x="169" y="126" on="0"/>
        <pt x="240" y="126" on="1"/>
        <pt x="413" y="126" on="1"/>
        <pt x="413" y="209" on="1"/>
        <pt x="249" y="239" on="0"/>
        <pt x="156" y="335" on="1"/>
        <pt x="64" y="433" on="0"/>
        <pt x="64" y="573" on="1"/>
        <pt x="64" y="739" on="0"/>
        <pt x="322" y="948" on="0"/>
        <pt x="747" y="948" on="0"/>
        <pt x="1004" y="742" on="0"/>
        <pt x="1004" y="573" on="1"/>
        <pt x="1004" y="430" on="0"/>
        <pt x="819" y="238" on="0"/>
        <pt x="655" y="209" on="1"/>
        <pt x="655" y="126" on="1"/>
      </contour>
    </TTGlyph>
    <TTGlyph name="Oslash" xMin="14" yMin="-93" xMax="786" yMax="789">
      <contour>
        <pt x="372" y="372" on="1"/>
        <pt x="372" y="256" on="1"/>
        <pt x="372" y="243" on="0"/>
        <pt x="387" y="227" on="0"/>
        <pt x="412" y="227" on="0"/>
        <pt x="429" y="243" on="0"/>
        <pt x="429" y="256" on="1"/>
        <pt x="429" y="372" on="1"/>
        <pt x="429" y="384" on="0"/>
        <pt x="412" y="400" on="0"/>
        <pt x="387" y="400" on="0"/>
        <pt x="372" y="384" on="0"/>
      </contour>
      <contour>
        <pt x="14" y="350" on="1"/>
        <pt x="14" y="525" on="0"/>
        <pt x="170" y="696" on="0"/>
        <pt x="339" y="701" on="1"/>
        <pt x="353" y="781" on="1"/>
        <pt x="373" y="789" on="0"/>
        <pt x="481" y="789" on="0"/>
        <pt x="569" y="766" on="0"/>
        <pt x="582" y="755" on="1"/>
        <pt x="596" y="744" on="1"/>
        <pt x="585" y="682" on="1"/>
        <pt x="689" y="652" on="0"/>
        <pt x="786" y="490" on="0"/>
        <pt x="786" y="350" on="1"/>
        <pt x="786" y="172" on="0"/>
        <pt x="630" y="-5" on="0"/>
        <pt x="462" y="-10" on="1"/>
        <pt x="449" y="-84" on="1"/>
        <pt x="429" y="-93" on="0"/>
        <pt x="322" y="-93" on="0"/>
        <pt x="233" y="-70" on="0"/>
        <pt x="220" y="-58" on="1"/>
        <pt x="206" y="-47" on="1"/>
        <pt x="216" y="7" on="1"/>
        <pt x="112" y="38" on="0"/>
        <pt x="14" y="208" on="0"/>
      </contour>
    </TTGlyph>
    <TTGlyph name="Otilde" xMin="14" yMin="-10" xMax="786" yMax="928">
      <contour>
        <pt x="359" y="701" on="1"/>
        <pt x="442" y="701" on="1"/>
        <pt x="622" y="701" on="0"/>
        <pt x="786" y="531" on="0"/>
        <pt x="786" y="167" on="0"/>
        <pt x="621" y="-10" on="0"/>
        <pt x="442" y="-10" on="1"/>
        <pt x="359" y="-10" on="1"/>
        <pt x="180" y="-10" on="0"/>
        <pt x="14" y="167" on="0"/>
        <pt x="14" y="531" on="0"/>
        <pt x="179" y="701" on="0"/>
      </contour>
      <contour>
        <pt x="372" y="372" on="1"/>
        <pt x="372" y="256" on="1"/>
        <pt x="372" y="243" on="0"/>
        <pt x="387" y="227" on="0"/>
        <pt x="412" y="227" on="0"/>
        <pt x="429" y="243" on="0"/>
        <pt x="429" y="256" on="1"/>
        <pt x="429" y="372" on="1"/>
        <pt x="429" y="384" on="0"/>
        <pt x="412" y="400" on="0"/>
        <pt x="387" y="400" on="0"/>
        <pt x="372" y="384" on="0"/>
      </contour>
      <contour>
        <pt x="244" y="912" on="1"/>
        <pt x="274" y="920" on="0"/>
        <pt x="351" y="920" on="0"/>
        <pt x="424" y="892" on="0"/>
        <pt x="438" y="878" on="1"/>
        <pt x="453" y="865" on="1"/>
        <pt x="580" y="928" on="1"/>
        <pt x="659" y="797" on="1"/>
        <pt x="653" y="788" on="0"/>
        <pt x="616" y="759" on="0"/>
        <pt x="597" y="750" on="1"/>
        <pt x="546" y="724" on="0"/>
        <pt x="480" y="724" on="1"/>
        <pt x="444" y="724" on="0"/>
        <pt x="376" y="750" on="0"/>
        <pt x="360" y="764" on="1"/>
        <pt x="343" y="777" on="1"/>
        <pt x="220" y="712" on="1"/>
        <pt x="140" y="845" on="1"/>
        <pt x="171" y="892" on="0"/>
      </contour>
    </TTGlyph>
    <TTGlyph name="P" xMin="29" yMin="0" xMax="739" yMax="691">
      <contour>
        <pt x="29" y="0" on="1"/>
        <pt x="29" y="691" on="1"/>
        <pt x="392" y="691" on="1"/>
        <pt x="571" y="691" on="0"/>
        <pt x="739" y="574" on="0"/>
        <pt x="739" y="430" on="1"/>
        <pt x="739" y="315" on="0"/>
        <pt x="675" y="258" on="1"/>
        <pt x="620" y="209" on="0"/>
        <pt x="497" y="197" on="1"/>
        <pt x="445" y="192" on="0"/>
        <pt x="373" y="192" on="1"/>
        <pt x="373" y="0" on="1"/>
      </contour>
      <contour>
        <pt x="373" y="297" on="1"/>
        <pt x="402" y="297" on="1"/>
        <pt x="414" y="297" on="0"/>
        <pt x="430" y="313" on="0"/>
        <pt x="430" y="326" on="1"/>
        <pt x="430" y="372" on="1"/>
        <pt x="430" y="385" on="0"/>
        <pt x="414" y="400" on="0"/>
        <pt x="402" y="400" on="1"/>
        <pt x="373" y="400" on="1"/>
      </contour>
    </TTGlyph>
    <TTGlyph name="Q" xMin="29" yMin="-80" xMax="754" yMax="701">
      <contour>
        <pt x="399" y="-10" on="1"/>
        <pt x="373" y="-10" on="1"/>
        <pt x="194" y="-10" on="0"/>
        <pt x="29" y="167" on="0"/>
        <pt x="29" y="531" on="0"/>
        <pt x="194" y="701" on="0"/>
        <pt x="373" y="701" on="1"/>
        <pt x="399" y="701" on="1"/>
        <pt x="579" y="701" on="0"/>
        <pt x="744" y="531" on="0"/>
        <pt x="744" y="350" on="1"/>
        <pt x="744" y="299" on="0"/>
        <pt x="727" y="209" on="0"/>
        <pt x="718" y="190" on="1"/>
        <pt x="709" y="170" on="1"/>
        <pt x="754" y="160" on="1"/>
        <pt x="711" y="-80" on="1"/>
        <pt x="610" y="-80" on="0"/>
        <pt x="503" y="-31" on="0"/>
        <pt x="486" y="-3" on="1"/>
        <pt x="439" y="-10" on="0"/>
      </contour>
      <contour>
        <pt x="357" y="372" on="1"/>
        <pt x="357" y="256" on="1"/>
        <pt x="357" y="243" on="0"/>
        <pt x="373" y="227" on="0"/>
        <pt x="398" y="227" on="0"/>
        <pt x="415" y="243" on="0"/>
        <pt x="415" y="256" on="1"/>
        <pt x="415" y="372" on="1"/>
        <pt x="415" y="384" on="0"/>
        <pt x="398" y="400" on="0"/>
        <pt x="373" y="400" on="0"/>
        <pt x="357" y="384" on="0"/>
      </contour>
    </TTGlyph>
    <TTGlyph name="R" xMin="29" yMin="0" xMax="759" yMax="691">
      <contour>
        <pt x="373" y="202" on="1"/>
        <pt x="373" y="0" on="1"/>
        <pt x="29" y="0" on="1"/>
        <pt x="29" y="691" on="1"/>
        <pt x="392" y="691" on="1"/>
        <pt x="571" y="691" on="0"/>
        <pt x="739" y="574" on="0"/>
        <pt x="739" y="430" on="1"/>
        <pt x="739" y="321" on="0"/>
        <pt x="668" y="269" on="1"/>
        <pt x="728" y="162" on="0"/>
        <pt x="759" y="0" on="1"/>
        <pt x="430" y="0" on="1"/>
        <pt x="422" y="101" on="0"/>
        <pt x="402" y="178" on="1"/>
        <pt x="395" y="202" on="1"/>
      </contour>
      <contour>
        <pt x="373" y="283" on="1"/>
        <pt x="402" y="283" on="1"/>
        <pt x="414" y="283" on="0"/>
        <pt x="430" y="299" on="0"/>
        <pt x="430" y="312" on="1"/>
        <pt x="430" y="372" on="1"/>
        <pt x="430" y="385" on="0"/>
        <pt x="414" y="400" on="0"/>
        <pt x="402" y="400" on="1"/>
        <pt x="373" y="400" on="1"/>
      </contour>
    </TTGlyph>
    <TTGlyph name="S" xMin="29" yMin="-10" xMax="676" yMax="701">
      <contour>
        <pt x="368" y="701" on="1"/>
        <pt x="450" y="701" on="0"/>
        <pt x="593" y="680" on="0"/>
        <pt x="624" y="669" on="1"/>
        <pt x="654" y="658" on="1"/>
        <pt x="654" y="372" on="1"/>
        <pt x="573" y="409" on="0"/>
        <pt x="432" y="409" on="1"/>
        <pt x="432" y="383" on="1"/>
        <pt x="562" y="373" on="0"/>
        <pt x="676" y="289" on="0"/>
        <pt x="676" y="204" on="1"/>
        <pt x="676" y="102" on="0"/>
        <pt x="510" y="-10" on="0"/>
        <pt x="337" y="-10" on="1"/>
        <pt x="238" y="-10" on="0"/>
        <pt x="86" y="13" on="0"/>
        <pt x="60" y="24" on="1"/>
        <pt x="33" y="36" on="1"/>
        <pt x="33" y="285" on="1"/>
        <pt x="42" y="281" on="0"/>
        <pt x="78" y="267" on="0"/>
        <pt x="203" y="245" on="0"/>
        <pt x="275" y="245" on="1"/>
        <pt x="275" y="269" on="1"/>
        <pt x="153" y="278" on="0"/>
        <pt x="29" y="364" on="0"/>
        <pt x="29" y="578" on="0"/>
        <pt x="199" y="701" on="0"/>
      </contour>
    </TTGlyph>
    <TTGlyph name="Scaron" xMin="29" yMin="-10" xMax="676" yMax="911">
      <contour>
        <pt x="368" y="701" on="1"/>
        <pt x="450" y="701" on="0"/>
        <pt x="593" y="680" on="0"/>
        <pt x="624" y="669" on="1"/>
        <pt x="654" y="658" on="1"/>
        <pt x="654" y="372" on="1"/>
        <pt x="573" y="409" on="0"/>
        <pt x="432" y="409" on="1"/>
        <pt x="432" y="383" on="1"/>
        <pt x="562" y="373" on="0"/>
        <pt x="676" y="289" on="0"/>
        <pt x="676" y="204" on="1"/>
        <pt x="676" y="102" on="0"/>
        <pt x="510" y="-10" on="0"/>
        <pt x="337" y="-10" on="1"/>
        <pt x="238" y="-10" on="0"/>
        <pt x="86" y="13" on="0"/>
        <pt x="60" y="24" on="1"/>
        <pt x="33" y="36" on="1"/>
        <pt x="33" y="285" on="1"/>
        <pt x="42" y="281" on="0"/>
        <pt x="78" y="267" on="0"/>
        <pt x="203" y="245" on="0"/>
        <pt x="275" y="245" on="1"/>
        <pt x="275" y="269" on="1"/>
        <pt x="153" y="278" on="0"/>
        <pt x="29" y="364" on="0"/>
        <pt x="29" y="578" on="0"/>
        <pt x="199" y="701" on="0"/>
      </contour>
      <contour>
        <pt x="347" y="841" on="1"/>
        <pt x="483" y="911" on="1"/>
        <pt x="536" y="779" on="1"/>
        <pt x="347" y="724" on="1"/>
        <pt x="157" y="779" on="1"/>
        <pt x="208" y="911" on="1"/>
      </contour>
    </TTGlyph>
    <TTGlyph name="T" xMin="29" yMin="0" xMax="645" yMax="691">
      <contour>
        <pt x="29" y="400" on="1"/>
        <pt x="29" y="691" on="1"/>
        <pt x="645" y="691" on="1"/>
        <pt x="645" y="400" on="1"/>
        <pt x="523" y="400" on="1"/>
        <pt x="523" y="0" on="1"/>
        <pt x="149" y="0" on="1"/>
        <pt x="149" y="400" on="1"/>
      </contour>
    </TTGlyph>
    <TTGlyph name="Tcaron" xMin="15" yMin="0" xMax="631" yMax="898">
      <contour>
        <pt x="15" y="400" on="1"/>
        <pt x="15" y="691" on="1"/>
        <pt x="631" y="691" on="1"/>
        <pt x="631" y="400" on="1"/>
        <pt x="509" y="400" on="1"/>
        <pt x="509" y="0" on="1"/>
        <pt x="135" y="0" on="1"/>
        <pt x="135" y="400" on="1"/>
      </contour>
      <contour>
        <pt x="325" y="828" on="1"/>
        <pt x="461" y="898" on="1"/>
        <pt x="514" y="766" on="1"/>
        <pt x="325" y="711" on="1"/>
        <pt x="135" y="766" on="1"/>
        <pt x="186" y="898" on="1"/>
      </contour>
    </TTGlyph>
    <TTGlyph name="Thorn" xMin="29" yMin="0" xMax="739" yMax="691">
      <contour>
        <pt x="29" y="0" on="1"/>
        <pt x="29" y="691" on="1"/>
        <pt x="373" y="691" on="1"/>
        <pt x="373" y="599" on="1"/>
        <pt x="392" y="599" on="1"/>
        <pt x="572" y="599" on="0"/>
        <pt x="739" y="483" on="0"/>
        <pt x="739" y="339" on="1"/>
        <pt x="739" y="224" on="0"/>
        <pt x="675" y="167" on="1"/>
        <pt x="600" y="100" on="0"/>
        <pt x="373" y="100" on="1"/>
        <pt x="373" y="0" on="1"/>
      </contour>
      <contour>
        <pt x="373" y="246" on="1"/>
        <pt x="402" y="246" on="1"/>
        <pt x="414" y="246" on="0"/>
        <pt x="430" y="262" on="0"/>
        <pt x="430" y="275" on="1"/>
        <pt x="430" y="320" on="1"/>
        <pt x="430" y="333" on="0"/>
        <pt x="414" y="349" on="0"/>
        <pt x="402" y="349" on="1"/>
        <pt x="373" y="349" on="1"/>
      </contour>
    </TTGlyph>
    <TTGlyph name="U" xMin="29" yMin="-10" xMax="744" yMax="691">
      <contour>
        <pt x="415" y="691" on="1"/>
        <pt x="744" y="691" on="1"/>
        <pt x="744" y="307" on="1"/>
        <pt x="744" y="145" on="0"/>
        <pt x="579" y="-10" on="0"/>
        <pt x="399" y="-10" on="1"/>
        <pt x="373" y="-10" on="1"/>
        <pt x="194" y="-10" on="0"/>
        <pt x="29" y="146" on="0"/>
        <pt x="29" y="307" on="1"/>
        <pt x="29" y="691" on="1"/>
        <pt x="357" y="691" on="1"/>
        <pt x="357" y="270" on="1"/>
        <pt x="357" y="257" on="0"/>
        <pt x="373" y="242" on="0"/>
        <pt x="398" y="242" on="0"/>
        <pt x="415" y="258" on="0"/>
        <pt x="415" y="270" on="1"/>
      </contour>
    </TTGlyph>
    <TTGlyph name="Uacute" xMin="29" yMin="-10" xMax="744" yMax="877">
      <contour>
        <pt x="415" y="691" on="1"/>
        <pt x="744" y="691" on="1"/>
        <pt x="744" y="307" on="1"/>
        <pt x="744" y="145" on="0"/>
        <pt x="579" y="-10" on="0"/>
        <pt x="399" y="-10" on="1"/>
        <pt x="373" y="-10" on="1"/>
        <pt x="194" y="-10" on="0"/>
        <pt x="29" y="146" on="0"/>
        <pt x="29" y="307" on="1"/>
        <pt x="29" y="691" on="1"/>
        <pt x="357" y="691" on="1"/>
        <pt x="357" y="270" on="1"/>
        <pt x="357" y="257" on="0"/>
        <pt x="373" y="242" on="0"/>
        <pt x="398" y="242" on="0"/>
        <pt x="415" y="258" on="0"/>
        <pt x="415" y="270" on="1"/>
      </contour>
      <contour>
        <pt x="543" y="719" on="1"/>
        <pt x="230" y="719" on="1"/>
        <pt x="230" y="849" on="1"/>
        <pt x="543" y="877" on="1"/>
      </contour>
    </TTGlyph>
    <TTGlyph name="Ucircumflex" xMin="29" yMin="-10" xMax="744" yMax="898">
      <contour>
        <pt x="415" y="691" on="1"/>
        <pt x="744" y="691" on="1"/>
        <pt x="744" y="307" on="1"/>
        <pt x="744" y="145" on="0"/>
        <pt x="579" y="-10" on="0"/>
        <pt x="399" y="-10" on="1"/>
        <pt x="373" y="-10" on="1"/>
        <pt x="194" y="-10" on="0"/>
        <pt x="29" y="146" on="0"/>
        <pt x="29" y="307" on="1"/>
        <pt x="29" y="691" on="1"/>
        <pt x="357" y="691" on="1"/>
        <pt x="357" y="270" on="1"/>
        <pt x="357" y="257" on="0"/>
        <pt x="373" y="242" on="0"/>
        <pt x="398" y="242" on="0"/>
        <pt x="415" y="258" on="0"/>
        <pt x="415" y="270" on="1"/>
      </contour>
      <contour>
        <pt x="525" y="711" on="1"/>
        <pt x="389" y="781" on="1"/>
        <pt x="250" y="711" on="1"/>
        <pt x="199" y="842" on="1"/>
        <pt x="389" y="898" on="1"/>
        <pt x="578" y="842" on="1"/>
      </contour>
    </TTGlyph>
    <TTGlyph name="Udieresis" xMin="29" yMin="-10" xMax="744" yMax="881">
      <contour>
        <pt x="415" y="691" on="1"/>
        <pt x="744" y="691" on="1"/>
        <pt x="744" y="307" on="1"/>
        <pt x="744" y="145" on="0"/>
        <pt x="579" y="-10" on="0"/>
        <pt x="399" y="-10" on="1"/>
        <pt x="373" y="-10" on="1"/>
        <pt x="194" y="-10" on="0"/>
        <pt x="29" y="146" on="0"/>
        <pt x="29" y="307" on="1"/>
        <pt x="29" y="691" on="1"/>
        <pt x="357" y="691" on="1"/>
        <pt x="357" y="270" on="1"/>
        <pt x="357" y="257" on="0"/>
        <pt x="373" y="242" on="0"/>
        <pt x="398" y="242" on="0"/>
        <pt x="415" y="258" on="0"/>
        <pt x="415" y="270" on="1"/>
      </contour>
      <contour>
        <pt x="288" y="720" on="1"/>
        <pt x="230" y="720" on="1"/>
        <pt x="186" y="720" on="0"/>
        <pt x="150" y="760" on="0"/>
        <pt x="150" y="840" on="0"/>
        <pt x="186" y="881" on="0"/>
        <pt x="230" y="881" on="1"/>
        <pt x="288" y="881" on="1"/>
        <pt x="366" y="881" on="0"/>
        <pt x="366" y="720" on="0"/>
      </contour>
      <contour>
        <pt x="545" y="720" on="1"/>
        <pt x="488" y="720" on="1"/>
        <pt x="444" y="720" on="0"/>
        <pt x="408" y="760" on="0"/>
        <pt x="408" y="840" on="0"/>
        <pt x="444" y="881" on="0"/>
        <pt x="488" y="881" on="1"/>
        <pt x="545" y="881" on="1"/>
        <pt x="624" y="881" on="0"/>
        <pt x="624" y="720" on="0"/>
      </contour>
    </TTGlyph>
    <TTGlyph name="Ugrave" xMin="29" yMin="-10" xMax="744" yMax="877">
      <contour>
        <pt x="415" y="691" on="1"/>
        <pt x="744" y="691" on="1"/>
        <pt x="744" y="307" on="1"/>
        <pt x="744" y="145" on="0"/>
        <pt x="579" y="-10" on="0"/>
        <pt x="399" y="-10" on="1"/>
        <pt x="373" y="-10" on="1"/>
        <pt x="194" y="-10" on="0"/>
        <pt x="29" y="146" on="0"/>
        <pt x="29" y="307" on="1"/>
        <pt x="29" y="691" on="1"/>
        <pt x="357" y="691" on="1"/>
        <pt x="357" y="270" on="1"/>
        <pt x="357" y="257" on="0"/>
        <pt x="373" y="242" on="0"/>
        <pt x="398" y="242" on="0"/>
        <pt x="415" y="258" on="0"/>
        <pt x="415" y="270" on="1"/>
      </contour>
      <contour>
        <pt x="543" y="719" on="1"/>
        <pt x="230" y="719" on="1"/>
        <pt x="230" y="877" on="1"/>
        <pt x="543" y="849" on="1"/>
      </contour>
    </TTGlyph>
    <TTGlyph name="V" xMin="14" yMin="0" xMax="735" yMax="691">
      <contour>
        <pt x="379" y="286" on="1"/>
        <pt x="400" y="286" on="1"/>
        <pt x="423" y="691" on="1"/>
        <pt x="735" y="691" on="1"/>
        <pt x="611" y="0" on="1"/>
        <pt x="142" y="0" on="1"/>
        <pt x="14" y="691" on="1"/>
        <pt x="353" y="691" on="1"/>
      </contour>
    </TTGlyph>
    <TTGlyph name="W" xMin="14" yMin="0" xMax="967" yMax="691">
      <contour>
        <pt x="871" y="0" on="1"/>
        <pt x="515" y="0" on="1"/>
        <pt x="499" y="190" on="1"/>
        <pt x="478" y="190" on="1"/>
        <pt x="463" y="0" on="1"/>
        <pt x="112" y="0" on="1"/>
        <pt x="14" y="691" on="1"/>
        <pt x="319" y="691" on="1"/>
        <pt x="345" y="363" on="1"/>
        <pt x="366" y="363" on="1"/>
        <pt x="390" y="674" on="1"/>
        <pt x="592" y="674" on="1"/>
        <pt x="619" y="363" on="1"/>
        <pt x="641" y="363" on="1"/>
        <pt x="666" y="691" on="1"/>
        <pt x="967" y="691" on="1"/>
      </contour>
    </TTGlyph>
    <TTGlyph name="X" xMin="14" yMin="0" xMax="735" yMax="691">
      <contour>
        <pt x="383" y="233" on="1"/>
        <pt x="362" y="233" on="1"/>
        <pt x="339" y="0" on="1"/>
        <pt x="14" y="0" on="1"/>
        <pt x="77" y="356" on="1"/>
        <pt x="14" y="691" on="1"/>
        <pt x="337" y="691" on="1"/>
        <pt x="362" y="400" on="1"/>
        <pt x="386" y="400" on="1"/>
        <pt x="408" y="691" on="1"/>
        <pt x="735" y="691" on="1"/>
        <pt x="668" y="350" on="1"/>
        <pt x="735" y="0" on="1"/>
        <pt x="409" y="0" on="1"/>
      </contour>
    </TTGlyph>
    <TTGlyph name="Y" xMin="14" yMin="0" xMax="781" yMax="691">
      <contour>
        <pt x="585" y="0" on="1"/>
        <pt x="210" y="0" on="1"/>
        <pt x="210" y="163" on="1"/>
        <pt x="182" y="175" on="0"/>
        <pt x="160" y="185" on="0"/>
        <pt x="111" y="217" on="0"/>
        <pt x="99" y="234" on="1"/>
        <pt x="66" y="279" on="0"/>
        <pt x="57" y="345" on="1"/>
        <pt x="14" y="691" on="1"/>
        <pt x="368" y="691" on="1"/>
        <pt x="393" y="349" on="1"/>
        <pt x="415" y="349" on="1"/>
        <pt x="436" y="691" on="1"/>
        <pt x="781" y="691" on="1"/>
        <pt x="738" y="345" on="1"/>
        <pt x="729" y="279" on="0"/>
        <pt x="696" y="234" on="1"/>
        <pt x="684" y="217" on="0"/>
        <pt x="635" y="185" on="0"/>
        <pt x="613" y="175" on="0"/>
        <pt x="585" y="163" on="1"/>
      </contour>
    </TTGlyph>
    <TTGlyph name="Yacute" xMin="14" yMin="0" xMax="781" yMax="877">
      <contour>
        <pt x="585" y="0" on="1"/>
        <pt x="210" y="0" on="1"/>
        <pt x="210" y="163" on="1"/>
        <pt x="182" y="175" on="0"/>
        <pt x="160" y="185" on="0"/>
        <pt x="111" y="217" on="0"/>
        <pt x="99" y="234" on="1"/>
        <pt x="66" y="279" on="0"/>
        <pt x="57" y="345" on="1"/>
        <pt x="14" y="691" on="1"/>
        <pt x="368" y="691" on="1"/>
        <pt x="393" y="349" on="1"/>
        <pt x="415" y="349" on="1"/>
        <pt x="436" y="691" on="1"/>
        <pt x="781" y="691" on="1"/>
        <pt x="738" y="345" on="1"/>
        <pt x="729" y="279" on="0"/>
        <pt x="696" y="234" on="1"/>
        <pt x="684" y="217" on="0"/>
        <pt x="635" y="185" on="0"/>
        <pt x="613" y="175" on="0"/>
        <pt x="585" y="163" on="1"/>
      </contour>
      <contour>
        <pt x="560" y="719" on="1"/>
        <pt x="247" y="719" on="1"/>
        <pt x="247" y="849" on="1"/>
        <pt x="560" y="877" on="1"/>
      </contour>
    </TTGlyph>
    <TTGlyph name="Ydieresis" xMin="14" yMin="0" xMax="781" yMax="875">
      <contour>
        <pt x="585" y="0" on="1"/>
        <pt x="210" y="0" on="1"/>
        <pt x="210" y="163" on="1"/>
        <pt x="182" y="175" on="0"/>
        <pt x="160" y="185" on="0"/>
        <pt x="111" y="217" on="0"/>
        <pt x="99" y="234" on="1"/>
        <pt x="66" y="279" on="0"/>
        <pt x="57" y="345" on="1"/>
        <pt x="14" y="691" on="1"/>
        <pt x="368" y="691" on="1"/>
        <pt x="393" y="349" on="1"/>
        <pt x="415" y="349" on="1"/>
        <pt x="436" y="691" on="1"/>
        <pt x="781" y="691" on="1"/>
        <pt x="738" y="345" on="1"/>
        <pt x="729" y="279" on="0"/>
        <pt x="696" y="234" on="1"/>
        <pt x="684" y="217" on="0"/>
        <pt x="635" y="185" on="0"/>
        <pt x="613" y="175" on="0"/>
        <pt x="585" y="163" on="1"/>
      </contour>
      <contour>
        <pt x="305" y="714" on="1"/>
        <pt x="247" y="714" on="1"/>
        <pt x="203" y="714" on="0"/>
        <pt x="167" y="754" on="0"/>
        <pt x="167" y="834" on="0"/>
        <pt x="203" y="875" on="0"/>
        <pt x="247" y="875" on="1"/>
        <pt x="305" y="875" on="1"/>
        <pt x="383" y="875" on="0"/>
        <pt x="383" y="714" on="0"/>
      </contour>
      <contour>
        <pt x="562" y="714" on="1"/>
        <pt x="505" y="714" on="1"/>
        <pt x="461" y="714" on="0"/>
        <pt x="425" y="754" on="0"/>
        <pt x="425" y="834" on="0"/>
        <pt x="461" y="875" on="0"/>
        <pt x="505" y="875" on="1"/>
        <pt x="562" y="875" on="1"/>
        <pt x="641" y="875" on="0"/>
        <pt x="641" y="714" on="0"/>
      </contour>
    </TTGlyph>
    <TTGlyph name="Z" xMin="29" yMin="0" xMax="629" yMax="691">
      <contour>
        <pt x="629" y="0" on="1"/>
        <pt x="34" y="0" on="1"/>
        <pt x="34" y="257" on="1"/>
        <pt x="187" y="400" on="1"/>
        <pt x="29" y="400" on="1"/>
        <pt x="29" y="691" on="1"/>
        <pt x="626" y="691" on="1"/>
        <pt x="626" y="399" on="1"/>
        <pt x="479" y="257" on="1"/>
        <pt x="629" y="257" on="1"/>
      </contour>
    </TTGlyph>
    <TTGlyph name="Zcaron" xMin="29" yMin="0" xMax="629" yMax="888">
      <contour>
        <pt x="629" y="0" on="1"/>
        <pt x="34" y="0" on="1"/>
        <pt x="34" y="257" on="1"/>
        <pt x="187" y="400" on="1"/>
        <pt x="29" y="400" on="1"/>
        <pt x="29" y="691" on="1"/>
        <pt x="626" y="691" on="1"/>
        <pt x="626" y="399" on="1"/>
        <pt x="479" y="257" on="1"/>
        <pt x="629" y="257" on="1"/>
      </contour>
      <contour>
        <pt x="333" y="818" on="1"/>
        <pt x="469" y="888" on="1"/>
        <pt x="522" y="756" on="1"/>
        <pt x="333" y="701" on="1"/>
        <pt x="143" y="756" on="1"/>
        <pt x="194" y="888" on="1"/>
      </contour>
    </TTGlyph>
    <TTGlyph name="a" xMin="29" yMin="-10" xMax="636" yMax="601">
      <contour>
        <pt x="616" y="378" on="1"/>
        <pt x="611" y="255" on="1"/>
        <pt x="636" y="256" on="1"/>
        <pt x="636" y="29" on="1"/>
        <pt x="618" y="14" on="0"/>
        <pt x="530" y="-10" on="0"/>
        <pt x="452" y="-10" on="0"/>
        <pt x="406" y="4" on="0"/>
        <pt x="384" y="21" on="0"/>
        <pt x="378" y="32" on="1"/>
        <pt x="369" y="48" on="0"/>
        <pt x="369" y="59" on="1"/>
        <pt x="314" y="-10" on="0"/>
        <pt x="194" y="-10" on="1"/>
        <pt x="29" y="-10" on="0"/>
        <pt x="29" y="130" on="1"/>
        <pt x="29" y="214" on="0"/>
        <pt x="157" y="285" on="0"/>
        <pt x="317" y="292" on="1"/>
        <pt x="317" y="327" on="0"/>
        <pt x="240" y="327" on="1"/>
        <pt x="188" y="327" on="0"/>
        <pt x="93" y="301" on="0"/>
        <pt x="72" y="288" on="1"/>
        <pt x="50" y="275" on="1"/>
        <pt x="50" y="538" on="1"/>
        <pt x="59" y="545" on="0"/>
        <pt x="95" y="566" on="0"/>
        <pt x="229" y="601" on="0"/>
        <pt x="309" y="601" on="1"/>
        <pt x="469" y="601" on="0"/>
        <pt x="616" y="493" on="0"/>
      </contour>
      <contour>
        <pt x="333" y="219" on="1"/>
        <pt x="333" y="259" on="1"/>
        <pt x="276" y="243" on="1"/>
        <pt x="276" y="219" on="1"/>
        <pt x="276" y="206" on="0"/>
        <pt x="293" y="190" on="0"/>
        <pt x="318" y="190" on="0"/>
        <pt x="333" y="206" on="0"/>
      </contour>
    </TTGlyph>
    <TTGlyph name="aacute" xMin="29" yMin="-10" xMax="636" yMax="778">
      <contour>
        <pt x="616" y="378" on="1"/>
        <pt x="611" y="255" on="1"/>
        <pt x="636" y="256" on="1"/>
        <pt x="636" y="29" on="1"/>
        <pt x="618" y="14" on="0"/>
        <pt x="530" y="-10" on="0"/>
        <pt x="452" y="-10" on="0"/>
        <pt x="406" y="4" on="0"/>
        <pt x="384" y="21" on="0"/>
        <pt x="378" y="32" on="1"/>
        <pt x="369" y="48" on="0"/>
        <pt x="369" y="59" on="1"/>
        <pt x="314" y="-10" on="0"/>
        <pt x="194" y="-10" on="1"/>
        <pt x="29" y="-10" on="0"/>
        <pt x="29" y="130" on="1"/>
        <pt x="29" y="214" on="0"/>
        <pt x="157" y="285" on="0"/>
        <pt x="317" y="292" on="1"/>
        <pt x="317" y="327" on="0"/>
        <pt x="240" y="327" on="1"/>
        <pt x="188" y="327" on="0"/>
        <pt x="93" y="301" on="0"/>
        <pt x="72" y="288" on="1"/>
        <pt x="50" y="275" on="1"/>
        <pt x="50" y="538" on="1"/>
        <pt x="59" y="545" on="0"/>
        <pt x="95" y="566" on="0"/>
        <pt x="229" y="601" on="0"/>
        <pt x="309" y="601" on="1"/>
        <pt x="469" y="601" on="0"/>
        <pt x="616" y="493" on="0"/>
      </contour>
      <contour>
        <pt x="333" y="219" on="1"/>
        <pt x="333" y="259" on="1"/>
        <pt x="276" y="243" on="1"/>
        <pt x="276" y="219" on="1"/>
        <pt x="276" y="206" on="0"/>
        <pt x="293" y="190" on="0"/>
        <pt x="318" y="190" on="0"/>
        <pt x="333" y="206" on="0"/>
      </contour>
      <contour>
        <pt x="499" y="620" on="1"/>
        <pt x="186" y="620" on="1"/>
        <pt x="186" y="750" on="1"/>
        <pt x="499" y="778" on="1"/>
      </contour>
    </TTGlyph>
    <TTGlyph name="acircumflex" xMin="29" yMin="-10" xMax="636" yMax="796">
      <contour>
        <pt x="616" y="378" on="1"/>
        <pt x="611" y="255" on="1"/>
        <pt x="636" y="256" on="1"/>
        <pt x="636" y="29" on="1"/>
        <pt x="618" y="14" on="0"/>
        <pt x="530" y="-10" on="0"/>
        <pt x="452" y="-10" on="0"/>
        <pt x="406" y="4" on="0"/>
        <pt x="384" y="21" on="0"/>
        <pt x="378" y="32" on="1"/>
        <pt x="369" y="48" on="0"/>
        <pt x="369" y="59" on="1"/>
        <pt x="314" y="-10" on="0"/>
        <pt x="194" y="-10" on="1"/>
        <pt x="29" y="-10" on="0"/>
        <pt x="29" y="130" on="1"/>
        <pt x="29" y="214" on="0"/>
        <pt x="157" y="285" on="0"/>
        <pt x="317" y="292" on="1"/>
        <pt x="317" y="327" on="0"/>
        <pt x="240" y="327" on="1"/>
        <pt x="188" y="327" on="0"/>
        <pt x="93" y="301" on="0"/>
        <pt x="72" y="288" on="1"/>
        <pt x="50" y="275" on="1"/>
        <pt x="50" y="538" on="1"/>
        <pt x="59" y="545" on="0"/>
        <pt x="95" y="566" on="0"/>
        <pt x="229" y="601" on="0"/>
        <pt x="309" y="601" on="1"/>
        <pt x="469" y="601" on="0"/>
        <pt x="616" y="493" on="0"/>
      </contour>
      <contour>
        <pt x="333" y="219" on="1"/>
        <pt x="333" y="259" on="1"/>
        <pt x="276" y="243" on="1"/>
        <pt x="276" y="219" on="1"/>
        <pt x="276" y="206" on="0"/>
        <pt x="293" y="190" on="0"/>
        <pt x="318" y="190" on="0"/>
        <pt x="333" y="206" on="0"/>
      </contour>
      <contour>
        <pt x="471" y="609" on="1"/>
        <pt x="335" y="679" on="1"/>
        <pt x="196" y="609" on="1"/>
        <pt x="145" y="740" on="1"/>
        <pt x="335" y="796" on="1"/>
        <pt x="524" y="740" on="1"/>
      </contour>
    </TTGlyph>
    <TTGlyph name="acute" xMin="47" yMin="719" xMax="360" yMax="877">
      <contour>
        <pt x="360" y="719" on="1"/>
        <pt x="47" y="719" on="1"/>
        <pt x="47" y="849" on="1"/>
        <pt x="360" y="877" on="1"/>
      </contour>
    </TTGlyph>
    <TTGlyph name="adieresis" xMin="29" yMin="-10" xMax="636" yMax="776">
      <contour>
        <pt x="616" y="378" on="1"/>
        <pt x="611" y="255" on="1"/>
        <pt x="636" y="256" on="1"/>
        <pt x="636" y="29" on="1"/>
        <pt x="618" y="14" on="0"/>
        <pt x="530" y="-10" on="0"/>
        <pt x="452" y="-10" on="0"/>
        <pt x="406" y="4" on="0"/>
        <pt x="384" y="21" on="0"/>
        <pt x="378" y="32" on="1"/>
        <pt x="369" y="48" on="0"/>
        <pt x="369" y="59" on="1"/>
        <pt x="314" y="-10" on="0"/>
        <pt x="194" y="-10" on="1"/>
        <pt x="29" y="-10" on="0"/>
        <pt x="29" y="130" on="1"/>
        <pt x="29" y="214" on="0"/>
        <pt x="157" y="285" on="0"/>
        <pt x="317" y="292" on="1"/>
        <pt x="317" y="327" on="0"/>
        <pt x="240" y="327" on="1"/>
        <pt x="188" y="327" on="0"/>
        <pt x="93" y="301" on="0"/>
        <pt x="72" y="288" on="1"/>
        <pt x="50" y="275" on="1"/>
        <pt x="50" y="538" on="1"/>
        <pt x="59" y="545" on="0"/>
        <pt x="95" y="566" on="0"/>
        <pt x="229" y="601" on="0"/>
        <pt x="309" y="601" on="1"/>
        <pt x="469" y="601" on="0"/>
        <pt x="616" y="493" on="0"/>
      </contour>
      <contour>
        <pt x="333" y="219" on="1"/>
        <pt x="333" y="259" on="1"/>
        <pt x="276" y="243" on="1"/>
        <pt x="276" y="219" on="1"/>
        <pt x="276" y="206" on="0"/>
        <pt x="293" y="190" on="0"/>
        <pt x="318" y="190" on="0"/>
        <pt x="333" y="206" on="0"/>
      </contour>
      <contour>
        <pt x="249" y="615" on="1"/>
        <pt x="191" y="615" on="1"/>
        <pt x="147" y="615" on="0"/>
        <pt x="111" y="655" on="0"/>
        <pt x="111" y="735" on="0"/>
        <pt x="147" y="776" on="0"/>
        <pt x="191" y="776" on="1"/>
        <pt x="249" y="776" on="1"/>
        <pt x="327" y="776" on="0"/>
        <pt x="327" y="615" on="0"/>
      </contour>
      <contour>
        <pt x="506" y="615" on="1"/>
        <pt x="449" y="615" on="1"/>
        <pt x="405" y="615" on="0"/>
        <pt x="369" y="655" on="0"/>
        <pt x="369" y="735" on="0"/>
        <pt x="405" y="776" on="0"/>
        <pt x="449" y="776" on="1"/>
        <pt x="506" y="776" on="1"/>
        <pt x="585" y="776" on="0"/>
        <pt x="585" y="615" on="0"/>
      </contour>
    </TTGlyph>
    <TTGlyph name="ae" xMin="29" yMin="-10" xMax="898" yMax="601">
      <contour>
        <pt x="618" y="601" on="1"/>
        <pt x="774" y="601" on="0"/>
        <pt x="898" y="473" on="0"/>
        <pt x="898" y="327" on="1"/>
        <pt x="894" y="257" on="1"/>
        <pt x="618" y="257" on="1"/>
        <pt x="618" y="216" on="1"/>
        <pt x="642" y="210" on="0"/>
        <pt x="690" y="210" on="1"/>
        <pt x="788" y="210" on="0"/>
        <pt x="856" y="224" on="1"/>
        <pt x="877" y="229" on="1"/>
        <pt x="877" y="34" on="1"/>
        <pt x="871" y="29" on="0"/>
        <pt x="845" y="14" on="0"/>
        <pt x="727" y="-10" on="0"/>
        <pt x="646" y="-10" on="1"/>
        <pt x="506" y="-10" on="0"/>
        <pt x="423" y="53" on="1"/>
        <pt x="347" y="-10" on="0"/>
        <pt x="206" y="-10" on="1"/>
        <pt x="121" y="-10" on="0"/>
        <pt x="29" y="60" on="0"/>
        <pt x="29" y="130" on="1"/>
        <pt x="29" y="214" on="0"/>
        <pt x="157" y="285" on="0"/>
        <pt x="317" y="292" on="1"/>
        <pt x="317" y="327" on="0"/>
        <pt x="240" y="327" on="1"/>
        <pt x="188" y="327" on="0"/>
        <pt x="93" y="301" on="0"/>
        <pt x="72" y="288" on="1"/>
        <pt x="50" y="275" on="1"/>
        <pt x="50" y="538" on="1"/>
        <pt x="59" y="545" on="0"/>
        <pt x="95" y="566" on="0"/>
        <pt x="229" y="601" on="0"/>
        <pt x="401" y="601" on="0"/>
        <pt x="460" y="573" on="1"/>
        <pt x="525" y="601" on="0"/>
      </contour>
      <contour>
        <pt x="332" y="219" on="1"/>
        <pt x="332" y="259" on="1"/>
        <pt x="275" y="243" on="1"/>
        <pt x="275" y="219" on="1"/>
        <pt x="275" y="206" on="0"/>
        <pt x="291" y="190" on="0"/>
        <pt x="316" y="190" on="0"/>
        <pt x="332" y="206" on="0"/>
      </contour>
      <contour>
        <pt x="616" y="329" on="1"/>
        <pt x="616" y="302" on="1"/>
        <pt x="674" y="302" on="1"/>
        <pt x="674" y="329" on="1"/>
        <pt x="674" y="341" on="0"/>
        <pt x="657" y="357" on="0"/>
        <pt x="632" y="357" on="0"/>
        <pt x="616" y="342" on="0"/>
      </contour>
    </TTGlyph>
    <TTGlyph name="agrave" xMin="29" yMin="-10" xMax="636" yMax="778">
      <contour>
        <pt x="616" y="378" on="1"/>
        <pt x="611" y="255" on="1"/>
        <pt x="636" y="256" on="1"/>
        <pt x="636" y="29" on="1"/>
        <pt x="618" y="14" on="0"/>
        <pt x="530" y="-10" on="0"/>
        <pt x="452" y="-10" on="0"/>
        <pt x="406" y="4" on="0"/>
        <pt x="384" y="21" on="0"/>
        <pt x="378" y="32" on="1"/>
        <pt x="369" y="48" on="0"/>
        <pt x="369" y="59" on="1"/>
        <pt x="314" y="-10" on="0"/>
        <pt x="194" y="-10" on="1"/>
        <pt x="29" y="-10" on="0"/>
        <pt x="29" y="130" on="1"/>
        <pt x="29" y="214" on="0"/>
        <pt x="157" y="285" on="0"/>
        <pt x="317" y="292" on="1"/>
        <pt x="317" y="327" on="0"/>
        <pt x="240" y="327" on="1"/>
        <pt x="188" y="327" on="0"/>
        <pt x="93" y="301" on="0"/>
        <pt x="72" y="288" on="1"/>
        <pt x="50" y="275" on="1"/>
        <pt x="50" y="538" on="1"/>
        <pt x="59" y="545" on="0"/>
        <pt x="95" y="566" on="0"/>
        <pt x="229" y="601" on="0"/>
        <pt x="309" y="601" on="1"/>
        <pt x="469" y="601" on="0"/>
        <pt x="616" y="493" on="0"/>
      </contour>
      <contour>
        <pt x="333" y="219" on="1"/>
        <pt x="333" y="259" on="1"/>
        <pt x="276" y="243" on="1"/>
        <pt x="276" y="219" on="1"/>
        <pt x="276" y="206" on="0"/>
        <pt x="293" y="190" on="0"/>
        <pt x="318" y="190" on="0"/>
        <pt x="333" y="206" on="0"/>
      </contour>
      <contour>
        <pt x="492" y="620" on="1"/>
        <pt x="179" y="620" on="1"/>
        <pt x="179" y="778" on="1"/>
        <pt x="492" y="750" on="1"/>
      </contour>
    </TTGlyph>
    <TTGlyph name="ampersand" xMin="29" yMin="-9" xMax="941" yMax="699">
      <contour>
        <pt x="395" y="-9" on="1"/>
        <pt x="342" y="-9" on="1"/>
        <pt x="29" y="-9" on="0"/>
        <pt x="29" y="203" on="1"/>
        <pt x="29" y="239" on="0"/>
        <pt x="49" y="296" on="0"/>
        <pt x="72" y="325" on="0"/>
        <pt x="88" y="335" on="1"/>
        <pt x="109" y="348" on="0"/>
        <pt x="124" y="350" on="1"/>
        <pt x="61" y="400" on="0"/>
        <pt x="61" y="485" on="1"/>
        <pt x="61" y="596" on="0"/>
        <pt x="194" y="699" on="0"/>
        <pt x="521" y="699" on="0"/>
        <pt x="654" y="580" on="0"/>
        <pt x="654" y="442" on="1"/>
        <pt x="669" y="442" on="1"/>
        <pt x="669" y="578" on="1"/>
        <pt x="941" y="578" on="1"/>
        <pt x="941" y="450" on="1"/>
        <pt x="941" y="363" on="0"/>
        <pt x="895" y="262" on="0"/>
        <pt x="818" y="220" on="1"/>
        <pt x="919" y="0" on="1"/>
        <pt x="619" y="0" on="1"/>
        <pt x="591" y="76" on="1"/>
        <pt x="587" y="64" on="0"/>
        <pt x="556" y="32" on="0"/>
        <pt x="536" y="20" on="1"/>
        <pt x="486" y="-9" on="0"/>
      </contour>
      <contour>
        <pt x="339" y="410" on="1"/>
        <pt x="339" y="375" on="1"/>
        <pt x="339" y="362" on="0"/>
        <pt x="356" y="346" on="0"/>
        <pt x="368" y="346" on="1"/>
        <pt x="396" y="346" on="0"/>
        <pt x="396" y="375" on="1"/>
        <pt x="396" y="410" on="1"/>
        <pt x="396" y="439" on="0"/>
        <pt x="368" y="439" on="1"/>
        <pt x="356" y="439" on="0"/>
        <pt x="339" y="423" on="0"/>
      </contour>
      <contour>
        <pt x="339" y="277" on="1"/>
        <pt x="339" y="257" on="1"/>
        <pt x="339" y="245" on="0"/>
        <pt x="356" y="229" on="0"/>
        <pt x="368" y="229" on="1"/>
        <pt x="396" y="229" on="0"/>
        <pt x="396" y="257" on="1"/>
        <pt x="396" y="277" on="1"/>
        <pt x="396" y="306" on="0"/>
        <pt x="368" y="306" on="1"/>
        <pt x="356" y="306" on="0"/>
        <pt x="339" y="290" on="0"/>
      </contour>
    </TTGlyph>
    <TTGlyph name="apple" xMin="286" yMin="104" xMax="2041" yMax="1087">
      <contour>
        <pt x="1514" y="563" on="1"/>
        <pt x="1517" y="698" on="1"/>
        <pt x="1517" y="734" on="0"/>
        <pt x="1496" y="734" on="1"/>
        <pt x="1471" y="734" on="0"/>
        <pt x="1471" y="698" on="1"/>
        <pt x="1471" y="683" on="0"/>
        <pt x="1479" y="599" on="0"/>
        <pt x="1479" y="563" on="1"/>
        <pt x="1317" y="563" on="1"/>
        <pt x="1317" y="781" on="0"/>
        <pt x="1329" y="868" on="1"/>
        <pt x="1333" y="897" on="1"/>
        <pt x="1441" y="897" on="1"/>
        <pt x="1450" y="837" on="0"/>
        <pt x="1450" y="791" on="1"/>
        <pt x="1454" y="805" on="1"/>
        <pt x="1461" y="834" on="0"/>
        <pt x="1478" y="857" on="1"/>
        <pt x="1510" y="902" on="0"/>
        <pt x="1623" y="902" on="0"/>
        <pt x="1670" y="836" on="0"/>
        <pt x="1672" y="758" on="1"/>
        <pt x="1675" y="563" on="1"/>
      </contour>
      <contour>
        <pt x="455" y="563" on="1"/>
        <pt x="289" y="563" on="1"/>
        <pt x="289" y="782" on="0"/>
        <pt x="301" y="947" on="1"/>
        <pt x="305" y="1002" on="1"/>
        <pt x="440" y="1002" on="1"/>
        <pt x="455" y="807" on="0"/>
      </contour>
      <contour>
        <pt x="1868" y="902" on="1"/>
        <pt x="1967" y="902" on="0"/>
        <pt x="2041" y="808" on="0"/>
        <pt x="2041" y="647" on="0"/>
        <pt x="1954" y="555" on="0"/>
        <pt x="1782" y="555" on="0"/>
        <pt x="1696" y="647" on="0"/>
        <pt x="1696" y="725" on="1"/>
        <pt x="1696" y="902" on="0"/>
      </contour>
      <contour>
        <pt x="1835" y="666" on="0"/>
        <pt x="1902" y="666" on="0"/>
        <pt x="1902" y="748" on="0"/>
        <pt x="1835" y="748" on="0"/>
      </contour>
      <contour>
        <pt x="671" y="902" on="1"/>
        <pt x="837" y="902" on="0"/>
        <pt x="837" y="742" on="1"/>
        <pt x="837" y="563" on="1"/>
        <pt x="728" y="563" on="1"/>
        <pt x="715" y="646" on="1"/>
        <pt x="706" y="600" on="0"/>
        <pt x="657" y="555" on="0"/>
        <pt x="549" y="555" on="0"/>
        <pt x="482" y="635" on="0"/>
        <pt x="482" y="808" on="0"/>
        <pt x="571" y="902" on="0"/>
      </contour>
      <contour>
        <pt x="664" y="666" on="1"/>
        <pt x="698" y="666" on="0"/>
        <pt x="698" y="748" on="0"/>
        <pt x="664" y="748" on="1"/>
        <pt x="633" y="748" on="0"/>
        <pt x="633" y="709" on="1"/>
        <pt x="633" y="689" on="0"/>
        <pt x="650" y="666" on="0"/>
      </contour>
      <contour>
        <pt x="1175" y="519" on="1"/>
        <pt x="1226" y="519" on="0"/>
        <pt x="1287" y="435" on="0"/>
        <pt x="1287" y="264" on="0"/>
        <pt x="1192" y="164" on="0"/>
        <pt x="1105" y="164" on="1"/>
        <pt x="1108" y="143" on="0"/>
        <pt x="1108" y="104" on="1"/>
        <pt x="927" y="104" on="1"/>
        <pt x="927" y="334" on="0"/>
        <pt x="938" y="462" on="1"/>
        <pt x="942" y="508" on="1"/>
        <pt x="1054" y="508" on="1"/>
        <pt x="1064" y="435" on="0"/>
        <pt x="1064" y="400" on="1"/>
        <pt x="1084" y="519" on="0"/>
      </contour>
      <contour>
        <pt x="1078" y="319" on="1"/>
        <pt x="1078" y="300" on="0"/>
        <pt x="1084" y="280" on="1"/>
        <pt x="1103" y="280" on="0"/>
        <pt x="1138" y="310" on="0"/>
        <pt x="1138" y="332" on="1"/>
        <pt x="1138" y="362" on="0"/>
        <pt x="1111" y="362" on="1"/>
        <pt x="1078" y="362" on="0"/>
      </contour>
      <contour>
        <pt x="1473" y="289" on="0"/>
        <pt x="1505" y="270" on="0"/>
        <pt x="1578" y="270" on="0"/>
        <pt x="1604" y="292" on="1"/>
        <pt x="1604" y="187" on="1"/>
        <pt x="1574" y="164" on="0"/>
        <pt x="1501" y="164" on="1"/>
        <pt x="1406" y="164" on="0"/>
        <pt x="1311" y="257" on="0"/>
        <pt x="1311" y="337" on="1"/>
        <pt x="1311" y="519" on="0"/>
        <pt x="1487" y="519" on="1"/>
        <pt x="1561" y="519" on="0"/>
        <pt x="1647" y="432" on="0"/>
        <pt x="1647" y="356" on="1"/>
        <pt x="1647" y="326" on="0"/>
        <pt x="1640" y="305" on="1"/>
        <pt x="1469" y="305" on="1"/>
        <pt x="1469" y="301" on="0"/>
      </contour>
      <contour>
        <pt x="1460" y="340" on="1"/>
        <pt x="1516" y="340" on="1"/>
        <pt x="1517" y="345" on="0"/>
        <pt x="1517" y="352" on="1"/>
        <pt x="1517" y="379" on="0"/>
        <pt x="1491" y="379" on="1"/>
        <pt x="1460" y="379" on="0"/>
      </contour>
      <contour>
        <pt x="885" y="646" on="1"/>
        <pt x="888" y="769" on="1"/>
        <pt x="855" y="769" on="1"/>
        <pt x="855" y="888" on="1"/>
        <pt x="1021" y="940" on="1"/>
        <pt x="1027" y="897" on="1"/>
        <pt x="1273" y="897" on="1"/>
        <pt x="1284" y="807" on="0"/>
        <pt x="1284" y="563" on="1"/>
        <pt x="1121" y="563" on="1"/>
        <pt x="1121" y="721" on="0"/>
        <pt x="1124" y="769" on="1"/>
        <pt x="1042" y="769" on="1"/>
        <pt x="1045" y="679" on="1"/>
        <pt x="1048" y="676" on="0"/>
        <pt x="1073" y="676" on="0"/>
        <pt x="1085" y="682" on="1"/>
        <pt x="1085" y="579" on="1"/>
        <pt x="1082" y="570" on="0"/>
        <pt x="1032" y="555" on="0"/>
        <pt x="997" y="555" on="1"/>
        <pt x="885" y="555" on="0"/>
      </contour>
      <contour>
        <pt x="1167" y="915" on="0"/>
        <pt x="1118" y="966" on="0"/>
        <pt x="1118" y="1037" on="0"/>
        <pt x="1167" y="1087" on="0"/>
        <pt x="1239" y="1087" on="0"/>
        <pt x="1287" y="1037" on="0"/>
        <pt x="1287" y="966" on="0"/>
        <pt x="1239" y="915" on="0"/>
      </contour>
      <contour>
        <pt x="322" y="256" on="1"/>
        <pt x="325" y="373" on="1"/>
        <pt x="286" y="373" on="1"/>
        <pt x="286" y="492" on="1"/>
        <pt x="459" y="549" on="1"/>
        <pt x="465" y="508" on="1"/>
        <pt x="701" y="508" on="1"/>
        <pt x="698" y="362" on="0"/>
        <pt x="698" y="356" on="1"/>
        <pt x="698" y="319" on="0"/>
        <pt x="721" y="319" on="1"/>
        <pt x="742" y="319" on="0"/>
        <pt x="742" y="356" on="1"/>
        <pt x="739" y="508" on="1"/>
        <pt x="891" y="508" on="1"/>
        <pt x="899" y="425" on="0"/>
        <pt x="899" y="300" on="1"/>
        <pt x="899" y="198" on="0"/>
        <pt x="797" y="104" on="0"/>
        <pt x="685" y="104" on="1"/>
        <pt x="641" y="104" on="0"/>
        <pt x="574" y="119" on="0"/>
        <pt x="563" y="126" on="1"/>
        <pt x="552" y="134" on="1"/>
        <pt x="552" y="253" on="1"/>
        <pt x="588" y="226" on="0"/>
        <pt x="697" y="226" on="0"/>
        <pt x="748" y="252" on="0"/>
        <pt x="753" y="264" on="1"/>
        <pt x="758" y="277" on="1"/>
        <pt x="742" y="256" on="0"/>
        <pt x="676" y="256" on="1"/>
        <pt x="543" y="256" on="0"/>
        <pt x="543" y="362" on="1"/>
        <pt x="543" y="373" on="1"/>
        <pt x="479" y="373" on="1"/>
        <pt x="482" y="286" on="1"/>
        <pt x="508" y="286" on="0"/>
        <pt x="522" y="295" on="1"/>
        <pt x="522" y="189" on="1"/>
        <pt x="496" y="164" on="0"/>
        <pt x="426" y="164" on="1"/>
        <pt x="322" y="164" on="0"/>
      </contour>
      <contour>
        <pt x="1757" y="468" on="1"/>
        <pt x="1757" y="454" on="0"/>
        <pt x="1746" y="450" on="1"/>
        <pt x="1757" y="432" on="1"/>
        <pt x="1745" y="432" on="1"/>
        <pt x="1735" y="448" on="1"/>
        <pt x="1725" y="448" on="1"/>
        <pt x="1725" y="432" on="1"/>
        <pt x="1713" y="432" on="1"/>
        <pt x="1713" y="485" on="1"/>
        <pt x="1736" y="485" on="1"/>
        <pt x="1757" y="485" on="0"/>
      </contour>
      <contour>
        <pt x="1736" y="458" on="1"/>
        <pt x="1746" y="458" on="0"/>
        <pt x="1746" y="475" on="0"/>
        <pt x="1736" y="475" on="1"/>
        <pt x="1725" y="475" on="1"/>
        <pt x="1725" y="458" on="1"/>
      </contour>
      <contour>
        <pt x="1712" y="405" on="0"/>
        <pt x="1680" y="436" on="0"/>
        <pt x="1680" y="479" on="0"/>
        <pt x="1712" y="511" on="0"/>
        <pt x="1755" y="511" on="0"/>
        <pt x="1786" y="479" on="0"/>
        <pt x="1786" y="436" on="0"/>
        <pt x="1755" y="405" on="0"/>
      </contour>
      <contour>
        <pt x="1690" y="475" on="0"/>
        <pt x="1690" y="441" on="0"/>
        <pt x="1716" y="415" on="0"/>
        <pt x="1750" y="415" on="0"/>
        <pt x="1776" y="441" on="0"/>
        <pt x="1776" y="475" on="0"/>
        <pt x="1750" y="500" on="0"/>
        <pt x="1716" y="500" on="0"/>
      </contour>
    </TTGlyph>
    <TTGlyph name="approxequal" xMin="29" yMin="122" xMax="548" yMax="556">
      <contour>
        <pt x="134" y="540" on="1"/>
        <pt x="163" y="548" on="0"/>
        <pt x="240" y="548" on="0"/>
        <pt x="313" y="520" on="0"/>
        <pt x="328" y="506" on="1"/>
        <pt x="342" y="493" on="1"/>
        <pt x="469" y="556" on="1"/>
        <pt x="548" y="425" on="1"/>
        <pt x="542" y="416" on="0"/>
        <pt x="504" y="387" on="0"/>
        <pt x="486" y="378" on="1"/>
        <pt x="436" y="352" on="0"/>
        <pt x="369" y="352" on="1"/>
        <pt x="333" y="352" on="0"/>
        <pt x="265" y="378" on="0"/>
        <pt x="248" y="392" on="1"/>
        <pt x="232" y="405" on="1"/>
        <pt x="109" y="340" on="1"/>
        <pt x="29" y="473" on="1"/>
        <pt x="60" y="520" on="0"/>
      </contour>
      <contour>
        <pt x="104" y="313" on="0"/>
        <pt x="163" y="329" on="0"/>
        <pt x="240" y="329" on="0"/>
        <pt x="313" y="302" on="0"/>
        <pt x="328" y="288" on="1"/>
        <pt x="342" y="275" on="1"/>
        <pt x="469" y="337" on="1"/>
        <pt x="548" y="206" on="1"/>
        <pt x="542" y="197" on="0"/>
        <pt x="504" y="168" on="0"/>
        <pt x="486" y="158" on="1"/>
        <pt x="436" y="133" on="0"/>
        <pt x="369" y="133" on="1"/>
        <pt x="333" y="133" on="0"/>
        <pt x="265" y="160" on="0"/>
        <pt x="248" y="173" on="1"/>
        <pt x="232" y="186" on="1"/>
        <pt x="109" y="122" on="1"/>
        <pt x="29" y="255" on="1"/>
        <pt x="36" y="265" on="0"/>
        <pt x="69" y="294" on="0"/>
      </contour>
    </TTGlyph>
    <TTGlyph name="aring" xMin="29" yMin="-10" xMax="636" yMax="823">
      <contour>
        <pt x="616" y="378" on="1"/>
        <pt x="611" y="255" on="1"/>
        <pt x="636" y="256" on="1"/>
        <pt x="636" y="29" on="1"/>
        <pt x="618" y="14" on="0"/>
        <pt x="530" y="-10" on="0"/>
        <pt x="452" y="-10" on="0"/>
        <pt x="406" y="4" on="0"/>
        <pt x="384" y="21" on="0"/>
        <pt x="378" y="32" on="1"/>
        <pt x="369" y="48" on="0"/>
        <pt x="369" y="59" on="1"/>
        <pt x="314" y="-10" on="0"/>
        <pt x="194" y="-10" on="1"/>
        <pt x="29" y="-10" on="0"/>
        <pt x="29" y="130" on="1"/>
        <pt x="29" y="214" on="0"/>
        <pt x="157" y="285" on="0"/>
        <pt x="317" y="292" on="1"/>
        <pt x="317" y="327" on="0"/>
        <pt x="240" y="327" on="1"/>
        <pt x="188" y="327" on="0"/>
        <pt x="93" y="301" on="0"/>
        <pt x="72" y="288" on="1"/>
        <pt x="50" y="275" on="1"/>
        <pt x="50" y="538" on="1"/>
        <pt x="59" y="545" on="0"/>
        <pt x="95" y="566" on="0"/>
        <pt x="229" y="601" on="0"/>
        <pt x="309" y="601" on="1"/>
        <pt x="469" y="601" on="0"/>
        <pt x="616" y="493" on="0"/>
      </contour>
      <contour>
        <pt x="333" y="219" on="1"/>
        <pt x="333" y="259" on="1"/>
        <pt x="276" y="243" on="1"/>
        <pt x="276" y="219" on="1"/>
        <pt x="276" y="206" on="0"/>
        <pt x="293" y="190" on="0"/>
        <pt x="318" y="190" on="0"/>
        <pt x="333" y="206" on="0"/>
      </contour>
      <contour>
        <pt x="279" y="823" on="1"/>
        <pt x="389" y="823" on="1"/>
        <pt x="508" y="823" on="0"/>
        <pt x="508" y="726" on="1"/>
        <pt x="508" y="627" on="0"/>
        <pt x="389" y="627" on="1"/>
        <pt x="279" y="627" on="1"/>
        <pt x="160" y="627" on="0"/>
        <pt x="160" y="726" on="1"/>
        <pt x="160" y="823" on="0"/>
      </contour>
      <contour>
        <pt x="312" y="697" on="1"/>
        <pt x="360" y="697" on="1"/>
        <pt x="383" y="697" on="0"/>
        <pt x="383" y="743" on="0"/>
        <pt x="360" y="743" on="1"/>
        <pt x="312" y="743" on="1"/>
        <pt x="287" y="743" on="0"/>
        <pt x="287" y="722" on="1"/>
        <pt x="287" y="697" on="0"/>
      </contour>
    </TTGlyph>
    <TTGlyph name="asciicircum" xMin="36" yMin="523" xMax="506" yMax="895">
      <contour>
        <pt x="282" y="523" on="1"/>
        <pt x="266" y="676" on="1"/>
        <pt x="246" y="523" on="1"/>
        <pt x="36" y="523" on="1"/>
        <pt x="150" y="895" on="1"/>
        <pt x="388" y="895" on="1"/>
        <pt x="506" y="523" on="1"/>
      </contour>
    </TTGlyph>
    <TTGlyph name="asciitilde" xMin="0" yMin="229" xMax="519" yMax="445">
      <contour>
        <pt x="75" y="420" on="0"/>
        <pt x="134" y="436" on="0"/>
        <pt x="211" y="436" on="0"/>
        <pt x="284" y="409" on="0"/>
        <pt x="298" y="396" on="1"/>
        <pt x="313" y="382" on="1"/>
        <pt x="440" y="445" on="1"/>
        <pt x="519" y="313" on="1"/>
        <pt x="513" y="304" on="0"/>
        <pt x="476" y="275" on="0"/>
        <pt x="457" y="266" on="1"/>
        <pt x="406" y="240" on="0"/>
        <pt x="340" y="240" on="1"/>
        <pt x="304" y="240" on="0"/>
        <pt x="236" y="266" on="0"/>
        <pt x="220" y="280" on="1"/>
        <pt x="203" y="293" on="1"/>
        <pt x="80" y="229" on="1"/>
        <pt x="0" y="362" on="1"/>
        <pt x="7" y="372" on="0"/>
        <pt x="40" y="401" on="0"/>
      </contour>
    </TTGlyph>
    <TTGlyph name="asterisk" xMin="21" yMin="283" xMax="529" yMax="759">
      <contour>
        <pt x="76" y="679" on="1"/>
        <pt x="179" y="641" on="1"/>
        <pt x="167" y="759" on="1"/>
        <pt x="375" y="759" on="1"/>
        <pt x="363" y="638" on="1"/>
        <pt x="475" y="679" on="1"/>
        <pt x="529" y="490" on="1"/>
        <pt x="432" y="478" on="1"/>
        <pt x="495" y="378" on="1"/>
        <pt x="313" y="283" on="1"/>
        <pt x="277" y="390" on="1"/>
        <pt x="242" y="283" on="1"/>
        <pt x="60" y="378" on="1"/>
        <pt x="122" y="473" on="1"/>
        <pt x="21" y="490" on="1"/>
      </contour>
    </TTGlyph>
    <TTGlyph name="at" xMin="14" yMin="-103" xMax="705" yMax="691">
      <contour>
        <pt x="402" y="513" on="1"/>
        <pt x="322" y="513" on="0"/>
        <pt x="202" y="389" on="0"/>
        <pt x="202" y="262" on="1"/>
        <pt x="202" y="178" on="0"/>
        <pt x="288" y="67" on="0"/>
        <pt x="368" y="67" on="1"/>
        <pt x="410" y="67" on="0"/>
        <pt x="472" y="86" on="0"/>
        <pt x="482" y="96" on="1"/>
        <pt x="492" y="106" on="1"/>
        <pt x="559" y="-61" on="1"/>
        <pt x="537" y="-77" on="0"/>
        <pt x="418" y="-103" on="0"/>
        <pt x="356" y="-103" on="1"/>
        <pt x="191" y="-103" on="0"/>
        <pt x="14" y="63" on="0"/>
        <pt x="14" y="448" on="0"/>
        <pt x="213" y="691" on="0"/>
        <pt x="402" y="691" on="1"/>
        <pt x="556" y="691" on="0"/>
        <pt x="705" y="548" on="0"/>
        <pt x="705" y="433" on="1"/>
        <pt x="705" y="365" on="0"/>
        <pt x="696" y="317" on="1"/>
        <pt x="686" y="269" on="1"/>
        <pt x="686" y="261" on="0"/>
        <pt x="696" y="255" on="0"/>
        <pt x="705" y="257" on="1"/>
        <pt x="705" y="126" on="1"/>
        <pt x="669" y="94" on="0"/>
        <pt x="513" y="94" on="0"/>
        <pt x="490" y="152" on="1"/>
        <pt x="483" y="132" on="0"/>
        <pt x="454" y="114" on="1"/>
        <pt x="423" y="94" on="0"/>
        <pt x="309" y="94" on="0"/>
        <pt x="230" y="183" on="0"/>
        <pt x="230" y="369" on="0"/>
        <pt x="335" y="488" on="0"/>
        <pt x="412" y="488" on="1"/>
        <pt x="440" y="488" on="0"/>
        <pt x="486" y="476" on="0"/>
        <pt x="496" y="470" on="1"/>
        <pt x="505" y="463" on="1"/>
        <pt x="505" y="468" on="0"/>
        <pt x="489" y="489" on="0"/>
        <pt x="479" y="496" on="1"/>
        <pt x="452" y="513" on="0"/>
      </contour>
      <contour>
        <pt x="480" y="335" on="1"/>
        <pt x="478" y="343" on="0"/>
        <pt x="441" y="343" on="0"/>
        <pt x="419" y="306" on="0"/>
        <pt x="419" y="245" on="0"/>
        <pt x="443" y="245" on="1"/>
        <pt x="457" y="245" on="0"/>
        <pt x="465" y="253" on="1"/>
        <pt x="467" y="291" on="0"/>
        <pt x="477" y="325" on="1"/>
      </contour>
    </TTGlyph>
    <TTGlyph name="atilde" xMin="29" yMin="-10" xMax="636" yMax="831">
      <contour>
        <pt x="616" y="378" on="1"/>
        <pt x="611" y="255" on="1"/>
        <pt x="636" y="256" on="1"/>
        <pt x="636" y="29" on="1"/>
        <pt x="618" y="14" on="0"/>
        <pt x="530" y="-10" on="0"/>
        <pt x="452" y="-10" on="0"/>
        <pt x="406" y="4" on="0"/>
        <pt x="384" y="21" on="0"/>
        <pt x="378" y="32" on="1"/>
        <pt x="369" y="48" on="0"/>
        <pt x="369" y="59" on="1"/>
        <pt x="314" y="-10" on="0"/>
        <pt x="194" y="-10" on="1"/>
        <pt x="29" y="-10" on="0"/>
        <pt x="29" y="130" on="1"/>
        <pt x="29" y="214" on="0"/>
        <pt x="157" y="285" on="0"/>
        <pt x="317" y="292" on="1"/>
        <pt x="317" y="327" on="0"/>
        <pt x="240" y="327" on="1"/>
        <pt x="188" y="327" on="0"/>
        <pt x="93" y="301" on="0"/>
        <pt x="72" y="288" on="1"/>
        <pt x="50" y="275" on="1"/>
        <pt x="50" y="538" on="1"/>
        <pt x="59" y="545" on="0"/>
        <pt x="95" y="566" on="0"/>
        <pt x="229" y="601" on="0"/>
        <pt x="309" y="601" on="1"/>
        <pt x="469" y="601" on="0"/>
        <pt x="616" y="493" on="0"/>
      </contour>
      <contour>
        <pt x="333" y="219" on="1"/>
        <pt x="333" y="259" on="1"/>
        <pt x="276" y="243" on="1"/>
        <pt x="276" y="219" on="1"/>
        <pt x="276" y="206" on="0"/>
        <pt x="293" y="190" on="0"/>
        <pt x="318" y="190" on="0"/>
        <pt x="333" y="206" on="0"/>
      </contour>
      <contour>
        <pt x="182" y="815" on="1"/>
        <pt x="211" y="823" on="0"/>
        <pt x="288" y="823" on="0"/>
        <pt x="361" y="796" on="0"/>
        <pt x="376" y="782" on="1"/>
        <pt x="390" y="768" on="1"/>
        <pt x="517" y="831" on="1"/>
        <pt x="596" y="700" on="1"/>
        <pt x="590" y="691" on="0"/>
        <pt x="553" y="662" on="0"/>
        <pt x="534" y="652" on="1"/>
        <pt x="483" y="627" on="0"/>
        <pt x="417" y="627" on="1"/>
        <pt x="381" y="627" on="0"/>
        <pt x="313" y="654" on="0"/>
        <pt x="296" y="667" on="1"/>
        <pt x="280" y="680" on="1"/>
        <pt x="157" y="615" on="1"/>
        <pt x="77" y="748" on="1"/>
        <pt x="108" y="795" on="0"/>
      </contour>
    </TTGlyph>
    <TTGlyph name="b" xMin="29" yMin="-4" xMax="652" yMax="745">
      <contour>
        <pt x="29" y="745" on="1"/>
        <pt x="327" y="745" on="1"/>
        <pt x="327" y="619" on="1"/>
        <pt x="325" y="576" on="1"/>
        <pt x="330" y="588" on="0"/>
        <pt x="386" y="601" on="0"/>
        <pt x="418" y="601" on="1"/>
        <pt x="529" y="601" on="0"/>
        <pt x="652" y="442" on="0"/>
        <pt x="652" y="153" on="0"/>
        <pt x="524" y="-4" on="0"/>
        <pt x="406" y="-4" on="1"/>
        <pt x="326" y="-4" on="0"/>
        <pt x="276" y="35" on="1"/>
        <pt x="265" y="44" on="0"/>
        <pt x="256" y="57" on="1"/>
        <pt x="235" y="0" on="1"/>
        <pt x="29" y="0" on="1"/>
      </contour>
      <contour>
        <pt x="312" y="303" on="1"/>
        <pt x="312" y="219" on="1"/>
        <pt x="312" y="206" on="0"/>
        <pt x="327" y="190" on="0"/>
        <pt x="352" y="190" on="0"/>
        <pt x="369" y="206" on="0"/>
        <pt x="369" y="219" on="1"/>
        <pt x="369" y="303" on="1"/>
        <pt x="369" y="315" on="0"/>
        <pt x="352" y="332" on="0"/>
        <pt x="328" y="332" on="0"/>
        <pt x="312" y="315" on="0"/>
      </contour>
    </TTGlyph>
    <TTGlyph name="backslash" xMin="9" yMin="-70" xMax="395" yMax="772">
      <contour>
        <pt x="152" y="-70" on="1"/>
        <pt x="9" y="735" on="1"/>
        <pt x="252" y="772" on="1"/>
        <pt x="395" y="-33" on="1"/>
      </contour>
    </TTGlyph>
    <TTGlyph name="bar" xMin="29" yMin="-93" xMax="327" yMax="756">
      <contour>
        <pt x="327" y="756" on="1"/>
        <pt x="327" y="-93" on="1"/>
        <pt x="29" y="-93" on="1"/>
        <pt x="29" y="756" on="1"/>
      </contour>
    </TTGlyph>
    <TTGlyph name="braceleft" xMin="36" yMin="-103" xMax="435" yMax="794">
      <contour>
        <pt x="408" y="223" on="1"/>
        <pt x="408" y="106" on="1"/>
        <pt x="408" y="67" on="0"/>
        <pt x="422" y="6" on="0"/>
        <pt x="428" y="-5" on="1"/>
        <pt x="435" y="-16" on="1"/>
        <pt x="432" y="-28" on="0"/>
        <pt x="408" y="-61" on="0"/>
        <pt x="376" y="-84" on="0"/>
        <pt x="311" y="-103" on="0"/>
        <pt x="269" y="-103" on="1"/>
        <pt x="166" y="-103" on="0"/>
        <pt x="63" y="-4" on="0"/>
        <pt x="63" y="89" on="1"/>
        <pt x="63" y="223" on="1"/>
        <pt x="63" y="262" on="0"/>
        <pt x="50" y="323" on="0"/>
        <pt x="43" y="334" on="1"/>
        <pt x="36" y="345" on="1"/>
        <pt x="63" y="379" on="0"/>
        <pt x="63" y="466" on="1"/>
        <pt x="63" y="602" on="1"/>
        <pt x="63" y="695" on="0"/>
        <pt x="166" y="794" on="0"/>
        <pt x="269" y="794" on="1"/>
        <pt x="353" y="794" on="0"/>
        <pt x="392" y="763" on="1"/>
        <pt x="427" y="736" on="0"/>
        <pt x="432" y="715" on="1"/>
        <pt x="435" y="706" on="1"/>
        <pt x="408" y="672" on="0"/>
        <pt x="408" y="585" on="1"/>
        <pt x="408" y="466" on="1"/>
        <pt x="408" y="427" on="0"/>
        <pt x="394" y="367" on="0"/>
        <pt x="387" y="356" on="1"/>
        <pt x="380" y="345" on="1"/>
        <pt x="408" y="310" on="0"/>
      </contour>
    </TTGlyph>
    <TTGlyph name="braceright" xMin="57" yMin="-103" xMax="456" yMax="794">
      <contour>
        <pt x="84" y="106" on="1"/>
        <pt x="84" y="223" on="1"/>
        <pt x="84" y="262" on="0"/>
        <pt x="98" y="323" on="0"/>
        <pt x="105" y="334" on="1"/>
        <pt x="112" y="345" on="1"/>
        <pt x="84" y="379" on="0"/>
        <pt x="84" y="466" on="1"/>
        <pt x="84" y="585" on="1"/>
        <pt x="84" y="624" on="0"/>
        <pt x="70" y="684" on="0"/>
        <pt x="64" y="695" on="1"/>
        <pt x="57" y="706" on="1"/>
        <pt x="60" y="718" on="0"/>
        <pt x="84" y="752" on="0"/>
        <pt x="116" y="775" on="0"/>
        <pt x="181" y="794" on="0"/>
        <pt x="223" y="794" on="1"/>
        <pt x="326" y="794" on="0"/>
        <pt x="429" y="695" on="0"/>
        <pt x="429" y="602" on="1"/>
        <pt x="429" y="466" on="1"/>
        <pt x="429" y="427" on="0"/>
        <pt x="442" y="367" on="0"/>
        <pt x="449" y="356" on="1"/>
        <pt x="456" y="345" on="1"/>
        <pt x="429" y="310" on="0"/>
        <pt x="429" y="223" on="1"/>
        <pt x="429" y="89" on="1"/>
        <pt x="429" y="-4" on="0"/>
        <pt x="326" y="-103" on="0"/>
        <pt x="223" y="-103" on="1"/>
        <pt x="140" y="-103" on="0"/>
        <pt x="100" y="-72" on="1"/>
        <pt x="66" y="-47" on="0"/>
        <pt x="60" y="-25" on="1"/>
        <pt x="57" y="-16" on="1"/>
        <pt x="84" y="19" on="0"/>
      </contour>
    </TTGlyph>
    <TTGlyph name="bracketleft" xMin="36" yMin="-83" xMax="466" yMax="756">
      <contour>
        <pt x="466" y="-83" on="1"/>
        <pt x="36" y="-83" on="1"/>
        <pt x="36" y="756" on="1"/>
        <pt x="466" y="756" on="1"/>
        <pt x="466" y="496" on="1"/>
        <pt x="352" y="502" on="1"/>
        <pt x="352" y="172" on="1"/>
        <pt x="466" y="177" on="1"/>
      </contour>
    </TTGlyph>
    <TTGlyph name="bracketright" xMin="71" yMin="-83" xMax="502" yMax="756">
      <contour>
        <pt x="71" y="756" on="1"/>
        <pt x="502" y="756" on="1"/>
        <pt x="502" y="-83" on="1"/>
        <pt x="71" y="-83" on="1"/>
        <pt x="71" y="177" on="1"/>
        <pt x="186" y="172" on="1"/>
        <pt x="186" y="502" on="1"/>
        <pt x="71" y="496" on="1"/>
      </contour>
    </TTGlyph>
    <TTGlyph name="breve" xMin="46" yMin="708" xMax="473" yMax="894">
      <contour>
        <pt x="379" y="725" on="0"/>
        <pt x="302" y="708" on="0"/>
        <pt x="215" y="708" on="0"/>
        <pt x="139" y="724" on="0"/>
        <pt x="116" y="736" on="1"/>
        <pt x="71" y="760" on="0"/>
        <pt x="53" y="780" on="1"/>
        <pt x="46" y="788" on="1"/>
        <pt x="136" y="892" on="1"/>
        <pt x="137" y="888" on="0"/>
        <pt x="162" y="863" on="0"/>
        <pt x="223" y="834" on="0"/>
        <pt x="296" y="834" on="0"/>
        <pt x="359" y="864" on="0"/>
        <pt x="372" y="879" on="1"/>
        <pt x="386" y="894" on="1"/>
        <pt x="473" y="788" on="1"/>
        <pt x="466" y="778" on="0"/>
        <pt x="423" y="746" on="0"/>
      </contour>
    </TTGlyph>
    <TTGlyph name="brokenbar" xMin="47" yMin="-66" xMax="346" yMax="756">
      <contour>
        <pt x="58" y="372" on="1"/>
        <pt x="47" y="376" on="1"/>
        <pt x="47" y="739" on="1"/>
        <pt x="80" y="756" on="0"/>
        <pt x="197" y="756" on="1"/>
        <pt x="303" y="756" on="0"/>
        <pt x="334" y="744" on="1"/>
        <pt x="346" y="739" on="1"/>
        <pt x="346" y="376" on="1"/>
        <pt x="312" y="359" on="0"/>
        <pt x="96" y="359" on="0"/>
      </contour>
      <contour>
        <pt x="58" y="-54" on="1"/>
        <pt x="47" y="-49" on="1"/>
        <pt x="47" y="315" on="1"/>
        <pt x="80" y="332" on="0"/>
        <pt x="197" y="332" on="1"/>
        <pt x="303" y="332" on="0"/>
        <pt x="334" y="320" on="1"/>
        <pt x="346" y="315" on="1"/>
        <pt x="346" y="-49" on="1"/>
        <pt x="312" y="-66" on="0"/>
        <pt x="90" y="-66" on="0"/>
      </contour>
    </TTGlyph>
    <TTGlyph name="bullet" xMin="23" yMin="102" xMax="468" yMax="531">
      <contour>
        <pt x="23" y="428" on="0"/>
        <pt x="127" y="531" on="0"/>
        <pt x="362" y="531" on="0"/>
        <pt x="466" y="428" on="0"/>
        <pt x="468" y="319" on="1"/>
        <pt x="468" y="309" on="1"/>
        <pt x="468" y="204" on="0"/>
        <pt x="363" y="102" on="0"/>
        <pt x="127" y="102" on="0"/>
        <pt x="23" y="205" on="0"/>
        <pt x="23" y="317" on="1"/>
        <pt x="23" y="323" on="1"/>
      </contour>
    </TTGlyph>
    <TTGlyph name="c" xMin="29" yMin="-10" xMax="565" yMax="601">
      <contour>
        <pt x="565" y="20" on="1"/>
        <pt x="500" y="-10" on="0"/>
        <pt x="172" y="-10" on="0"/>
        <pt x="29" y="140" on="0"/>
        <pt x="29" y="456" on="0"/>
        <pt x="189" y="601" on="0"/>
        <pt x="349" y="601" on="1"/>
        <pt x="421" y="601" on="0"/>
        <pt x="529" y="581" on="0"/>
        <pt x="547" y="571" on="1"/>
        <pt x="565" y="561" on="1"/>
        <pt x="565" y="297" on="1"/>
        <pt x="360" y="297" on="1"/>
        <pt x="360" y="253" on="1"/>
        <pt x="378" y="250" on="0"/>
        <pt x="421" y="250" on="1"/>
        <pt x="493" y="250" on="0"/>
        <pt x="550" y="256" on="1"/>
        <pt x="565" y="257" on="1"/>
      </contour>
    </TTGlyph>
    <TTGlyph name="caron" xMin="43" yMin="701" xMax="422" yMax="888">
      <contour>
        <pt x="233" y="818" on="1"/>
        <pt x="369" y="888" on="1"/>
        <pt x="422" y="756" on="1"/>
        <pt x="233" y="701" on="1"/>
        <pt x="43" y="756" on="1"/>
        <pt x="94" y="888" on="1"/>
      </contour>
    </TTGlyph>
    <TTGlyph name="ccedilla" xMin="29" yMin="-206" xMax="565" yMax="601">
      <contour>
        <pt x="319" y="-206" on="1"/>
        <pt x="278" y="-206" on="0"/>
        <pt x="215" y="-190" on="0"/>
        <pt x="204" y="-182" on="1"/>
        <pt x="192" y="-173" on="1"/>
        <pt x="227" y="-76" on="1"/>
        <pt x="256" y="-100" on="0"/>
        <pt x="319" y="-100" on="1"/>
        <pt x="346" y="-100" on="0"/>
        <pt x="370" y="-89" on="1"/>
        <pt x="366" y="-74" on="1"/>
        <pt x="353" y="-83" on="0"/>
        <pt x="317" y="-83" on="1"/>
        <pt x="233" y="-83" on="0"/>
        <pt x="233" y="-24" on="1"/>
        <pt x="233" y="-9" on="0"/>
        <pt x="236" y="-1" on="1"/>
        <pt x="125" y="19" on="0"/>
        <pt x="29" y="166" on="0"/>
        <pt x="29" y="300" on="1"/>
        <pt x="29" y="456" on="0"/>
        <pt x="189" y="601" on="0"/>
        <pt x="349" y="601" on="1"/>
        <pt x="421" y="601" on="0"/>
        <pt x="529" y="581" on="0"/>
        <pt x="547" y="571" on="1"/>
        <pt x="565" y="561" on="1"/>
        <pt x="565" y="297" on="1"/>
        <pt x="360" y="297" on="1"/>
        <pt x="360" y="253" on="1"/>
        <pt x="378" y="250" on="0"/>
        <pt x="421" y="250" on="1"/>
        <pt x="493" y="250" on="0"/>
        <pt x="550" y="256" on="1"/>
        <pt x="565" y="257" on="1"/>
        <pt x="565" y="20" on="1"/>
        <pt x="522" y="0" on="0"/>
        <pt x="428" y="-7" on="1"/>
        <pt x="466" y="-30" on="0"/>
        <pt x="466" y="-143" on="0"/>
        <pt x="391" y="-206" on="0"/>
      </contour>
    </TTGlyph>
    <TTGlyph name="cedilla" xMin="46" yMin="-206" xMax="320" yMax="34">
      <contour>
        <pt x="173" y="-206" on="1"/>
        <pt x="133" y="-206" on="0"/>
        <pt x="69" y="-190" on="0"/>
        <pt x="58" y="-182" on="1"/>
        <pt x="46" y="-173" on="1"/>
        <pt x="82" y="-76" on="1"/>
        <pt x="110" y="-100" on="0"/>
        <pt x="173" y="-100" on="1"/>
        <pt x="201" y="-100" on="0"/>
        <pt x="225" y="-89" on="1"/>
        <pt x="220" y="-74" on="1"/>
        <pt x="207" y="-83" on="0"/>
        <pt x="172" y="-83" on="1"/>
        <pt x="87" y="-83" on="0"/>
        <pt x="87" y="-24" on="1"/>
        <pt x="87" y="27" on="0"/>
        <pt x="149" y="34" on="1"/>
        <pt x="150" y="31" on="0"/>
        <pt x="154" y="23" on="0"/>
        <pt x="182" y="10" on="0"/>
        <pt x="204" y="10" on="1"/>
        <pt x="266" y="10" on="0"/>
        <pt x="320" y="-41" on="0"/>
        <pt x="320" y="-143" on="0"/>
        <pt x="246" y="-206" on="0"/>
      </contour>
    </TTGlyph>
    <TTGlyph name="cent" xMin="29" yMin="-103" xMax="565" yMax="699">
      <contour>
        <pt x="29" y="300" on="1"/>
        <pt x="29" y="533" on="0"/>
        <pt x="214" y="585" on="1"/>
        <pt x="204" y="699" on="1"/>
        <pt x="455" y="699" on="1"/>
        <pt x="445" y="595" on="1"/>
        <pt x="523" y="587" on="0"/>
        <pt x="554" y="575" on="1"/>
        <pt x="565" y="571" on="1"/>
        <pt x="565" y="297" on="1"/>
        <pt x="360" y="297" on="1"/>
        <pt x="360" y="253" on="1"/>
        <pt x="378" y="250" on="0"/>
        <pt x="421" y="250" on="1"/>
        <pt x="493" y="250" on="0"/>
        <pt x="550" y="256" on="1"/>
        <pt x="565" y="257" on="1"/>
        <pt x="565" y="20" on="1"/>
        <pt x="526" y="3" on="0"/>
        <pt x="445" y="-4" on="1"/>
        <pt x="455" y="-103" on="1"/>
        <pt x="204" y="-103" on="1"/>
        <pt x="214" y="3" on="1"/>
        <pt x="115" y="28" on="0"/>
        <pt x="29" y="173" on="0"/>
      </contour>
    </TTGlyph>
    <TTGlyph name="circumflex" xMin="43" yMin="701" xMax="422" yMax="888">
      <contour>
        <pt x="369" y="701" on="1"/>
        <pt x="233" y="771" on="1"/>
        <pt x="94" y="701" on="1"/>
        <pt x="43" y="832" on="1"/>
        <pt x="233" y="888" on="1"/>
        <pt x="422" y="832" on="1"/>
      </contour>
    </TTGlyph>
    <TTGlyph name="colon" xMin="36" yMin="-9" xMax="435" yMax="699">
      <contour>
        <pt x="126" y="-9" on="0"/>
        <pt x="36" y="70" on="0"/>
        <pt x="36" y="250" on="0"/>
        <pt x="127" y="326" on="0"/>
        <pt x="342" y="326" on="0"/>
        <pt x="435" y="249" on="0"/>
        <pt x="435" y="70" on="0"/>
        <pt x="343" y="-9" on="0"/>
      </contour>
      <contour>
        <pt x="126" y="365" on="0"/>
        <pt x="36" y="443" on="0"/>
        <pt x="36" y="624" on="0"/>
        <pt x="127" y="699" on="0"/>
        <pt x="342" y="699" on="0"/>
        <pt x="435" y="623" on="0"/>
        <pt x="435" y="444" on="0"/>
        <pt x="343" y="365" on="0"/>
      </contour>
    </TTGlyph>
    <TTGlyph name="comma" xMin="20" yMin="-89" xMax="419" yMax="326">
      <contour>
        <pt x="20" y="164" on="1"/>
        <pt x="20" y="250" on="0"/>
        <pt x="111" y="326" on="0"/>
        <pt x="326" y="326" on="0"/>
        <pt x="419" y="249" on="0"/>
        <pt x="419" y="164" on="1"/>
        <pt x="419" y="107" on="0"/>
        <pt x="391" y="-19" on="0"/>
        <pt x="377" y="-54" on="1"/>
        <pt x="363" y="-89" on="1"/>
        <pt x="66" y="-89" on="1"/>
        <pt x="103" y="9" on="1"/>
        <pt x="20" y="40" on="0"/>
      </contour>
    </TTGlyph>
    <TTGlyph name="copyright" xMin="11" yMin="-9" xMax="684" yMax="699">
      <contour>
        <pt x="11" y="530" on="0"/>
        <pt x="172" y="699" on="0"/>
        <pt x="518" y="699" on="0"/>
        <pt x="684" y="531" on="0"/>
        <pt x="684" y="169" on="0"/>
        <pt x="520" y="-9" on="0"/>
        <pt x="173" y="-9" on="0"/>
        <pt x="11" y="168" on="0"/>
      </contour>
      <contour>
        <pt x="359" y="94" on="1"/>
        <pt x="421" y="94" on="0"/>
        <pt x="517" y="119" on="0"/>
        <pt x="534" y="132" on="1"/>
        <pt x="552" y="144" on="1"/>
        <pt x="552" y="320" on="1"/>
        <pt x="499" y="313" on="0"/>
        <pt x="412" y="313" on="1"/>
        <pt x="347" y="316" on="1"/>
        <pt x="347" y="368" on="1"/>
        <pt x="552" y="368" on="1"/>
        <pt x="552" y="552" on="1"/>
        <pt x="546" y="558" on="0"/>
        <pt x="521" y="574" on="0"/>
        <pt x="427" y="602" on="0"/>
        <pt x="370" y="602" on="1"/>
        <pt x="239" y="602" on="0"/>
        <pt x="119" y="483" on="0"/>
        <pt x="119" y="209" on="0"/>
        <pt x="240" y="94" on="0"/>
      </contour>
    </TTGlyph>
    <TTGlyph name="currency" xMin="29" yMin="-10" xMax="694" yMax="701">
      <contour>
        <pt x="460" y="400" on="1"/>
        <pt x="460" y="368" on="1"/>
        <pt x="591" y="368" on="1"/>
        <pt x="591" y="342" on="1"/>
        <pt x="460" y="342" on="1"/>
        <pt x="460" y="316" on="1"/>
        <pt x="591" y="316" on="1"/>
        <pt x="591" y="290" on="1"/>
        <pt x="460" y="290" on="1"/>
        <pt x="460" y="260" on="1"/>
        <pt x="480" y="257" on="0"/>
        <pt x="530" y="257" on="1"/>
        <pt x="624" y="257" on="0"/>
        <pt x="676" y="269" on="1"/>
        <pt x="694" y="273" on="1"/>
        <pt x="694" y="24" on="1"/>
        <pt x="668" y="11" on="0"/>
        <pt x="527" y="-10" on="0"/>
        <pt x="448" y="-10" on="1"/>
        <pt x="283" y="-10" on="0"/>
        <pt x="97" y="141" on="0"/>
        <pt x="82" y="290" on="1"/>
        <pt x="29" y="290" on="1"/>
        <pt x="29" y="316" on="1"/>
        <pt x="79" y="316" on="1"/>
        <pt x="79" y="342" on="1"/>
        <pt x="29" y="342" on="1"/>
        <pt x="29" y="368" on="1"/>
        <pt x="79" y="368" on="1"/>
        <pt x="84" y="539" on="0"/>
        <pt x="270" y="701" on="0"/>
        <pt x="449" y="701" on="1"/>
        <pt x="526" y="701" on="0"/>
        <pt x="649" y="683" on="0"/>
        <pt x="672" y="674" on="1"/>
        <pt x="694" y="665" on="1"/>
        <pt x="694" y="386" on="1"/>
        <pt x="635" y="400" on="0"/>
      </contour>
    </TTGlyph>
    <TTGlyph name="d" xMin="29" yMin="-10" xMax="652" yMax="745">
      <contour>
        <pt x="652" y="0" on="1"/>
        <pt x="400" y="0" on="1"/>
        <pt x="390" y="73" on="1"/>
        <pt x="386" y="62" on="0"/>
        <pt x="361" y="30" on="0"/>
        <pt x="347" y="19" on="1"/>
        <pt x="310" y="-10" on="0"/>
        <pt x="252" y="-10" on="1"/>
        <pt x="147" y="-10" on="0"/>
        <pt x="29" y="150" on="0"/>
        <pt x="29" y="437" on="0"/>
        <pt x="149" y="601" on="0"/>
        <pt x="253" y="601" on="1"/>
        <pt x="285" y="601" on="0"/>
        <pt x="335" y="586" on="0"/>
        <pt x="344" y="579" on="1"/>
        <pt x="353" y="572" on="1"/>
        <pt x="353" y="745" on="1"/>
        <pt x="652" y="745" on="1"/>
      </contour>
      <contour>
        <pt x="312" y="303" on="1"/>
        <pt x="312" y="219" on="1"/>
        <pt x="312" y="206" on="0"/>
        <pt x="327" y="190" on="0"/>
        <pt x="352" y="190" on="0"/>
        <pt x="369" y="206" on="0"/>
        <pt x="369" y="219" on="1"/>
        <pt x="369" y="303" on="1"/>
        <pt x="369" y="315" on="0"/>
        <pt x="352" y="332" on="0"/>
        <pt x="328" y="332" on="0"/>
        <pt x="312" y="315" on="0"/>
      </contour>
    </TTGlyph>
    <TTGlyph name="dagger" xMin="29" yMin="30" xMax="460" yMax="699">
      <contour>
        <pt x="134" y="686" on="1"/>
        <pt x="159" y="699" on="0"/>
        <pt x="316" y="699" on="0"/>
        <pt x="355" y="686" on="1"/>
        <pt x="355" y="551" on="1"/>
        <pt x="443" y="551" on="1"/>
        <pt x="460" y="511" on="0"/>
        <pt x="460" y="433" on="1"/>
        <pt x="460" y="368" on="0"/>
        <pt x="448" y="337" on="1"/>
        <pt x="443" y="326" on="1"/>
        <pt x="362" y="326" on="1"/>
        <pt x="329" y="46" on="1"/>
        <pt x="305" y="30" on="0"/>
        <pt x="262" y="30" on="1"/>
        <pt x="191" y="30" on="0"/>
        <pt x="170" y="42" on="1"/>
        <pt x="163" y="46" on="1"/>
        <pt x="127" y="326" on="1"/>
        <pt x="46" y="326" on="1"/>
        <pt x="29" y="362" on="0"/>
        <pt x="29" y="415" on="1"/>
        <pt x="29" y="500" on="0"/>
        <pt x="42" y="539" on="1"/>
        <pt x="46" y="551" on="1"/>
        <pt x="134" y="551" on="1"/>
      </contour>
    </TTGlyph>
    <TTGlyph name="daggerdbl" xMin="29" yMin="-3" xMax="460" yMax="699">
      <contour>
        <pt x="134" y="686" on="1"/>
        <pt x="159" y="699" on="0"/>
        <pt x="316" y="699" on="0"/>
        <pt x="355" y="686" on="1"/>
        <pt x="355" y="551" on="1"/>
        <pt x="460" y="551" on="1"/>
        <pt x="460" y="476" on="0"/>
        <pt x="448" y="444" on="1"/>
        <pt x="443" y="433" on="1"/>
        <pt x="46" y="433" on="1"/>
        <pt x="29" y="469" on="0"/>
        <pt x="29" y="551" on="1"/>
        <pt x="134" y="551" on="1"/>
      </contour>
      <contour>
        <pt x="29" y="403" on="1"/>
        <pt x="460" y="403" on="1"/>
        <pt x="460" y="340" on="0"/>
        <pt x="444" y="302" on="1"/>
        <pt x="438" y="290" on="1"/>
        <pt x="362" y="290" on="1"/>
        <pt x="329" y="13" on="1"/>
        <pt x="305" y="-3" on="0"/>
        <pt x="264" y="-3" on="1"/>
        <pt x="197" y="-3" on="0"/>
        <pt x="163" y="13" on="1"/>
        <pt x="127" y="290" on="1"/>
        <pt x="50" y="290" on="1"/>
        <pt x="29" y="332" on="0"/>
      </contour>
    </TTGlyph>
    <TTGlyph name="degree" xMin="14" yMin="438" xMax="267" yMax="699">
      <contour>
        <pt x="267" y="581" on="1"/>
        <pt x="267" y="556" on="1"/>
        <pt x="267" y="438" on="0"/>
        <pt x="14" y="438" on="0"/>
        <pt x="14" y="556" on="1"/>
        <pt x="14" y="581" on="1"/>
        <pt x="14" y="699" on="0"/>
        <pt x="267" y="699" on="0"/>
      </contour>
      <contour>
        <pt x="152" y="586" on="1"/>
        <pt x="129" y="586" on="1"/>
        <pt x="110" y="586" on="0"/>
        <pt x="110" y="551" on="0"/>
        <pt x="129" y="551" on="1"/>
        <pt x="152" y="551" on="1"/>
        <pt x="170" y="551" on="0"/>
        <pt x="170" y="586" on="0"/>
      </contour>
    </TTGlyph>
    <TTGlyph name="dieresis" xMin="114" yMin="714" xMax="588" yMax="875">
      <contour>
        <pt x="252" y="714" on="1"/>
        <pt x="194" y="714" on="1"/>
        <pt x="150" y="714" on="0"/>
        <pt x="114" y="754" on="0"/>
        <pt x="114" y="834" on="0"/>
        <pt x="150" y="875" on="0"/>
        <pt x="194" y="875" on="1"/>
        <pt x="252" y="875" on="1"/>
        <pt x="330" y="875" on="0"/>
        <pt x="330" y="714" on="0"/>
      </contour>
      <contour>
        <pt x="509" y="714" on="1"/>
        <pt x="452" y="714" on="1"/>
        <pt x="408" y="714" on="0"/>
        <pt x="372" y="754" on="0"/>
        <pt x="372" y="834" on="0"/>
        <pt x="408" y="875" on="0"/>
        <pt x="452" y="875" on="1"/>
        <pt x="509" y="875" on="1"/>
        <pt x="588" y="875" on="0"/>
        <pt x="588" y="714" on="0"/>
      </contour>
    </TTGlyph>
    <TTGlyph name="divide" xMin="14" yMin="-9" xMax="576" yMax="699">
      <contour>
        <pt x="14" y="433" on="1"/>
        <pt x="576" y="433" on="1"/>
        <pt x="576" y="256" on="1"/>
        <pt x="14" y="256" on="1"/>
      </contour>
      <contour>
        <pt x="218" y="-9" on="0"/>
        <pt x="154" y="46" on="0"/>
        <pt x="154" y="173" on="0"/>
        <pt x="219" y="226" on="0"/>
        <pt x="370" y="226" on="0"/>
        <pt x="435" y="173" on="0"/>
        <pt x="435" y="46" on="0"/>
        <pt x="371" y="-9" on="0"/>
      </contour>
      <contour>
        <pt x="218" y="465" on="0"/>
        <pt x="154" y="520" on="0"/>
        <pt x="154" y="646" on="0"/>
        <pt x="219" y="699" on="0"/>
        <pt x="370" y="699" on="0"/>
        <pt x="435" y="646" on="0"/>
        <pt x="435" y="520" on="0"/>
        <pt x="371" y="465" on="0"/>
      </contour>
    </TTGlyph>
    <TTGlyph name="dollar" xMin="23" yMin="-79" xMax="629" yMax="776">
      <contour>
        <pt x="256" y="245" on="1"/>
        <pt x="256" y="270" on="1"/>
        <pt x="204" y="273" on="0"/>
        <pt x="130" y="290" on="0"/>
        <pt x="96" y="310" on="1"/>
        <pt x="26" y="350" on="0"/>
        <pt x="26" y="465" on="1"/>
        <pt x="26" y="643" on="0"/>
        <pt x="196" y="686" on="1"/>
        <pt x="187" y="776" on="1"/>
        <pt x="438" y="776" on="1"/>
        <pt x="429" y="696" on="1"/>
        <pt x="535" y="688" on="0"/>
        <pt x="588" y="670" on="1"/>
        <pt x="605" y="664" on="1"/>
        <pt x="605" y="379" on="1"/>
        <pt x="525" y="409" on="0"/>
        <pt x="413" y="409" on="1"/>
        <pt x="413" y="383" on="1"/>
        <pt x="537" y="373" on="0"/>
        <pt x="629" y="293" on="0"/>
        <pt x="629" y="211" on="1"/>
        <pt x="629" y="45" on="0"/>
        <pt x="429" y="1" on="1"/>
        <pt x="438" y="-79" on="1"/>
        <pt x="187" y="-79" on="1"/>
        <pt x="194" y="-6" on="1"/>
        <pt x="95" y="4" on="0"/>
        <pt x="40" y="23" on="1"/>
        <pt x="23" y="29" on="1"/>
        <pt x="23" y="280" on="1"/>
        <pt x="103" y="245" on="0"/>
      </contour>
    </TTGlyph>
    <TTGlyph name="dotaccent" xMin="143" yMin="699" xMax="405" yMax="895">
      <contour>
        <pt x="262" y="895" on="1"/>
        <pt x="286" y="895" on="1"/>
        <pt x="344" y="895" on="0"/>
        <pt x="405" y="851" on="0"/>
        <pt x="405" y="744" on="0"/>
        <pt x="344" y="699" on="0"/>
        <pt x="286" y="699" on="1"/>
        <pt x="262" y="699" on="1"/>
        <pt x="204" y="699" on="0"/>
        <pt x="143" y="744" on="0"/>
        <pt x="143" y="851" on="0"/>
        <pt x="204" y="895" on="0"/>
      </contour>
    </TTGlyph>
    <TTGlyph name="dotlessi" xMin="29" yMin="0" xMax="327" yMax="591">
      <contour>
        <pt x="29" y="0" on="1"/>
        <pt x="29" y="591" on="1"/>
        <pt x="327" y="591" on="1"/>
        <pt x="327" y="0" on="1"/>
      </contour>
    </TTGlyph>
    <TTGlyph name="e" xMin="29" yMin="-10" xMax="608" yMax="601">
      <contour>
        <pt x="29" y="447" on="0"/>
        <pt x="168" y="601" on="0"/>
        <pt x="484" y="601" on="0"/>
        <pt x="608" y="473" on="0"/>
        <pt x="608" y="327" on="1"/>
        <pt x="603" y="250" on="1"/>
        <pt x="327" y="250" on="1"/>
        <pt x="327" y="216" on="1"/>
        <pt x="352" y="210" on="0"/>
        <pt x="400" y="210" on="1"/>
        <pt x="502" y="210" on="0"/>
        <pt x="565" y="219" on="1"/>
        <pt x="586" y="222" on="1"/>
        <pt x="586" y="34" on="1"/>
        <pt x="578" y="29" on="0"/>
        <pt x="543" y="14" on="0"/>
        <pt x="411" y="-10" on="0"/>
        <pt x="330" y="-10" on="1"/>
        <pt x="170" y="-10" on="0"/>
        <pt x="29" y="142" on="0"/>
      </contour>
      <contour>
        <pt x="312" y="339" on="1"/>
        <pt x="312" y="300" on="1"/>
        <pt x="369" y="300" on="1"/>
        <pt x="369" y="339" on="1"/>
        <pt x="369" y="352" on="0"/>
        <pt x="352" y="368" on="0"/>
        <pt x="327" y="368" on="0"/>
        <pt x="312" y="352" on="0"/>
      </contour>
    </TTGlyph>
    <TTGlyph name="eacute" xMin="29" yMin="-10" xMax="608" yMax="778">
      <contour>
        <pt x="29" y="447" on="0"/>
        <pt x="168" y="601" on="0"/>
        <pt x="484" y="601" on="0"/>
        <pt x="608" y="473" on="0"/>
        <pt x="608" y="327" on="1"/>
        <pt x="603" y="250" on="1"/>
        <pt x="327" y="250" on="1"/>
        <pt x="327" y="216" on="1"/>
        <pt x="352" y="210" on="0"/>
        <pt x="400" y="210" on="1"/>
        <pt x="502" y="210" on="0"/>
        <pt x="565" y="219" on="1"/>
        <pt x="586" y="222" on="1"/>
        <pt x="586" y="34" on="1"/>
        <pt x="578" y="29" on="0"/>
        <pt x="543" y="14" on="0"/>
        <pt x="411" y="-10" on="0"/>
        <pt x="330" y="-10" on="1"/>
        <pt x="170" y="-10" on="0"/>
        <pt x="29" y="142" on="0"/>
      </contour>
      <contour>
        <pt x="312" y="339" on="1"/>
        <pt x="312" y="300" on="1"/>
        <pt x="369" y="300" on="1"/>
        <pt x="369" y="339" on="1"/>
        <pt x="369" y="352" on="0"/>
        <pt x="352" y="368" on="0"/>
        <pt x="327" y="368" on="0"/>
        <pt x="312" y="352" on="0"/>
      </contour>
      <contour>
        <pt x="487" y="620" on="1"/>
        <pt x="174" y="620" on="1"/>
        <pt x="174" y="750" on="1"/>
        <pt x="487" y="778" on="1"/>
      </contour>
    </TTGlyph>
    <TTGlyph name="ecircumflex" xMin="29" yMin="-10" xMax="608" yMax="796">
      <contour>
        <pt x="29" y="447" on="0"/>
        <pt x="168" y="601" on="0"/>
        <pt x="484" y="601" on="0"/>
        <pt x="608" y="473" on="0"/>
        <pt x="608" y="327" on="1"/>
        <pt x="603" y="250" on="1"/>
        <pt x="327" y="250" on="1"/>
        <pt x="327" y="216" on="1"/>
        <pt x="352" y="210" on="0"/>
        <pt x="400" y="210" on="1"/>
        <pt x="502" y="210" on="0"/>
        <pt x="565" y="219" on="1"/>
        <pt x="586" y="222" on="1"/>
        <pt x="586" y="34" on="1"/>
        <pt x="578" y="29" on="0"/>
        <pt x="543" y="14" on="0"/>
        <pt x="411" y="-10" on="0"/>
        <pt x="330" y="-10" on="1"/>
        <pt x="170" y="-10" on="0"/>
        <pt x="29" y="142" on="0"/>
      </contour>
      <contour>
        <pt x="312" y="339" on="1"/>
        <pt x="312" y="300" on="1"/>
        <pt x="369" y="300" on="1"/>
        <pt x="369" y="339" on="1"/>
        <pt x="369" y="352" on="0"/>
        <pt x="352" y="368" on="0"/>
        <pt x="327" y="368" on="0"/>
        <pt x="312" y="352" on="0"/>
      </contour>
      <contour>
        <pt x="463" y="609" on="1"/>
        <pt x="327" y="679" on="1"/>
        <pt x="188" y="609" on="1"/>
        <pt x="137" y="740" on="1"/>
        <pt x="327" y="796" on="1"/>
        <pt x="516" y="740" on="1"/>
      </contour>
    </TTGlyph>
    <TTGlyph name="edieresis" xMin="29" yMin="-10" xMax="608" yMax="776">
      <contour>
        <pt x="29" y="447" on="0"/>
        <pt x="168" y="601" on="0"/>
        <pt x="484" y="601" on="0"/>
        <pt x="608" y="473" on="0"/>
        <pt x="608" y="327" on="1"/>
        <pt x="603" y="250" on="1"/>
        <pt x="327" y="250" on="1"/>
        <pt x="327" y="216" on="1"/>
        <pt x="352" y="210" on="0"/>
        <pt x="400" y="210" on="1"/>
        <pt x="502" y="210" on="0"/>
        <pt x="565" y="219" on="1"/>
        <pt x="586" y="222" on="1"/>
        <pt x="586" y="34" on="1"/>
        <pt x="578" y="29" on="0"/>
        <pt x="543" y="14" on="0"/>
        <pt x="411" y="-10" on="0"/>
        <pt x="330" y="-10" on="1"/>
        <pt x="170" y="-10" on="0"/>
        <pt x="29" y="142" on="0"/>
      </contour>
      <contour>
        <pt x="312" y="339" on="1"/>
        <pt x="312" y="300" on="1"/>
        <pt x="369" y="300" on="1"/>
        <pt x="369" y="339" on="1"/>
        <pt x="369" y="352" on="0"/>
        <pt x="352" y="368" on="0"/>
        <pt x="327" y="368" on="0"/>
        <pt x="312" y="352" on="0"/>
      </contour>
      <contour>
        <pt x="238" y="615" on="1"/>
        <pt x="180" y="615" on="1"/>
        <pt x="136" y="615" on="0"/>
        <pt x="100" y="655" on="0"/>
        <pt x="100" y="735" on="0"/>
        <pt x="136" y="776" on="0"/>
        <pt x="180" y="776" on="1"/>
        <pt x="238" y="776" on="1"/>
        <pt x="316" y="776" on="0"/>
        <pt x="316" y="615" on="0"/>
      </contour>
      <contour>
        <pt x="495" y="615" on="1"/>
        <pt x="438" y="615" on="1"/>
        <pt x="394" y="615" on="0"/>
        <pt x="358" y="655" on="0"/>
        <pt x="358" y="735" on="0"/>
        <pt x="394" y="776" on="0"/>
        <pt x="438" y="776" on="1"/>
        <pt x="495" y="776" on="1"/>
        <pt x="574" y="776" on="0"/>
        <pt x="574" y="615" on="0"/>
      </contour>
    </TTGlyph>
    <TTGlyph name="egrave" xMin="29" yMin="-10" xMax="608" yMax="778">
      <contour>
        <pt x="29" y="447" on="0"/>
        <pt x="168" y="601" on="0"/>
        <pt x="484" y="601" on="0"/>
        <pt x="608" y="473" on="0"/>
        <pt x="608" y="327" on="1"/>
        <pt x="603" y="250" on="1"/>
        <pt x="327" y="250" on="1"/>
        <pt x="327" y="216" on="1"/>
        <pt x="352" y="210" on="0"/>
        <pt x="400" y="210" on="1"/>
        <pt x="502" y="210" on="0"/>
        <pt x="565" y="219" on="1"/>
        <pt x="586" y="222" on="1"/>
        <pt x="586" y="34" on="1"/>
        <pt x="578" y="29" on="0"/>
        <pt x="543" y="14" on="0"/>
        <pt x="411" y="-10" on="0"/>
        <pt x="330" y="-10" on="1"/>
        <pt x="170" y="-10" on="0"/>
        <pt x="29" y="142" on="0"/>
      </contour>
      <contour>
        <pt x="312" y="339" on="1"/>
        <pt x="312" y="300" on="1"/>
        <pt x="369" y="300" on="1"/>
        <pt x="369" y="339" on="1"/>
        <pt x="369" y="352" on="0"/>
        <pt x="352" y="368" on="0"/>
        <pt x="327" y="368" on="0"/>
        <pt x="312" y="352" on="0"/>
      </contour>
      <contour>
        <pt x="477" y="620" on="1"/>
        <pt x="164" y="620" on="1"/>
        <pt x="164" y="778" on="1"/>
        <pt x="477" y="750" on="1"/>
      </contour>
    </TTGlyph>
    <TTGlyph name="eight" xMin="29" yMin="-9" xMax="678" yMax="701">
      <contour>
        <pt x="117" y="357" on="1"/>
        <pt x="47" y="404" on="0"/>
        <pt x="47" y="496" on="1"/>
        <pt x="47" y="640" on="0"/>
        <pt x="172" y="679" on="1"/>
        <pt x="242" y="701" on="0"/>
        <pt x="429" y="701" on="0"/>
        <pt x="530" y="685" on="0"/>
        <pt x="574" y="664" on="1"/>
        <pt x="659" y="623" on="0"/>
        <pt x="659" y="495" on="1"/>
        <pt x="659" y="424" on="0"/>
        <pt x="626" y="390" on="1"/>
        <pt x="603" y="365" on="0"/>
        <pt x="588" y="357" on="1"/>
        <pt x="638" y="338" on="0"/>
        <pt x="678" y="264" on="0"/>
        <pt x="678" y="203" on="1"/>
        <pt x="678" y="-9" on="0"/>
        <pt x="365" y="-9" on="1"/>
        <pt x="342" y="-9" on="1"/>
        <pt x="29" y="-9" on="0"/>
        <pt x="29" y="203" on="1"/>
        <pt x="29" y="324" on="0"/>
      </contour>
      <contour>
        <pt x="325" y="410" on="1"/>
        <pt x="325" y="370" on="1"/>
        <pt x="325" y="342" on="0"/>
        <pt x="353" y="342" on="1"/>
        <pt x="365" y="342" on="0"/>
        <pt x="382" y="358" on="0"/>
        <pt x="382" y="370" on="1"/>
        <pt x="382" y="410" on="1"/>
        <pt x="382" y="423" on="0"/>
        <pt x="365" y="439" on="0"/>
        <pt x="353" y="439" on="1"/>
        <pt x="325" y="439" on="0"/>
      </contour>
      <contour>
        <pt x="325" y="273" on="1"/>
        <pt x="325" y="257" on="1"/>
        <pt x="325" y="229" on="0"/>
        <pt x="353" y="229" on="1"/>
        <pt x="365" y="229" on="0"/>
        <pt x="382" y="245" on="0"/>
        <pt x="382" y="257" on="1"/>
        <pt x="382" y="273" on="1"/>
        <pt x="382" y="286" on="0"/>
        <pt x="365" y="302" on="0"/>
        <pt x="340" y="302" on="0"/>
        <pt x="325" y="286" on="0"/>
      </contour>
    </TTGlyph>
    <TTGlyph name="ellipsis" xMin="20" yMin="-9" xMax="1257" yMax="326">
      <contour>
        <pt x="531" y="-9" on="0"/>
        <pt x="440" y="70" on="0"/>
        <pt x="440" y="250" on="0"/>
        <pt x="532" y="326" on="0"/>
        <pt x="747" y="326" on="0"/>
        <pt x="839" y="250" on="0"/>
        <pt x="839" y="70" on="0"/>
        <pt x="748" y="-9" on="0"/>
      </contour>
      <contour>
        <pt x="110" y="-9" on="0"/>
        <pt x="20" y="70" on="0"/>
        <pt x="20" y="250" on="0"/>
        <pt x="111" y="326" on="0"/>
        <pt x="326" y="326" on="0"/>
        <pt x="419" y="249" on="0"/>
        <pt x="419" y="70" on="0"/>
        <pt x="327" y="-9" on="0"/>
      </contour>
      <contour>
        <pt x="948" y="-9" on="0"/>
        <pt x="858" y="70" on="0"/>
        <pt x="858" y="250" on="0"/>
        <pt x="949" y="326" on="0"/>
        <pt x="1164" y="326" on="0"/>
        <pt x="1257" y="249" on="0"/>
        <pt x="1257" y="70" on="0"/>
        <pt x="1165" y="-9" on="0"/>
      </contour>
    </TTGlyph>
    <TTGlyph name="emdash" xMin="23" yMin="242" xMax="642" yMax="459">
      <contour>
        <pt x="23" y="242" on="1"/>
        <pt x="23" y="459" on="1"/>
        <pt x="642" y="459" on="1"/>
        <pt x="642" y="242" on="1"/>
      </contour>
    </TTGlyph>
    <TTGlyph name="endash" xMin="23" yMin="242" xMax="499" yMax="459">
      <contour>
        <pt x="23" y="242" on="1"/>
        <pt x="23" y="459" on="1"/>
        <pt x="499" y="459" on="1"/>
        <pt x="499" y="242" on="1"/>
      </contour>
    </TTGlyph>
    <TTGlyph name="equal" xMin="36" yMin="113" xMax="546" yMax="586">
      <contour>
        <pt x="546" y="376" on="1"/>
        <pt x="36" y="376" on="1"/>
        <pt x="36" y="586" on="1"/>
        <pt x="546" y="586" on="1"/>
      </contour>
      <contour>
        <pt x="546" y="113" on="1"/>
        <pt x="36" y="113" on="1"/>
        <pt x="36" y="323" on="1"/>
        <pt x="546" y="323" on="1"/>
      </contour>
    </TTGlyph>
    <TTGlyph name="eth" xMin="17" yMin="-9" xMax="649" yMax="778">
      <contour>
        <pt x="332" y="-9" on="1"/>
        <pt x="166" y="-9" on="0"/>
        <pt x="17" y="128" on="0"/>
        <pt x="17" y="262" on="1"/>
        <pt x="17" y="356" on="0"/>
        <pt x="134" y="463" on="0"/>
        <pt x="249" y="463" on="1"/>
        <pt x="347" y="463" on="1"/>
        <pt x="347" y="496" on="1"/>
        <pt x="70" y="496" on="1"/>
        <pt x="70" y="778" on="1"/>
        <pt x="270" y="778" on="1"/>
        <pt x="469" y="778" on="0"/>
        <pt x="649" y="584" on="0"/>
        <pt x="649" y="372" on="1"/>
        <pt x="649" y="-9" on="0"/>
      </contour>
      <contour>
        <pt x="306" y="299" on="1"/>
        <pt x="306" y="257" on="1"/>
        <pt x="306" y="245" on="0"/>
        <pt x="323" y="229" on="0"/>
        <pt x="335" y="229" on="1"/>
        <pt x="363" y="229" on="0"/>
        <pt x="363" y="257" on="1"/>
        <pt x="363" y="299" on="1"/>
        <pt x="363" y="327" on="0"/>
        <pt x="335" y="327" on="1"/>
        <pt x="323" y="327" on="0"/>
        <pt x="306" y="311" on="0"/>
      </contour>
    </TTGlyph>
    <TTGlyph name="exclam" xMin="36" yMin="-10" xMax="393" yMax="682">
      <contour>
        <pt x="339" y="243" on="1"/>
        <pt x="92" y="243" on="1"/>
        <pt x="36" y="682" on="1"/>
        <pt x="393" y="682" on="1"/>
      </contour>
      <contour>
        <pt x="149" y="212" on="1"/>
        <pt x="279" y="212" on="1"/>
        <pt x="334" y="212" on="0"/>
        <pt x="392" y="153" on="0"/>
        <pt x="392" y="48" on="0"/>
        <pt x="334" y="-10" on="0"/>
        <pt x="279" y="-10" on="1"/>
        <pt x="149" y="-10" on="1"/>
        <pt x="93" y="-10" on="0"/>
        <pt x="36" y="48" on="0"/>
        <pt x="36" y="153" on="0"/>
        <pt x="94" y="212" on="0"/>
      </contour>
    </TTGlyph>
    <TTGlyph name="exclamdown" xMin="21" yMin="-93" xMax="379" yMax="599">
      <contour>
        <pt x="77" y="346" on="1"/>
        <pt x="325" y="346" on="1"/>
        <pt x="379" y="-93" on="1"/>
        <pt x="21" y="-93" on="1"/>
      </contour>
      <contour>
        <pt x="265" y="378" on="1"/>
        <pt x="134" y="378" on="1"/>
        <pt x="79" y="378" on="0"/>
        <pt x="21" y="436" on="0"/>
        <pt x="21" y="541" on="0"/>
        <pt x="79" y="599" on="0"/>
        <pt x="134" y="599" on="1"/>
        <pt x="265" y="599" on="1"/>
        <pt x="320" y="599" on="0"/>
        <pt x="378" y="541" on="0"/>
        <pt x="378" y="436" on="0"/>
        <pt x="320" y="378" on="0"/>
      </contour>
    </TTGlyph>
    <TTGlyph name="f" xMin="21" yMin="0" xMax="429" yMax="761">
      <contour>
        <pt x="43" y="578" on="1"/>
        <pt x="43" y="761" on="0"/>
        <pt x="255" y="761" on="1"/>
        <pt x="311" y="761" on="0"/>
        <pt x="398" y="748" on="0"/>
        <pt x="414" y="742" on="1"/>
        <pt x="429" y="736" on="1"/>
        <pt x="429" y="536" on="1"/>
        <pt x="323" y="536" on="1"/>
        <pt x="323" y="492" on="1"/>
        <pt x="429" y="492" on="1"/>
        <pt x="429" y="222" on="1"/>
        <pt x="357" y="222" on="1"/>
        <pt x="357" y="0" on="1"/>
        <pt x="60" y="0" on="1"/>
        <pt x="60" y="222" on="1"/>
        <pt x="21" y="222" on="1"/>
        <pt x="21" y="469" on="1"/>
        <pt x="66" y="492" on="1"/>
        <pt x="43" y="525" on="0"/>
      </contour>
    </TTGlyph>
    <TTGlyph name="fi" xMin="21" yMin="0" xMax="786" yMax="792">
      <contour>
        <pt x="43" y="578" on="1"/>
        <pt x="43" y="761" on="0"/>
        <pt x="255" y="761" on="1"/>
        <pt x="311" y="761" on="0"/>
        <pt x="398" y="748" on="0"/>
        <pt x="414" y="742" on="1"/>
        <pt x="429" y="736" on="1"/>
        <pt x="429" y="536" on="1"/>
        <pt x="323" y="536" on="1"/>
        <pt x="323" y="492" on="1"/>
        <pt x="429" y="492" on="1"/>
        <pt x="429" y="222" on="1"/>
        <pt x="357" y="222" on="1"/>
        <pt x="357" y="0" on="1"/>
        <pt x="60" y="0" on="1"/>
        <pt x="60" y="222" on="1"/>
        <pt x="21" y="222" on="1"/>
        <pt x="21" y="469" on="1"/>
        <pt x="66" y="492" on="1"/>
        <pt x="43" y="525" on="0"/>
      </contour>
      <contour>
        <pt x="560" y="542" on="0"/>
        <pt x="488" y="602" on="0"/>
        <pt x="488" y="734" on="0"/>
        <pt x="561" y="792" on="0"/>
        <pt x="636" y="792" on="1"/>
        <pt x="786" y="792" on="0"/>
        <pt x="786" y="671" on="1"/>
        <pt x="786" y="602" on="0"/>
        <pt x="712" y="542" on="0"/>
      </contour>
      <contour>
        <pt x="488" y="0" on="1"/>
        <pt x="488" y="519" on="1"/>
        <pt x="786" y="519" on="1"/>
        <pt x="786" y="0" on="1"/>
      </contour>
    </TTGlyph>
    <TTGlyph name="five" xMin="29" yMin="-9" xMax="639" yMax="691">
      <contour>
        <pt x="202" y="255" on="1"/>
        <pt x="247" y="255" on="0"/>
        <pt x="247" y="282" on="1"/>
        <pt x="247" y="301" on="0"/>
        <pt x="193" y="316" on="0"/>
        <pt x="130" y="316" on="1"/>
        <pt x="63" y="316" on="1"/>
        <pt x="87" y="691" on="1"/>
        <pt x="632" y="691" on="1"/>
        <pt x="632" y="422" on="1"/>
        <pt x="449" y="422" on="1"/>
        <pt x="445" y="396" on="1"/>
        <pt x="482" y="392" on="0"/>
        <pt x="522" y="385" on="0"/>
        <pt x="583" y="362" on="0"/>
        <pt x="614" y="329" on="0"/>
        <pt x="639" y="266" on="0"/>
        <pt x="639" y="223" on="1"/>
        <pt x="639" y="114" on="0"/>
        <pt x="487" y="-9" on="0"/>
        <pt x="323" y="-9" on="1"/>
        <pt x="240" y="-9" on="0"/>
        <pt x="93" y="17" on="0"/>
        <pt x="61" y="30" on="1"/>
        <pt x="29" y="43" on="1"/>
        <pt x="51" y="292" on="1"/>
        <pt x="107" y="255" on="0"/>
      </contour>
    </TTGlyph>
    <TTGlyph name="fl" xMin="21" yMin="-10" xMax="808" yMax="761">
      <contour>
        <pt x="43" y="578" on="1"/>
        <pt x="43" y="761" on="0"/>
        <pt x="255" y="761" on="1"/>
        <pt x="311" y="761" on="0"/>
        <pt x="398" y="748" on="0"/>
        <pt x="414" y="742" on="1"/>
        <pt x="429" y="736" on="1"/>
        <pt x="429" y="536" on="1"/>
        <pt x="323" y="536" on="1"/>
        <pt x="323" y="492" on="1"/>
        <pt x="429" y="492" on="1"/>
        <pt x="429" y="222" on="1"/>
        <pt x="357" y="222" on="1"/>
        <pt x="357" y="0" on="1"/>
        <pt x="60" y="0" on="1"/>
        <pt x="60" y="222" on="1"/>
        <pt x="21" y="222" on="1"/>
        <pt x="21" y="469" on="1"/>
        <pt x="66" y="492" on="1"/>
        <pt x="43" y="525" on="0"/>
      </contour>
      <contour>
        <pt x="487" y="147" on="1"/>
        <pt x="487" y="745" on="1"/>
        <pt x="787" y="745" on="1"/>
        <pt x="787" y="257" on="1"/>
        <pt x="808" y="257" on="1"/>
        <pt x="808" y="11" on="1"/>
        <pt x="755" y="-10" on="0"/>
        <pt x="566" y="-10" on="0"/>
        <pt x="487" y="68" on="0"/>
      </contour>
    </TTGlyph>
    <TTGlyph name="florin" xMin="21" yMin="-93" xMax="429" yMax="761">
      <contour>
        <pt x="60" y="133" on="1"/>
        <pt x="60" y="222" on="1"/>
        <pt x="21" y="222" on="1"/>
        <pt x="21" y="469" on="1"/>
        <pt x="66" y="492" on="1"/>
        <pt x="43" y="525" on="0"/>
        <pt x="43" y="578" on="1"/>
        <pt x="43" y="761" on="0"/>
        <pt x="255" y="761" on="1"/>
        <pt x="311" y="761" on="0"/>
        <pt x="398" y="748" on="0"/>
        <pt x="414" y="742" on="1"/>
        <pt x="429" y="736" on="1"/>
        <pt x="429" y="536" on="1"/>
        <pt x="323" y="536" on="1"/>
        <pt x="323" y="492" on="1"/>
        <pt x="429" y="492" on="1"/>
        <pt x="429" y="222" on="1"/>
        <pt x="357" y="222" on="1"/>
        <pt x="357" y="67" on="1"/>
        <pt x="357" y="20" on="0"/>
        <pt x="330" y="-60" on="0"/>
        <pt x="316" y="-76" on="1"/>
        <pt x="303" y="-93" on="1"/>
        <pt x="27" y="14" on="1"/>
        <pt x="60" y="51" on="0"/>
      </contour>
    </TTGlyph>
    <TTGlyph name="four" xMin="29" yMin="0" xMax="695" yMax="691">
      <contour>
        <pt x="270" y="90" on="1"/>
        <pt x="29" y="90" on="1"/>
        <pt x="29" y="317" on="1"/>
        <pt x="255" y="691" on="1"/>
        <pt x="615" y="691" on="1"/>
        <pt x="615" y="368" on="1"/>
        <pt x="695" y="368" on="1"/>
        <pt x="695" y="90" on="1"/>
        <pt x="615" y="90" on="1"/>
        <pt x="615" y="0" on="1"/>
        <pt x="270" y="0" on="1"/>
      </contour>
      <contour>
        <pt x="360" y="280" on="1"/>
        <pt x="360" y="368" on="1"/>
        <pt x="346" y="368" on="1"/>
        <pt x="307" y="280" on="1"/>
      </contour>
    </TTGlyph>
    <TTGlyph name="fraction" xMin="9" yMin="-79" xMax="395" yMax="781">
      <contour>
        <pt x="252" y="-70" on="1"/>
        <pt x="232" y="-79" on="0"/>
        <pt x="124" y="-79" on="0"/>
        <pt x="36" y="-56" on="0"/>
        <pt x="22" y="-44" on="1"/>
        <pt x="9" y="-33" on="1"/>
        <pt x="152" y="772" on="1"/>
        <pt x="172" y="781" on="0"/>
        <pt x="279" y="781" on="0"/>
        <pt x="368" y="758" on="0"/>
        <pt x="382" y="746" on="1"/>
        <pt x="395" y="735" on="1"/>
      </contour>
    </TTGlyph>
    <TTGlyph name="g" xMin="14" yMin="-93" xMax="615" yMax="592">
      <contour>
        <pt x="418" y="177" on="1"/>
        <pt x="462" y="177" on="1"/>
        <pt x="615" y="177" on="0"/>
        <pt x="615" y="50" on="1"/>
        <pt x="615" y="-17" on="0"/>
        <pt x="519" y="-93" on="0"/>
        <pt x="398" y="-93" on="1"/>
        <pt x="233" y="-93" on="1"/>
        <pt x="107" y="-93" on="0"/>
        <pt x="14" y="-27" on="0"/>
        <pt x="14" y="28" on="1"/>
        <pt x="14" y="139" on="0"/>
        <pt x="130" y="139" on="1"/>
        <pt x="152" y="139" on="1"/>
        <pt x="135" y="142" on="0"/>
        <pt x="107" y="162" on="0"/>
        <pt x="107" y="177" on="1"/>
        <pt x="107" y="207" on="0"/>
        <pt x="156" y="216" on="1"/>
        <pt x="94" y="216" on="0"/>
        <pt x="20" y="300" on="0"/>
        <pt x="20" y="380" on="1"/>
        <pt x="20" y="491" on="0"/>
        <pt x="135" y="592" on="0"/>
        <pt x="265" y="592" on="1"/>
        <pt x="612" y="592" on="1"/>
        <pt x="612" y="312" on="1"/>
        <pt x="578" y="312" on="1"/>
        <pt x="562" y="199" on="0"/>
        <pt x="418" y="199" on="1"/>
      </contour>
      <contour>
        <pt x="366" y="107" on="1"/>
        <pt x="256" y="107" on="1"/>
        <pt x="243" y="107" on="0"/>
        <pt x="227" y="92" on="0"/>
        <pt x="227" y="67" on="0"/>
        <pt x="243" y="50" on="0"/>
        <pt x="256" y="50" on="1"/>
        <pt x="366" y="50" on="1"/>
        <pt x="379" y="50" on="0"/>
        <pt x="395" y="67" on="0"/>
        <pt x="395" y="92" on="0"/>
        <pt x="379" y="107" on="0"/>
      </contour>
      <contour>
        <pt x="282" y="339" on="1"/>
        <pt x="282" y="277" on="1"/>
        <pt x="282" y="249" on="0"/>
        <pt x="310" y="249" on="1"/>
        <pt x="322" y="249" on="0"/>
        <pt x="339" y="265" on="0"/>
        <pt x="339" y="277" on="1"/>
        <pt x="339" y="339" on="1"/>
        <pt x="339" y="352" on="0"/>
        <pt x="322" y="368" on="0"/>
        <pt x="297" y="368" on="0"/>
        <pt x="282" y="352" on="0"/>
      </contour>
    </TTGlyph>
    <TTGlyph name="germandbls" xMin="29" yMin="-76" xMax="641" yMax="681">
      <contour>
        <pt x="29" y="-76" on="1"/>
        <pt x="29" y="473" on="1"/>
        <pt x="29" y="681" on="0"/>
        <pt x="312" y="681" on="1"/>
        <pt x="463" y="681" on="0"/>
        <pt x="609" y="569" on="0"/>
        <pt x="609" y="473" on="1"/>
        <pt x="609" y="434" on="0"/>
        <pt x="594" y="369" on="0"/>
        <pt x="586" y="356" on="1"/>
        <pt x="578" y="342" on="1"/>
        <pt x="585" y="340" on="0"/>
        <pt x="611" y="315" on="0"/>
        <pt x="619" y="301" on="1"/>
        <pt x="641" y="262" on="0"/>
        <pt x="641" y="163" on="0"/>
        <pt x="628" y="105" on="0"/>
        <pt x="588" y="49" on="0"/>
        <pt x="554" y="31" on="1"/>
        <pt x="478" y="-9" on="0"/>
        <pt x="327" y="-9" on="1"/>
        <pt x="327" y="-76" on="1"/>
      </contour>
      <contour>
        <pt x="370" y="332" on="1"/>
        <pt x="370" y="383" on="1"/>
        <pt x="370" y="396" on="0"/>
        <pt x="354" y="412" on="0"/>
        <pt x="342" y="412" on="1"/>
        <pt x="313" y="412" on="1"/>
        <pt x="313" y="332" on="1"/>
      </contour>
      <contour>
        <pt x="355" y="283" on="1"/>
        <pt x="313" y="283" on="1"/>
        <pt x="313" y="226" on="1"/>
        <pt x="355" y="226" on="1"/>
        <pt x="366" y="226" on="0"/>
        <pt x="383" y="243" on="0"/>
        <pt x="383" y="267" on="0"/>
        <pt x="367" y="283" on="0"/>
      </contour>
    </TTGlyph>
    <TTGlyph name="grave" xMin="47" yMin="719" xMax="360" yMax="877">
      <contour>
        <pt x="360" y="719" on="1"/>
        <pt x="47" y="719" on="1"/>
        <pt x="47" y="877" on="1"/>
        <pt x="360" y="849" on="1"/>
      </contour>
    </TTGlyph>
    <TTGlyph name="greater" xMin="29" yMin="41" xMax="466" yMax="608">
      <contour>
        <pt x="466" y="416" on="1"/>
        <pt x="466" y="233" on="1"/>
        <pt x="127" y="41" on="1"/>
        <pt x="29" y="297" on="1"/>
        <pt x="184" y="325" on="1"/>
        <pt x="29" y="352" on="1"/>
        <pt x="127" y="608" on="1"/>
      </contour>
    </TTGlyph>
    <TTGlyph name="greaterequal" xMin="29" yMin="39" xMax="433" yMax="679">
      <contour>
        <pt x="433" y="229" on="1"/>
        <pt x="433" y="39" on="1"/>
        <pt x="29" y="39" on="1"/>
        <pt x="29" y="229" on="1"/>
      </contour>
      <contour>
        <pt x="433" y="546" on="1"/>
        <pt x="433" y="370" on="1"/>
        <pt x="29" y="237" on="1"/>
        <pt x="29" y="430" on="1"/>
        <pt x="206" y="458" on="1"/>
        <pt x="29" y="476" on="1"/>
        <pt x="29" y="679" on="1"/>
      </contour>
    </TTGlyph>
    <TTGlyph name="guillemotleft" xMin="23" yMin="56" xMax="794" yMax="622">
      <contour>
        <pt x="23" y="233" on="1"/>
        <pt x="23" y="445" on="1"/>
        <pt x="395" y="622" on="1"/>
        <pt x="395" y="360" on="1"/>
        <pt x="239" y="339" on="1"/>
        <pt x="395" y="306" on="1"/>
        <pt x="395" y="56" on="1"/>
      </contour>
      <contour>
        <pt x="422" y="233" on="1"/>
        <pt x="422" y="445" on="1"/>
        <pt x="794" y="622" on="1"/>
        <pt x="794" y="360" on="1"/>
        <pt x="638" y="339" on="1"/>
        <pt x="794" y="306" on="1"/>
        <pt x="794" y="56" on="1"/>
      </contour>
    </TTGlyph>
    <TTGlyph name="guillemotright" xMin="29" yMin="56" xMax="799" yMax="622">
      <contour>
        <pt x="799" y="445" on="1"/>
        <pt x="799" y="233" on="1"/>
        <pt x="428" y="56" on="1"/>
        <pt x="428" y="306" on="1"/>
        <pt x="583" y="339" on="1"/>
        <pt x="428" y="360" on="1"/>
        <pt x="428" y="622" on="1"/>
      </contour>
      <contour>
        <pt x="400" y="445" on="1"/>
        <pt x="400" y="233" on="1"/>
        <pt x="29" y="56" on="1"/>
        <pt x="29" y="306" on="1"/>
        <pt x="184" y="339" on="1"/>
        <pt x="29" y="360" on="1"/>
        <pt x="29" y="622" on="1"/>
      </contour>
    </TTGlyph>
    <TTGlyph name="guilsinglleft" xMin="23" yMin="56" xMax="452" yMax="622">
      <contour>
        <pt x="23" y="233" on="1"/>
        <pt x="23" y="445" on="1"/>
        <pt x="452" y="622" on="1"/>
        <pt x="452" y="360" on="1"/>
        <pt x="296" y="339" on="1"/>
        <pt x="452" y="306" on="1"/>
        <pt x="452" y="56" on="1"/>
      </contour>
    </TTGlyph>
    <TTGlyph name="guilsinglright" xMin="29" yMin="56" xMax="458" yMax="622">
      <contour>
        <pt x="458" y="445" on="1"/>
        <pt x="458" y="233" on="1"/>
        <pt x="29" y="56" on="1"/>
        <pt x="29" y="306" on="1"/>
        <pt x="184" y="339" on="1"/>
        <pt x="29" y="360" on="1"/>
        <pt x="29" y="622" on="1"/>
      </contour>
    </TTGlyph>
    <TTGlyph name="h" xMin="29" yMin="0" xMax="652" yMax="745">
      <contour>
        <pt x="369" y="0" on="1"/>
        <pt x="369" y="317" on="1"/>
        <pt x="369" y="329" on="0"/>
        <pt x="352" y="346" on="0"/>
        <pt x="328" y="346" on="0"/>
        <pt x="312" y="329" on="0"/>
        <pt x="312" y="317" on="1"/>
        <pt x="312" y="0" on="1"/>
        <pt x="29" y="0" on="1"/>
        <pt x="29" y="745" on="1"/>
        <pt x="327" y="745" on="1"/>
        <pt x="327" y="619" on="1"/>
        <pt x="317" y="533" on="1"/>
        <pt x="321" y="546" on="0"/>
        <pt x="341" y="572" on="0"/>
        <pt x="407" y="601" on="0"/>
        <pt x="455" y="601" on="1"/>
        <pt x="553" y="601" on="0"/>
        <pt x="652" y="493" on="0"/>
        <pt x="652" y="390" on="1"/>
        <pt x="652" y="0" on="1"/>
      </contour>
    </TTGlyph>
    <TTGlyph name="hungarumlaut" xMin="47" yMin="719" xMax="595" yMax="877">
      <contour>
        <pt x="303" y="719" on="1"/>
        <pt x="47" y="719" on="1"/>
        <pt x="47" y="835" on="1"/>
        <pt x="303" y="877" on="1"/>
      </contour>
      <contour>
        <pt x="595" y="719" on="1"/>
        <pt x="339" y="719" on="1"/>
        <pt x="339" y="835" on="1"/>
        <pt x="595" y="877" on="1"/>
      </contour>
    </TTGlyph>
    <TTGlyph name="hyphen" xMin="29" yMin="219" xMax="472" yMax="458">
      <contour>
        <pt x="472" y="219" on="1"/>
        <pt x="29" y="219" on="1"/>
        <pt x="29" y="458" on="1"/>
        <pt x="472" y="458" on="1"/>
      </contour>
    </TTGlyph>
    <TTGlyph name="i" xMin="29" yMin="0" xMax="327" yMax="792">
      <contour>
        <pt x="101" y="542" on="0"/>
        <pt x="29" y="602" on="0"/>
        <pt x="29" y="734" on="0"/>
        <pt x="102" y="792" on="0"/>
        <pt x="177" y="792" on="1"/>
        <pt x="327" y="792" on="0"/>
        <pt x="327" y="671" on="1"/>
        <pt x="327" y="602" on="0"/>
        <pt x="253" y="542" on="0"/>
      </contour>
      <contour>
        <pt x="29" y="0" on="1"/>
        <pt x="29" y="519" on="1"/>
        <pt x="327" y="519" on="1"/>
        <pt x="327" y="0" on="1"/>
      </contour>
    </TTGlyph>
    <TTGlyph name="iacute" xMin="28" yMin="0" xMax="341" yMax="778">
      <contour>
        <pt x="29" y="0" on="1"/>
        <pt x="29" y="591" on="1"/>
        <pt x="327" y="591" on="1"/>
        <pt x="327" y="0" on="1"/>
      </contour>
      <contour>
        <pt x="341" y="620" on="1"/>
        <pt x="28" y="620" on="1"/>
        <pt x="28" y="750" on="1"/>
        <pt x="341" y="778" on="1"/>
      </contour>
    </TTGlyph>
    <TTGlyph name="icircumflex" xMin="-10" yMin="0" xMax="369" yMax="798">
      <contour>
        <pt x="29" y="0" on="1"/>
        <pt x="29" y="591" on="1"/>
        <pt x="327" y="591" on="1"/>
        <pt x="327" y="0" on="1"/>
      </contour>
      <contour>
        <pt x="316" y="611" on="1"/>
        <pt x="180" y="681" on="1"/>
        <pt x="41" y="611" on="1"/>
        <pt x="-10" y="742" on="1"/>
        <pt x="180" y="798" on="1"/>
        <pt x="369" y="742" on="1"/>
      </contour>
    </TTGlyph>
    <TTGlyph name="idieresis" xMin="-75" yMin="0" xMax="399" yMax="782">
      <contour>
        <pt x="15" y="0" on="1"/>
        <pt x="15" y="591" on="1"/>
        <pt x="313" y="591" on="1"/>
        <pt x="313" y="0" on="1"/>
      </contour>
      <contour>
        <pt x="63" y="621" on="1"/>
        <pt x="5" y="621" on="1"/>
        <pt x="-39" y="621" on="0"/>
        <pt x="-75" y="661" on="0"/>
        <pt x="-75" y="741" on="0"/>
        <pt x="-39" y="782" on="0"/>
        <pt x="5" y="782" on="1"/>
        <pt x="63" y="782" on="1"/>
        <pt x="141" y="782" on="0"/>
        <pt x="141" y="621" on="0"/>
      </contour>
      <contour>
        <pt x="320" y="621" on="1"/>
        <pt x="263" y="621" on="1"/>
        <pt x="219" y="621" on="0"/>
        <pt x="183" y="661" on="0"/>
        <pt x="183" y="741" on="0"/>
        <pt x="219" y="782" on="0"/>
        <pt x="263" y="782" on="1"/>
        <pt x="320" y="782" on="1"/>
        <pt x="399" y="782" on="0"/>
        <pt x="399" y="621" on="0"/>
      </contour>
    </TTGlyph>
    <TTGlyph name="igrave" xMin="14" yMin="0" xMax="327" yMax="778">
      <contour>
        <pt x="29" y="0" on="1"/>
        <pt x="29" y="591" on="1"/>
        <pt x="327" y="591" on="1"/>
        <pt x="327" y="0" on="1"/>
      </contour>
      <contour>
        <pt x="327" y="620" on="1"/>
        <pt x="14" y="620" on="1"/>
        <pt x="14" y="778" on="1"/>
        <pt x="327" y="750" on="1"/>
      </contour>
    </TTGlyph>
    <TTGlyph name="infinity" xMin="14" yMin="-9" xMax="1256" yMax="706">
      <contour>
        <pt x="918" y="706" on="1"/>
        <pt x="1090" y="706" on="0"/>
        <pt x="1256" y="531" on="0"/>
        <pt x="1256" y="169" on="0"/>
        <pt x="1092" y="-9" on="0"/>
        <pt x="918" y="-9" on="1"/>
        <pt x="712" y="-9" on="0"/>
        <pt x="633" y="119" on="1"/>
        <pt x="557" y="-9" on="0"/>
        <pt x="349" y="-9" on="1"/>
        <pt x="176" y="-9" on="0"/>
        <pt x="14" y="168" on="0"/>
        <pt x="14" y="531" on="0"/>
        <pt x="176" y="706" on="0"/>
        <pt x="349" y="706" on="1"/>
        <pt x="556" y="706" on="0"/>
        <pt x="633" y="579" on="1"/>
        <pt x="712" y="706" on="0"/>
      </contour>
      <contour>
        <pt x="330" y="322" on="1"/>
        <pt x="475" y="322" on="1"/>
        <pt x="475" y="350" on="1"/>
        <pt x="475" y="363" on="0"/>
        <pt x="458" y="379" on="0"/>
        <pt x="446" y="379" on="1"/>
        <pt x="330" y="379" on="1"/>
        <pt x="318" y="379" on="0"/>
        <pt x="302" y="363" on="0"/>
        <pt x="302" y="339" on="0"/>
        <pt x="319" y="322" on="0"/>
      </contour>
      <contour>
        <pt x="821" y="322" on="1"/>
        <pt x="937" y="322" on="1"/>
        <pt x="948" y="322" on="0"/>
        <pt x="965" y="339" on="0"/>
        <pt x="965" y="363" on="0"/>
        <pt x="949" y="379" on="0"/>
        <pt x="937" y="379" on="1"/>
        <pt x="792" y="379" on="1"/>
        <pt x="792" y="350" on="1"/>
        <pt x="792" y="339" on="0"/>
        <pt x="809" y="322" on="0"/>
      </contour>
    </TTGlyph>
    <TTGlyph name="integral" xMin="90" yMin="-339" xMax="715" yMax="951">
      <contour>
        <pt x="338" y="204" on="0"/>
        <pt x="340" y="282" on="0"/>
        <pt x="348" y="491" on="0"/>
        <pt x="377" y="727" on="0"/>
        <pt x="441" y="870" on="0"/>
        <pt x="542" y="951" on="0"/>
        <pt x="653" y="951" on="0"/>
        <pt x="715" y="899" on="0"/>
        <pt x="715" y="828" on="0"/>
        <pt x="696" y="811" on="1"/>
        <pt x="680" y="794" on="0"/>
        <pt x="608" y="794" on="0"/>
        <pt x="586" y="837" on="1"/>
        <pt x="567" y="881" on="0"/>
        <pt x="548" y="881" on="1"/>
        <pt x="480" y="881" on="0"/>
        <pt x="469" y="455" on="1"/>
        <pt x="465" y="319" on="1"/>
        <pt x="451" y="-65" on="0"/>
        <pt x="399" y="-179" on="1"/>
        <pt x="367" y="-254" on="0"/>
        <pt x="263" y="-339" on="0"/>
        <pt x="154" y="-339" on="0"/>
        <pt x="90" y="-286" on="0"/>
        <pt x="90" y="-251" on="1"/>
        <pt x="90" y="-182" on="0"/>
        <pt x="157" y="-182" on="1"/>
        <pt x="197" y="-182" on="0"/>
        <pt x="217" y="-226" on="1"/>
        <pt x="239" y="-269" on="0"/>
        <pt x="260" y="-269" on="1"/>
        <pt x="325" y="-269" on="0"/>
        <pt x="337" y="176" on="1"/>
      </contour>
    </TTGlyph>
    <TTGlyph name="j" xMin="-14" yMin="-93" xMax="325" yMax="792">
      <contour>
        <pt x="325" y="90" on="1"/>
        <pt x="325" y="-33" on="0"/>
        <pt x="270" y="-93" on="1"/>
        <pt x="-14" y="-93" on="1"/>
        <pt x="1" y="-70" on="0"/>
        <pt x="24" y="17" on="0"/>
        <pt x="24" y="61" on="1"/>
        <pt x="24" y="519" on="1"/>
        <pt x="325" y="519" on="1"/>
      </contour>
      <contour>
        <pt x="97" y="542" on="0"/>
        <pt x="24" y="601" on="0"/>
        <pt x="24" y="734" on="0"/>
        <pt x="98" y="792" on="0"/>
        <pt x="173" y="792" on="1"/>
        <pt x="323" y="792" on="0"/>
        <pt x="323" y="671" on="1"/>
        <pt x="323" y="602" on="0"/>
        <pt x="248" y="542" on="0"/>
      </contour>
    </TTGlyph>
    <TTGlyph name="k" xMin="29" yMin="0" xMax="699" yMax="745">
      <contour>
        <pt x="327" y="190" on="1"/>
        <pt x="327" y="0" on="1"/>
        <pt x="29" y="0" on="1"/>
        <pt x="29" y="745" on="1"/>
        <pt x="327" y="745" on="1"/>
        <pt x="327" y="332" on="1"/>
        <pt x="353" y="332" on="1"/>
        <pt x="390" y="591" on="1"/>
        <pt x="699" y="591" on="1"/>
        <pt x="635" y="307" on="1"/>
        <pt x="699" y="0" on="1"/>
        <pt x="378" y="0" on="1"/>
        <pt x="353" y="190" on="1"/>
      </contour>
    </TTGlyph>
    <TTGlyph name="l" xMin="29" yMin="-10" xMax="350" yMax="745">
      <contour>
        <pt x="29" y="147" on="1"/>
        <pt x="29" y="745" on="1"/>
        <pt x="329" y="745" on="1"/>
        <pt x="329" y="257" on="1"/>
        <pt x="350" y="257" on="1"/>
        <pt x="350" y="11" on="1"/>
        <pt x="297" y="-10" on="0"/>
        <pt x="108" y="-10" on="0"/>
        <pt x="29" y="68" on="0"/>
      </contour>
    </TTGlyph>
    <TTGlyph name="less" xMin="29" yMin="41" xMax="466" yMax="608">
      <contour>
        <pt x="29" y="233" on="1"/>
        <pt x="29" y="416" on="1"/>
        <pt x="368" y="608" on="1"/>
        <pt x="466" y="352" on="1"/>
        <pt x="310" y="325" on="1"/>
        <pt x="466" y="297" on="1"/>
        <pt x="368" y="41" on="1"/>
      </contour>
    </TTGlyph>
    <TTGlyph name="lessequal" xMin="29" yMin="39" xMax="433" yMax="679">
      <contour>
        <pt x="29" y="39" on="1"/>
        <pt x="29" y="229" on="1"/>
        <pt x="433" y="229" on="1"/>
        <pt x="433" y="39" on="1"/>
      </contour>
      <contour>
        <pt x="29" y="370" on="1"/>
        <pt x="29" y="546" on="1"/>
        <pt x="433" y="679" on="1"/>
        <pt x="433" y="476" on="1"/>
        <pt x="256" y="458" on="1"/>
        <pt x="433" y="430" on="1"/>
        <pt x="433" y="237" on="1"/>
      </contour>
    </TTGlyph>
    <TTGlyph name="logicalnot" xMin="23" yMin="-9" xMax="571" yMax="459">
      <contour>
        <pt x="353" y="242" on="1"/>
        <pt x="23" y="242" on="1"/>
        <pt x="23" y="459" on="1"/>
        <pt x="571" y="459" on="1"/>
        <pt x="571" y="-9" on="1"/>
        <pt x="353" y="-9" on="1"/>
      </contour>
    </TTGlyph>
    <TTGlyph name="lozenge" xMin="23" yMin="54" xMax="516" yMax="626">
      <contour>
        <pt x="23" y="336" on="1"/>
        <pt x="223" y="626" on="1"/>
        <pt x="310" y="626" on="1"/>
        <pt x="516" y="336" on="1"/>
        <pt x="313" y="54" on="1"/>
        <pt x="226" y="54" on="1"/>
      </contour>
    </TTGlyph>
    <TTGlyph name="lslash" xMin="7" yMin="-10" xMax="350" yMax="745">
      <contour>
        <pt x="29" y="745" on="1"/>
        <pt x="329" y="745" on="1"/>
        <pt x="329" y="525" on="1"/>
        <pt x="350" y="528" on="1"/>
        <pt x="350" y="363" on="1"/>
        <pt x="329" y="360" on="1"/>
        <pt x="329" y="257" on="1"/>
        <pt x="350" y="257" on="1"/>
        <pt x="350" y="11" on="1"/>
        <pt x="297" y="-10" on="0"/>
        <pt x="108" y="-10" on="0"/>
        <pt x="29" y="68" on="0"/>
        <pt x="29" y="147" on="1"/>
        <pt x="29" y="320" on="1"/>
        <pt x="7" y="317" on="1"/>
        <pt x="7" y="482" on="1"/>
        <pt x="29" y="485" on="1"/>
      </contour>
    </TTGlyph>
    <TTGlyph name="m" xMin="14" yMin="0" xMax="962" yMax="601">
      <contour>
        <pt x="679" y="0" on="1"/>
        <pt x="679" y="317" on="1"/>
        <pt x="679" y="329" on="0"/>
        <pt x="662" y="346" on="0"/>
        <pt x="638" y="346" on="0"/>
        <pt x="622" y="329" on="0"/>
        <pt x="622" y="317" on="1"/>
        <pt x="622" y="0" on="1"/>
        <pt x="355" y="0" on="1"/>
        <pt x="355" y="317" on="1"/>
        <pt x="355" y="329" on="0"/>
        <pt x="338" y="346" on="0"/>
        <pt x="313" y="346" on="0"/>
        <pt x="297" y="329" on="0"/>
        <pt x="297" y="317" on="1"/>
        <pt x="297" y="0" on="1"/>
        <pt x="14" y="0" on="1"/>
        <pt x="14" y="591" on="1"/>
        <pt x="266" y="591" on="1"/>
        <pt x="276" y="518" on="1"/>
        <pt x="280" y="529" on="0"/>
        <pt x="308" y="561" on="0"/>
        <pt x="324" y="572" on="1"/>
        <pt x="368" y="601" on="0"/>
        <pt x="440" y="601" on="1"/>
        <pt x="557" y="601" on="0"/>
        <pt x="603" y="523" on="1"/>
        <pt x="611" y="538" on="0"/>
        <pt x="637" y="567" on="0"/>
        <pt x="714" y="601" on="0"/>
        <pt x="765" y="601" on="1"/>
        <pt x="863" y="601" on="0"/>
        <pt x="962" y="493" on="0"/>
        <pt x="962" y="390" on="1"/>
        <pt x="962" y="0" on="1"/>
      </contour>
    </TTGlyph>
    <TTGlyph name="macron" xMin="47" yMin="719" xMax="360" yMax="849">
      <contour>
        <pt x="47" y="849" on="1"/>
        <pt x="360" y="849" on="1"/>
        <pt x="360" y="719" on="1"/>
        <pt x="47" y="719" on="1"/>
      </contour>
    </TTGlyph>
    <TTGlyph name="minus" xMin="23" yMin="242" xMax="428" yMax="459">
      <contour>
        <pt x="23" y="242" on="1"/>
        <pt x="23" y="459" on="1"/>
        <pt x="428" y="459" on="1"/>
        <pt x="428" y="242" on="1"/>
      </contour>
    </TTGlyph>
    <TTGlyph name="mu" xMin="29" yMin="-103" xMax="652" yMax="591">
      <contour>
        <pt x="333" y="14" on="1"/>
        <pt x="338" y="-18" on="0"/>
        <pt x="352" y="-63" on="1"/>
        <pt x="50" y="-103" on="1"/>
        <pt x="29" y="-3" on="0"/>
        <pt x="29" y="140" on="1"/>
        <pt x="29" y="591" on="1"/>
        <pt x="312" y="591" on="1"/>
        <pt x="312" y="262" on="1"/>
        <pt x="312" y="250" on="0"/>
        <pt x="329" y="233" on="0"/>
        <pt x="353" y="233" on="0"/>
        <pt x="369" y="250" on="0"/>
        <pt x="369" y="262" on="1"/>
        <pt x="369" y="591" on="1"/>
        <pt x="652" y="591" on="1"/>
        <pt x="652" y="0" on="1"/>
        <pt x="400" y="0" on="1"/>
        <pt x="390" y="73" on="1"/>
        <pt x="386" y="54" on="0"/>
        <pt x="357" y="24" on="0"/>
        <pt x="345" y="19" on="1"/>
      </contour>
    </TTGlyph>
    <TTGlyph name="multiply" xMin="14" yMin="53" xMax="532" yMax="565">
      <contour>
        <pt x="167" y="561" on="1"/>
        <pt x="270" y="456" on="1"/>
        <pt x="379" y="565" on="1"/>
        <pt x="532" y="412" on="1"/>
        <pt x="425" y="303" on="1"/>
        <pt x="522" y="206" on="1"/>
        <pt x="368" y="53" on="1"/>
        <pt x="270" y="149" on="1"/>
        <pt x="179" y="57" on="1"/>
        <pt x="24" y="212" on="1"/>
        <pt x="117" y="303" on="1"/>
        <pt x="14" y="406" on="1"/>
      </contour>
    </TTGlyph>
    <TTGlyph name="n" xMin="29" yMin="0" xMax="652" yMax="601">
      <contour>
        <pt x="312" y="317" on="1"/>
        <pt x="312" y="0" on="1"/>
        <pt x="29" y="0" on="1"/>
        <pt x="29" y="591" on="1"/>
        <pt x="280" y="591" on="1"/>
        <pt x="290" y="518" on="1"/>
        <pt x="294" y="529" on="0"/>
        <pt x="322" y="561" on="0"/>
        <pt x="338" y="572" on="1"/>
        <pt x="382" y="601" on="0"/>
        <pt x="455" y="601" on="1"/>
        <pt x="553" y="601" on="0"/>
        <pt x="652" y="493" on="0"/>
        <pt x="652" y="390" on="1"/>
        <pt x="652" y="0" on="1"/>
        <pt x="369" y="0" on="1"/>
        <pt x="369" y="317" on="1"/>
        <pt x="369" y="329" on="0"/>
        <pt x="352" y="346" on="0"/>
        <pt x="328" y="346" on="0"/>
        <pt x="312" y="329" on="0"/>
      </contour>
    </TTGlyph>
    <TTGlyph name="nine" xMin="29" yMin="-9" xMax="655" yMax="699">
      <contour>
        <pt x="245" y="250" on="1"/>
        <pt x="301" y="250" on="0"/>
        <pt x="339" y="262" on="1"/>
        <pt x="339" y="285" on="1"/>
        <pt x="300" y="273" on="0"/>
        <pt x="262" y="273" on="1"/>
        <pt x="132" y="273" on="0"/>
        <pt x="29" y="375" on="0"/>
        <pt x="29" y="482" on="1"/>
        <pt x="29" y="699" on="0"/>
        <pt x="333" y="699" on="1"/>
        <pt x="500" y="699" on="0"/>
        <pt x="655" y="522" on="0"/>
        <pt x="655" y="340" on="1"/>
        <pt x="655" y="-9" on="0"/>
        <pt x="296" y="-9" on="1"/>
        <pt x="222" y="-9" on="0"/>
        <pt x="94" y="16" on="0"/>
        <pt x="66" y="28" on="1"/>
        <pt x="39" y="41" on="1"/>
        <pt x="73" y="280" on="1"/>
        <pt x="133" y="250" on="0"/>
      </contour>
      <contour>
        <pt x="299" y="409" on="1"/>
        <pt x="299" y="368" on="1"/>
        <pt x="299" y="355" on="0"/>
        <pt x="315" y="339" on="0"/>
        <pt x="327" y="339" on="1"/>
        <pt x="356" y="339" on="0"/>
        <pt x="356" y="368" on="1"/>
        <pt x="356" y="409" on="1"/>
        <pt x="356" y="422" on="0"/>
        <pt x="340" y="438" on="0"/>
        <pt x="316" y="438" on="0"/>
        <pt x="299" y="422" on="0"/>
      </contour>
    </TTGlyph>
    <TTGlyph name="notequal" xMin="36" yMin="-9" xMax="546" yMax="718">
      <contour>
        <pt x="546" y="113" on="1"/>
        <pt x="378" y="113" on="1"/>
        <pt x="357" y="0" on="1"/>
        <pt x="337" y="-9" on="0"/>
        <pt x="230" y="-9" on="0"/>
        <pt x="141" y="14" on="0"/>
        <pt x="128" y="26" on="1"/>
        <pt x="114" y="37" on="1"/>
        <pt x="127" y="113" on="1"/>
        <pt x="36" y="113" on="1"/>
        <pt x="36" y="323" on="1"/>
        <pt x="166" y="323" on="1"/>
        <pt x="174" y="376" on="1"/>
        <pt x="36" y="376" on="1"/>
        <pt x="36" y="586" on="1"/>
        <pt x="212" y="586" on="1"/>
        <pt x="235" y="709" on="1"/>
        <pt x="255" y="718" on="0"/>
        <pt x="362" y="718" on="0"/>
        <pt x="451" y="695" on="0"/>
        <pt x="464" y="684" on="1"/>
        <pt x="478" y="672" on="1"/>
        <pt x="462" y="586" on="1"/>
        <pt x="546" y="586" on="1"/>
        <pt x="546" y="376" on="1"/>
        <pt x="425" y="376" on="1"/>
        <pt x="415" y="323" on="1"/>
        <pt x="546" y="323" on="1"/>
      </contour>
    </TTGlyph>
    <TTGlyph name="ntilde" xMin="29" yMin="0" xMax="652" yMax="825">
      <contour>
        <pt x="312" y="317" on="1"/>
        <pt x="312" y="0" on="1"/>
        <pt x="29" y="0" on="1"/>
        <pt x="29" y="591" on="1"/>
        <pt x="280" y="591" on="1"/>
        <pt x="290" y="518" on="1"/>
        <pt x="294" y="529" on="0"/>
        <pt x="322" y="561" on="0"/>
        <pt x="338" y="572" on="1"/>
        <pt x="382" y="601" on="0"/>
        <pt x="455" y="601" on="1"/>
        <pt x="553" y="601" on="0"/>
        <pt x="652" y="493" on="0"/>
        <pt x="652" y="390" on="1"/>
        <pt x="652" y="0" on="1"/>
        <pt x="369" y="0" on="1"/>
        <pt x="369" y="317" on="1"/>
        <pt x="369" y="329" on="0"/>
        <pt x="352" y="346" on="0"/>
        <pt x="328" y="346" on="0"/>
        <pt x="312" y="329" on="0"/>
      </contour>
      <contour>
        <pt x="184" y="809" on="1"/>
        <pt x="214" y="817" on="0"/>
        <pt x="291" y="817" on="0"/>
        <pt x="364" y="790" on="0"/>
        <pt x="378" y="776" on="1"/>
        <pt x="393" y="762" on="1"/>
        <pt x="520" y="825" on="1"/>
        <pt x="599" y="694" on="1"/>
        <pt x="593" y="685" on="0"/>
        <pt x="556" y="656" on="0"/>
        <pt x="537" y="646" on="1"/>
        <pt x="486" y="621" on="0"/>
        <pt x="420" y="621" on="1"/>
        <pt x="384" y="621" on="0"/>
        <pt x="316" y="648" on="0"/>
        <pt x="300" y="661" on="1"/>
        <pt x="283" y="674" on="1"/>
        <pt x="160" y="609" on="1"/>
        <pt x="80" y="742" on="1"/>
        <pt x="111" y="789" on="0"/>
      </contour>
    </TTGlyph>
    <TTGlyph name="numbersign" xMin="47" yMin="0" xMax="782" yMax="678">
      <contour>
        <pt x="76" y="585" on="1"/>
        <pt x="190" y="585" on="1"/>
        <pt x="206" y="678" on="1"/>
        <pt x="428" y="678" on="1"/>
        <pt x="410" y="585" on="1"/>
        <pt x="505" y="585" on="1"/>
        <pt x="521" y="678" on="1"/>
        <pt x="742" y="678" on="1"/>
        <pt x="725" y="585" on="1"/>
        <pt x="782" y="585" on="1"/>
        <pt x="768" y="360" on="1"/>
        <pt x="686" y="360" on="1"/>
        <pt x="681" y="327" on="1"/>
        <pt x="768" y="327" on="1"/>
        <pt x="754" y="103" on="1"/>
        <pt x="642" y="103" on="1"/>
        <pt x="625" y="0" on="1"/>
        <pt x="403" y="0" on="1"/>
        <pt x="420" y="103" on="1"/>
        <pt x="327" y="103" on="1"/>
        <pt x="310" y="0" on="1"/>
        <pt x="89" y="0" on="1"/>
        <pt x="106" y="103" on="1"/>
        <pt x="47" y="103" on="1"/>
        <pt x="61" y="327" on="1"/>
        <pt x="146" y="327" on="1"/>
        <pt x="152" y="360" on="1"/>
        <pt x="61" y="360" on="1"/>
      </contour>
      <contour>
        <pt x="466" y="360" on="1"/>
        <pt x="372" y="360" on="1"/>
        <pt x="366" y="327" on="1"/>
        <pt x="460" y="327" on="1"/>
      </contour>
    </TTGlyph>
    <TTGlyph name="o" xMin="29" yMin="-9" xMax="652" yMax="601">
      <contour>
        <pt x="360" y="-9" on="1"/>
        <pt x="320" y="-9" on="1"/>
        <pt x="174" y="-9" on="0"/>
        <pt x="29" y="135" on="0"/>
        <pt x="29" y="455" on="0"/>
        <pt x="174" y="601" on="0"/>
        <pt x="320" y="601" on="1"/>
        <pt x="360" y="601" on="1"/>
        <pt x="506" y="601" on="0"/>
        <pt x="652" y="455" on="0"/>
        <pt x="652" y="135" on="0"/>
        <pt x="507" y="-9" on="0"/>
      </contour>
      <contour>
        <pt x="312" y="303" on="1"/>
        <pt x="312" y="219" on="1"/>
        <pt x="312" y="206" on="0"/>
        <pt x="327" y="190" on="0"/>
        <pt x="352" y="190" on="0"/>
        <pt x="369" y="206" on="0"/>
        <pt x="369" y="219" on="1"/>
        <pt x="369" y="303" on="1"/>
        <pt x="369" y="315" on="0"/>
        <pt x="352" y="332" on="0"/>
        <pt x="328" y="332" on="0"/>
        <pt x="312" y="315" on="0"/>
      </contour>
    </TTGlyph>
    <TTGlyph name="oacute" xMin="29" yMin="-9" xMax="652" yMax="778">
      <contour>
        <pt x="360" y="-9" on="1"/>
        <pt x="320" y="-9" on="1"/>
        <pt x="174" y="-9" on="0"/>
        <pt x="29" y="135" on="0"/>
        <pt x="29" y="455" on="0"/>
        <pt x="174" y="601" on="0"/>
        <pt x="320" y="601" on="1"/>
        <pt x="360" y="601" on="1"/>
        <pt x="506" y="601" on="0"/>
        <pt x="652" y="455" on="0"/>
        <pt x="652" y="135" on="0"/>
        <pt x="507" y="-9" on="0"/>
      </contour>
      <contour>
        <pt x="312" y="303" on="1"/>
        <pt x="312" y="219" on="1"/>
        <pt x="312" y="206" on="0"/>
        <pt x="327" y="190" on="0"/>
        <pt x="352" y="190" on="0"/>
        <pt x="369" y="206" on="0"/>
        <pt x="369" y="219" on="1"/>
        <pt x="369" y="303" on="1"/>
        <pt x="369" y="315" on="0"/>
        <pt x="352" y="332" on="0"/>
        <pt x="328" y="332" on="0"/>
        <pt x="312" y="315" on="0"/>
      </contour>
      <contour>
        <pt x="497" y="620" on="1"/>
        <pt x="184" y="620" on="1"/>
        <pt x="184" y="750" on="1"/>
        <pt x="497" y="778" on="1"/>
      </contour>
    </TTGlyph>
    <TTGlyph name="ocircumflex" xMin="29" yMin="-9" xMax="652" yMax="796">
      <contour>
        <pt x="360" y="-9" on="1"/>
        <pt x="320" y="-9" on="1"/>
        <pt x="174" y="-9" on="0"/>
        <pt x="29" y="135" on="0"/>
        <pt x="29" y="455" on="0"/>
        <pt x="174" y="601" on="0"/>
        <pt x="320" y="601" on="1"/>
        <pt x="360" y="601" on="1"/>
        <pt x="506" y="601" on="0"/>
        <pt x="652" y="455" on="0"/>
        <pt x="652" y="135" on="0"/>
        <pt x="507" y="-9" on="0"/>
      </contour>
      <contour>
        <pt x="312" y="303" on="1"/>
        <pt x="312" y="219" on="1"/>
        <pt x="312" y="206" on="0"/>
        <pt x="327" y="190" on="0"/>
        <pt x="352" y="190" on="0"/>
        <pt x="369" y="206" on="0"/>
        <pt x="369" y="219" on="1"/>
        <pt x="369" y="303" on="1"/>
        <pt x="369" y="315" on="0"/>
        <pt x="352" y="332" on="0"/>
        <pt x="328" y="332" on="0"/>
        <pt x="312" y="315" on="0"/>
      </contour>
      <contour>
        <pt x="478" y="609" on="1"/>
        <pt x="342" y="679" on="1"/>
        <pt x="203" y="609" on="1"/>
        <pt x="152" y="740" on="1"/>
        <pt x="342" y="796" on="1"/>
        <pt x="531" y="740" on="1"/>
      </contour>
    </TTGlyph>
    <TTGlyph name="odieresis" xMin="29" yMin="-9" xMax="652" yMax="782">
      <contour>
        <pt x="360" y="-9" on="1"/>
        <pt x="320" y="-9" on="1"/>
        <pt x="174" y="-9" on="0"/>
        <pt x="29" y="135" on="0"/>
        <pt x="29" y="455" on="0"/>
        <pt x="174" y="601" on="0"/>
        <pt x="320" y="601" on="1"/>
        <pt x="360" y="601" on="1"/>
        <pt x="506" y="601" on="0"/>
        <pt x="652" y="455" on="0"/>
        <pt x="652" y="135" on="0"/>
        <pt x="507" y="-9" on="0"/>
      </contour>
      <contour>
        <pt x="312" y="303" on="1"/>
        <pt x="312" y="219" on="1"/>
        <pt x="312" y="206" on="0"/>
        <pt x="327" y="190" on="0"/>
        <pt x="352" y="190" on="0"/>
        <pt x="369" y="206" on="0"/>
        <pt x="369" y="219" on="1"/>
        <pt x="369" y="303" on="1"/>
        <pt x="369" y="315" on="0"/>
        <pt x="352" y="332" on="0"/>
        <pt x="328" y="332" on="0"/>
        <pt x="312" y="315" on="0"/>
      </contour>
      <contour>
        <pt x="243" y="621" on="1"/>
        <pt x="185" y="621" on="1"/>
        <pt x="141" y="621" on="0"/>
        <pt x="105" y="661" on="0"/>
        <pt x="105" y="741" on="0"/>
        <pt x="141" y="782" on="0"/>
        <pt x="185" y="782" on="1"/>
        <pt x="243" y="782" on="1"/>
        <pt x="321" y="782" on="0"/>
        <pt x="321" y="621" on="0"/>
      </contour>
      <contour>
        <pt x="500" y="621" on="1"/>
        <pt x="443" y="621" on="1"/>
        <pt x="399" y="621" on="0"/>
        <pt x="363" y="661" on="0"/>
        <pt x="363" y="741" on="0"/>
        <pt x="399" y="782" on="0"/>
        <pt x="443" y="782" on="1"/>
        <pt x="500" y="782" on="1"/>
        <pt x="579" y="782" on="0"/>
        <pt x="579" y="621" on="0"/>
      </contour>
    </TTGlyph>
    <TTGlyph name="oe" xMin="29" yMin="-10" xMax="934" yMax="601">
      <contour>
        <pt x="654" y="257" on="1"/>
        <pt x="654" y="216" on="1"/>
        <pt x="678" y="210" on="0"/>
        <pt x="726" y="210" on="1"/>
        <pt x="823" y="210" on="0"/>
        <pt x="891" y="224" on="1"/>
        <pt x="912" y="229" on="1"/>
        <pt x="912" y="34" on="1"/>
        <pt x="904" y="29" on="0"/>
        <pt x="869" y="14" on="0"/>
        <pt x="737" y="-10" on="0"/>
        <pt x="570" y="-10" on="0"/>
        <pt x="503" y="14" on="1"/>
        <pt x="442" y="-9" on="0"/>
        <pt x="360" y="-9" on="1"/>
        <pt x="320" y="-9" on="1"/>
        <pt x="174" y="-9" on="0"/>
        <pt x="29" y="135" on="0"/>
        <pt x="29" y="455" on="0"/>
        <pt x="174" y="601" on="0"/>
        <pt x="320" y="601" on="1"/>
        <pt x="360" y="601" on="1"/>
        <pt x="444" y="601" on="0"/>
        <pt x="503" y="576" on="1"/>
        <pt x="566" y="601" on="0"/>
        <pt x="654" y="601" on="1"/>
        <pt x="810" y="601" on="0"/>
        <pt x="934" y="473" on="0"/>
        <pt x="934" y="327" on="1"/>
        <pt x="929" y="257" on="1"/>
      </contour>
      <contour>
        <pt x="312" y="303" on="1"/>
        <pt x="312" y="219" on="1"/>
        <pt x="312" y="206" on="0"/>
        <pt x="327" y="190" on="0"/>
        <pt x="352" y="190" on="0"/>
        <pt x="369" y="206" on="0"/>
        <pt x="369" y="219" on="1"/>
        <pt x="369" y="303" on="1"/>
        <pt x="369" y="315" on="0"/>
        <pt x="352" y="332" on="0"/>
        <pt x="328" y="332" on="0"/>
        <pt x="312" y="315" on="0"/>
      </contour>
      <contour>
        <pt x="652" y="329" on="1"/>
        <pt x="652" y="302" on="1"/>
        <pt x="709" y="302" on="1"/>
        <pt x="709" y="329" on="1"/>
        <pt x="709" y="341" on="0"/>
        <pt x="693" y="357" on="0"/>
        <pt x="668" y="357" on="0"/>
        <pt x="652" y="342" on="0"/>
      </contour>
    </TTGlyph>
    <TTGlyph name="ogonek" xMin="86" yMin="-93" xMax="256" yMax="20">
      <contour>
        <pt x="209" y="-24" on="1"/>
        <pt x="230" y="-24" on="0"/>
        <pt x="256" y="-16" on="1"/>
        <pt x="256" y="-79" on="1"/>
        <pt x="232" y="-93" on="0"/>
        <pt x="177" y="-93" on="1"/>
        <pt x="86" y="-93" on="0"/>
        <pt x="86" y="-31" on="1"/>
        <pt x="86" y="20" on="0"/>
        <pt x="139" y="20" on="1"/>
        <pt x="166" y="20" on="1"/>
        <pt x="166" y="-24" on="0"/>
      </contour>
    </TTGlyph>
    <TTGlyph name="ograve" xMin="29" yMin="-9" xMax="652" yMax="778">
      <contour>
        <pt x="360" y="-9" on="1"/>
        <pt x="320" y="-9" on="1"/>
        <pt x="174" y="-9" on="0"/>
        <pt x="29" y="135" on="0"/>
        <pt x="29" y="455" on="0"/>
        <pt x="174" y="601" on="0"/>
        <pt x="320" y="601" on="1"/>
        <pt x="360" y="601" on="1"/>
        <pt x="506" y="601" on="0"/>
        <pt x="652" y="455" on="0"/>
        <pt x="652" y="135" on="0"/>
        <pt x="507" y="-9" on="0"/>
      </contour>
      <contour>
        <pt x="312" y="303" on="1"/>
        <pt x="312" y="219" on="1"/>
        <pt x="312" y="206" on="0"/>
        <pt x="327" y="190" on="0"/>
        <pt x="352" y="190" on="0"/>
        <pt x="369" y="206" on="0"/>
        <pt x="369" y="219" on="1"/>
        <pt x="369" y="303" on="1"/>
        <pt x="369" y="315" on="0"/>
        <pt x="352" y="332" on="0"/>
        <pt x="328" y="332" on="0"/>
        <pt x="312" y="315" on="0"/>
      </contour>
      <contour>
        <pt x="497" y="620" on="1"/>
        <pt x="184" y="620" on="1"/>
        <pt x="184" y="778" on="1"/>
        <pt x="497" y="750" on="1"/>
      </contour>
    </TTGlyph>
    <TTGlyph name="one" xMin="29" yMin="0" xMax="373" yMax="691">
      <contour>
        <pt x="29" y="0" on="1"/>
        <pt x="29" y="605" on="1"/>
        <pt x="373" y="691" on="1"/>
        <pt x="373" y="0" on="1"/>
      </contour>
    </TTGlyph>
    <TTGlyph name="onehalf" xMin="14" yMin="-33" xMax="1120" yMax="735">
      <contour>
        <pt x="681" y="735" on="1"/>
        <pt x="545" y="-33" on="1"/>
        <pt x="295" y="-33" on="1"/>
        <pt x="432" y="735" on="1"/>
      </contour>
      <contour>
        <pt x="14" y="199" on="1"/>
        <pt x="14" y="645" on="1"/>
        <pt x="283" y="699" on="1"/>
        <pt x="283" y="199" on="1"/>
      </contour>
      <contour>
        <pt x="1120" y="0" on="1"/>
        <pt x="678" y="0" on="1"/>
        <pt x="678" y="177" on="1"/>
        <pt x="694" y="183" on="0"/>
        <pt x="734" y="199" on="0"/>
        <pt x="757" y="208" on="0"/>
        <pt x="784" y="220" on="0"/>
        <pt x="799" y="228" on="0"/>
        <pt x="806" y="233" on="1"/>
        <pt x="818" y="242" on="0"/>
        <pt x="818" y="255" on="1"/>
        <pt x="818" y="273" on="0"/>
        <pt x="796" y="273" on="1"/>
        <pt x="755" y="273" on="0"/>
        <pt x="702" y="255" on="1"/>
        <pt x="685" y="249" on="1"/>
        <pt x="685" y="469" on="1"/>
        <pt x="718" y="486" on="0"/>
        <pt x="843" y="511" on="0"/>
        <pt x="901" y="511" on="1"/>
        <pt x="1120" y="511" on="0"/>
        <pt x="1120" y="362" on="1"/>
        <pt x="1120" y="304" on="0"/>
        <pt x="1057" y="231" on="0"/>
        <pt x="982" y="206" on="1"/>
        <pt x="1120" y="206" on="1"/>
      </contour>
    </TTGlyph>
    <TTGlyph name="onequarter" xMin="14" yMin="-33" xMax="1137" yMax="735">
      <contour>
        <pt x="681" y="735" on="1"/>
        <pt x="545" y="-33" on="1"/>
        <pt x="295" y="-33" on="1"/>
        <pt x="432" y="735" on="1"/>
      </contour>
      <contour>
        <pt x="829" y="66" on="1"/>
        <pt x="655" y="66" on="1"/>
        <pt x="655" y="230" on="1"/>
        <pt x="818" y="499" on="1"/>
        <pt x="1080" y="499" on="1"/>
        <pt x="1080" y="266" on="1"/>
        <pt x="1137" y="266" on="1"/>
        <pt x="1137" y="66" on="1"/>
        <pt x="1080" y="66" on="1"/>
        <pt x="1080" y="0" on="1"/>
        <pt x="829" y="0" on="1"/>
      </contour>
      <contour>
        <pt x="14" y="199" on="1"/>
        <pt x="14" y="645" on="1"/>
        <pt x="283" y="699" on="1"/>
        <pt x="283" y="199" on="1"/>
      </contour>
      <contour>
        <pt x="885" y="193" on="1"/>
        <pt x="885" y="257" on="1"/>
        <pt x="862" y="257" on="1"/>
        <pt x="841" y="193" on="1"/>
      </contour>
    </TTGlyph>
    <TTGlyph name="onesuperior" xMin="14" yMin="199" xMax="283" yMax="699">
      <contour>
        <pt x="14" y="199" on="1"/>
        <pt x="14" y="645" on="1"/>
        <pt x="283" y="699" on="1"/>
        <pt x="283" y="199" on="1"/>
      </contour>
    </TTGlyph>
    <TTGlyph name="ordfeminine" xMin="14" yMin="190" xMax="523" yMax="701">
      <contour>
        <pt x="192" y="486" on="1"/>
        <pt x="148" y="486" on="0"/>
        <pt x="68" y="464" on="0"/>
        <pt x="50" y="454" on="1"/>
        <pt x="33" y="443" on="1"/>
        <pt x="33" y="648" on="1"/>
        <pt x="41" y="654" on="0"/>
        <pt x="71" y="672" on="0"/>
        <pt x="183" y="701" on="0"/>
        <pt x="249" y="701" on="1"/>
        <pt x="383" y="701" on="0"/>
        <pt x="506" y="611" on="0"/>
        <pt x="506" y="515" on="1"/>
        <pt x="502" y="412" on="1"/>
        <pt x="523" y="413" on="1"/>
        <pt x="523" y="223" on="1"/>
        <pt x="483" y="190" on="0"/>
        <pt x="403" y="190" on="1"/>
        <pt x="309" y="190" on="0"/>
        <pt x="300" y="257" on="1"/>
        <pt x="244" y="190" on="0"/>
        <pt x="153" y="190" on="1"/>
        <pt x="14" y="190" on="0"/>
        <pt x="14" y="307" on="1"/>
        <pt x="14" y="376" on="0"/>
        <pt x="130" y="438" on="0"/>
        <pt x="260" y="443" on="1"/>
        <pt x="260" y="486" on="0"/>
      </contour>
      <contour>
        <pt x="269" y="360" on="1"/>
        <pt x="269" y="406" on="1"/>
        <pt x="227" y="395" on="1"/>
        <pt x="227" y="360" on="1"/>
        <pt x="227" y="352" on="0"/>
        <pt x="239" y="340" on="0"/>
        <pt x="257" y="340" on="0"/>
        <pt x="269" y="352" on="0"/>
      </contour>
    </TTGlyph>
    <TTGlyph name="ordmasculine" xMin="14" yMin="190" xMax="506" yMax="699">
      <contour>
        <pt x="388" y="699" on="0"/>
        <pt x="506" y="579" on="0"/>
        <pt x="506" y="310" on="0"/>
        <pt x="387" y="190" on="0"/>
        <pt x="259" y="190" on="1"/>
        <pt x="253" y="190" on="1"/>
        <pt x="134" y="190" on="0"/>
        <pt x="14" y="311" on="0"/>
        <pt x="14" y="578" on="0"/>
        <pt x="133" y="698" on="0"/>
        <pt x="259" y="699" on="1"/>
        <pt x="269" y="699" on="1"/>
      </contour>
      <contour>
        <pt x="235" y="468" on="1"/>
        <pt x="235" y="402" on="1"/>
        <pt x="235" y="389" on="0"/>
        <pt x="250" y="373" on="0"/>
        <pt x="275" y="373" on="0"/>
        <pt x="292" y="389" on="0"/>
        <pt x="292" y="402" on="1"/>
        <pt x="292" y="468" on="1"/>
        <pt x="292" y="479" on="0"/>
        <pt x="275" y="496" on="0"/>
        <pt x="251" y="496" on="0"/>
        <pt x="235" y="480" on="0"/>
      </contour>
    </TTGlyph>
    <TTGlyph name="oslash" xMin="29" yMin="-70" xMax="652" yMax="669">
      <contour>
        <pt x="652" y="295" on="1"/>
        <pt x="652" y="146" on="0"/>
        <pt x="525" y="1" on="0"/>
        <pt x="398" y="-7" on="1"/>
        <pt x="388" y="-63" on="1"/>
        <pt x="372" y="-70" on="0"/>
        <pt x="282" y="-70" on="0"/>
        <pt x="209" y="-52" on="0"/>
        <pt x="198" y="-42" on="1"/>
        <pt x="187" y="-33" on="1"/>
        <pt x="193" y="9" on="1"/>
        <pt x="29" y="60" on="0"/>
        <pt x="29" y="295" on="1"/>
        <pt x="29" y="448" on="0"/>
        <pt x="163" y="594" on="0"/>
        <pt x="297" y="599" on="1"/>
        <pt x="310" y="662" on="1"/>
        <pt x="327" y="669" on="0"/>
        <pt x="416" y="669" on="0"/>
        <pt x="489" y="650" on="0"/>
        <pt x="500" y="641" on="1"/>
        <pt x="512" y="632" on="1"/>
        <pt x="500" y="578" on="1"/>
        <pt x="652" y="518" on="0"/>
      </contour>
      <contour>
        <pt x="312" y="303" on="1"/>
        <pt x="312" y="219" on="1"/>
        <pt x="312" y="206" on="0"/>
        <pt x="327" y="190" on="0"/>
        <pt x="352" y="190" on="0"/>
        <pt x="369" y="206" on="0"/>
        <pt x="369" y="219" on="1"/>
        <pt x="369" y="303" on="1"/>
        <pt x="369" y="315" on="0"/>
        <pt x="352" y="332" on="0"/>
        <pt x="328" y="332" on="0"/>
        <pt x="312" y="315" on="0"/>
      </contour>
    </TTGlyph>
    <TTGlyph name="otilde" xMin="29" yMin="-9" xMax="652" yMax="825">
      <contour>
        <pt x="360" y="-9" on="1"/>
        <pt x="320" y="-9" on="1"/>
        <pt x="174" y="-9" on="0"/>
        <pt x="29" y="135" on="0"/>
        <pt x="29" y="455" on="0"/>
        <pt x="174" y="601" on="0"/>
        <pt x="320" y="601" on="1"/>
        <pt x="360" y="601" on="1"/>
        <pt x="506" y="601" on="0"/>
        <pt x="652" y="455" on="0"/>
        <pt x="652" y="135" on="0"/>
        <pt x="507" y="-9" on="0"/>
      </contour>
      <contour>
        <pt x="312" y="303" on="1"/>
        <pt x="312" y="219" on="1"/>
        <pt x="312" y="206" on="0"/>
        <pt x="327" y="190" on="0"/>
        <pt x="352" y="190" on="0"/>
        <pt x="369" y="206" on="0"/>
        <pt x="369" y="219" on="1"/>
        <pt x="369" y="303" on="1"/>
        <pt x="369" y="315" on="0"/>
        <pt x="352" y="332" on="0"/>
        <pt x="328" y="332" on="0"/>
        <pt x="312" y="315" on="0"/>
      </contour>
      <contour>
        <pt x="188" y="809" on="1"/>
        <pt x="217" y="817" on="0"/>
        <pt x="294" y="817" on="0"/>
        <pt x="367" y="790" on="0"/>
        <pt x="382" y="776" on="1"/>
        <pt x="396" y="762" on="1"/>
        <pt x="523" y="825" on="1"/>
        <pt x="602" y="694" on="1"/>
        <pt x="596" y="685" on="0"/>
        <pt x="559" y="656" on="0"/>
        <pt x="540" y="646" on="1"/>
        <pt x="489" y="621" on="0"/>
        <pt x="423" y="621" on="1"/>
        <pt x="387" y="621" on="0"/>
        <pt x="319" y="648" on="0"/>
        <pt x="302" y="661" on="1"/>
        <pt x="286" y="674" on="1"/>
        <pt x="163" y="609" on="1"/>
        <pt x="83" y="742" on="1"/>
        <pt x="114" y="789" on="0"/>
      </contour>
    </TTGlyph>
    <TTGlyph name="p" xMin="29" yMin="-93" xMax="652" yMax="601">
      <contour>
        <pt x="408" y="-10" on="1"/>
        <pt x="355" y="-10" on="0"/>
        <pt x="327" y="10" on="1"/>
        <pt x="327" y="-93" on="1"/>
        <pt x="29" y="-93" on="1"/>
        <pt x="29" y="591" on="1"/>
        <pt x="280" y="591" on="1"/>
        <pt x="290" y="518" on="1"/>
        <pt x="308" y="571" on="0"/>
        <pt x="370" y="592" on="1"/>
        <pt x="396" y="601" on="0"/>
        <pt x="428" y="601" on="1"/>
        <pt x="540" y="601" on="0"/>
        <pt x="652" y="430" on="0"/>
        <pt x="652" y="152" on="0"/>
        <pt x="525" y="-10" on="0"/>
      </contour>
      <contour>
        <pt x="312" y="303" on="1"/>
        <pt x="312" y="219" on="1"/>
        <pt x="312" y="206" on="0"/>
        <pt x="327" y="190" on="0"/>
        <pt x="352" y="190" on="0"/>
        <pt x="369" y="206" on="0"/>
        <pt x="369" y="219" on="1"/>
        <pt x="369" y="303" on="1"/>
        <pt x="369" y="315" on="0"/>
        <pt x="352" y="332" on="0"/>
        <pt x="328" y="332" on="0"/>
        <pt x="312" y="315" on="0"/>
      </contour>
    </TTGlyph>
    <TTGlyph name="paragraph" xMin="14" yMin="-67" xMax="678" yMax="691">
      <contour>
        <pt x="629" y="-67" on="1"/>
        <pt x="265" y="-67" on="1"/>
        <pt x="265" y="159" on="1"/>
        <pt x="161" y="159" on="0"/>
        <pt x="14" y="291" on="0"/>
        <pt x="14" y="412" on="1"/>
        <pt x="14" y="560" on="0"/>
        <pt x="175" y="691" on="0"/>
        <pt x="349" y="691" on="1"/>
        <pt x="678" y="691" on="1"/>
        <pt x="678" y="376" on="1"/>
        <pt x="629" y="376" on="1"/>
      </contour>
    </TTGlyph>
    <TTGlyph name="parenleft" xMin="36" yMin="-93" xMax="512" yMax="779">
      <contour>
        <pt x="50" y="184" on="1"/>
        <pt x="36" y="261" on="0"/>
        <pt x="36" y="432" on="0"/>
        <pt x="63" y="585" on="0"/>
        <pt x="82" y="632" on="1"/>
        <pt x="123" y="732" on="0"/>
        <pt x="152" y="764" on="1"/>
        <pt x="166" y="779" on="1"/>
        <pt x="512" y="779" on="1"/>
        <pt x="508" y="771" on="0"/>
        <pt x="493" y="743" on="0"/>
        <pt x="455" y="652" on="0"/>
        <pt x="441" y="604" on="1"/>
        <pt x="403" y="474" on="0"/>
        <pt x="403" y="237" on="0"/>
        <pt x="458" y="18" on="0"/>
        <pt x="485" y="-38" on="1"/>
        <pt x="512" y="-93" on="1"/>
        <pt x="166" y="-93" on="1"/>
        <pt x="82" y="7" on="0"/>
      </contour>
    </TTGlyph>
    <TTGlyph name="parenright" xMin="29" yMin="-93" xMax="505" yMax="779">
      <contour>
        <pt x="29" y="-93" on="1"/>
        <pt x="137" y="123" on="0"/>
        <pt x="137" y="345" on="1"/>
        <pt x="137" y="454" on="0"/>
        <pt x="83" y="671" on="0"/>
        <pt x="56" y="725" on="1"/>
        <pt x="29" y="779" on="1"/>
        <pt x="375" y="779" on="1"/>
        <pt x="394" y="760" on="0"/>
        <pt x="443" y="677" on="0"/>
        <pt x="477" y="586" on="0"/>
        <pt x="505" y="432" on="0"/>
        <pt x="505" y="261" on="0"/>
        <pt x="478" y="109" on="0"/>
        <pt x="459" y="60" on="1"/>
        <pt x="420" y="-40" on="0"/>
        <pt x="388" y="-77" on="1"/>
        <pt x="375" y="-93" on="1"/>
      </contour>
    </TTGlyph>
    <TTGlyph name="partialdiff" xMin="63" yMin="-23" xMax="588" yMax="888">
      <contour>
        <pt x="479" y="399" on="1"/>
        <pt x="496" y="461" on="0"/>
        <pt x="496" y="606" on="1"/>
        <pt x="496" y="841" on="0"/>
        <pt x="408" y="841" on="1"/>
        <pt x="381" y="841" on="0"/>
        <pt x="336" y="792" on="1"/>
        <pt x="294" y="744" on="0"/>
        <pt x="262" y="744" on="1"/>
        <pt x="206" y="744" on="0"/>
        <pt x="206" y="788" on="1"/>
        <pt x="206" y="828" on="0"/>
        <pt x="247" y="858" on="1"/>
        <pt x="291" y="888" on="0"/>
        <pt x="350" y="888" on="1"/>
        <pt x="458" y="888" on="0"/>
        <pt x="588" y="685" on="0"/>
        <pt x="588" y="512" on="1"/>
        <pt x="588" y="284" on="0"/>
        <pt x="498" y="129" on="1"/>
        <pt x="407" y="-23" on="0"/>
        <pt x="276" y="-23" on="1"/>
        <pt x="182" y="-23" on="0"/>
        <pt x="122" y="49" on="1"/>
        <pt x="63" y="122" on="0"/>
        <pt x="63" y="361" on="0"/>
        <pt x="137" y="445" on="1"/>
        <pt x="212" y="529" on="0"/>
        <pt x="313" y="529" on="1"/>
        <pt x="375" y="529" on="0"/>
        <pt x="416" y="498" on="1"/>
        <pt x="454" y="467" on="0"/>
      </contour>
      <contour>
        <pt x="167" y="176" on="1"/>
        <pt x="167" y="9" on="0"/>
        <pt x="285" y="9" on="1"/>
        <pt x="360" y="9" on="0"/>
        <pt x="406" y="94" on="1"/>
        <pt x="455" y="180" on="0"/>
        <pt x="455" y="310" on="1"/>
        <pt x="455" y="396" on="0"/>
        <pt x="423" y="440" on="1"/>
        <pt x="392" y="486" on="0"/>
        <pt x="335" y="486" on="1"/>
        <pt x="260" y="486" on="0"/>
        <pt x="214" y="400" on="1"/>
        <pt x="167" y="317" on="0"/>
      </contour>
    </TTGlyph>
    <TTGlyph name="percent" xMin="29" yMin="-33" xMax="1274" yMax="735">
      <contour>
        <pt x="844" y="735" on="1"/>
        <pt x="708" y="-33" on="1"/>
        <pt x="458" y="-33" on="1"/>
        <pt x="595" y="735" on="1"/>
      </contour>
      <contour>
        <pt x="798" y="374" on="0"/>
        <pt x="913" y="499" on="0"/>
        <pt x="1156" y="499" on="0"/>
        <pt x="1274" y="374" on="0"/>
        <pt x="1274" y="116" on="0"/>
        <pt x="1158" y="-9" on="0"/>
        <pt x="913" y="-9" on="0"/>
        <pt x="798" y="116" on="0"/>
      </contour>
      <contour>
        <pt x="29" y="574" on="0"/>
        <pt x="144" y="699" on="0"/>
        <pt x="387" y="699" on="0"/>
        <pt x="505" y="574" on="0"/>
        <pt x="505" y="317" on="0"/>
        <pt x="388" y="192" on="0"/>
        <pt x="144" y="192" on="0"/>
        <pt x="29" y="317" on="0"/>
      </contour>
      <contour>
        <pt x="252" y="418" on="1"/>
        <pt x="313" y="418" on="1"/>
        <pt x="325" y="418" on="0"/>
        <pt x="342" y="434" on="0"/>
        <pt x="342" y="459" on="0"/>
        <pt x="325" y="475" on="0"/>
        <pt x="313" y="475" on="1"/>
        <pt x="252" y="475" on="1"/>
        <pt x="240" y="475" on="0"/>
        <pt x="223" y="459" on="0"/>
        <pt x="223" y="434" on="0"/>
        <pt x="240" y="418" on="0"/>
      </contour>
      <contour>
        <pt x="1020" y="217" on="1"/>
        <pt x="1081" y="217" on="1"/>
        <pt x="1093" y="217" on="0"/>
        <pt x="1110" y="234" on="0"/>
        <pt x="1110" y="259" on="0"/>
        <pt x="1093" y="275" on="0"/>
        <pt x="1081" y="275" on="1"/>
        <pt x="1020" y="275" on="1"/>
        <pt x="1008" y="275" on="0"/>
        <pt x="991" y="259" on="0"/>
        <pt x="991" y="234" on="0"/>
        <pt x="1008" y="217" on="0"/>
      </contour>
    </TTGlyph>
    <TTGlyph name="period" xMin="20" yMin="-9" xMax="419" yMax="326">
      <contour>
        <pt x="110" y="-9" on="0"/>
        <pt x="20" y="70" on="0"/>
        <pt x="20" y="250" on="0"/>
        <pt x="111" y="326" on="0"/>
        <pt x="326" y="326" on="0"/>
        <pt x="419" y="249" on="0"/>
        <pt x="419" y="70" on="0"/>
        <pt x="327" y="-9" on="0"/>
      </contour>
    </TTGlyph>
    <TTGlyph name="periodcentered" xMin="20" yMin="163" xMax="419" yMax="498">
      <contour>
        <pt x="110" y="163" on="0"/>
        <pt x="20" y="241" on="0"/>
        <pt x="20" y="422" on="0"/>
        <pt x="111" y="498" on="0"/>
        <pt x="326" y="498" on="0"/>
        <pt x="419" y="421" on="0"/>
        <pt x="419" y="242" on="0"/>
        <pt x="327" y="163" on="0"/>
      </contour>
    </TTGlyph>
</ttFont>
